<svg width="87" height="48" viewBox="0 0 87 48" fill="none" xmlns="http://www.w3.org/2000/svg">
<path fill-rule="evenodd" clip-rule="evenodd" d="M77.4641 3.92114C78.7074 3.92114 79.6524 4.91174 79.6524 6.14998C79.6524 7.38823 78.6577 8.3293 77.4641 8.3293C76.2207 8.3293 75.2261 7.38823 75.2261 6.14998C75.2261 4.91174 76.2705 3.92114 77.4641 3.92114ZM77.4641 4.31738C78.3593 4.31738 79.155 5.0108 79.2545 5.8528C79.0058 5.20892 78.3593 4.71362 77.5636 4.71362C76.5689 4.71362 75.7731 5.5061 75.7731 6.49669C75.7731 6.59575 75.8229 6.64528 75.8229 6.74434C75.7234 6.54622 75.6737 6.3481 75.6737 6.10045C75.6737 5.10986 76.4694 4.31738 77.4641 4.31738Z" fill="#2962FF"/>
<path fill-rule="evenodd" clip-rule="evenodd" d="M77.7619 11.9927L77.1652 15.0626L66.2269 18.4792L68.3151 13.8743C67.8179 13.6267 67.4201 13.2801 66.9727 12.9335C66.8235 12.3393 66.6246 11.8936 66.6246 11.2994L61.5532 11.349L69.2101 2.78271L72.2927 3.52545C76.668 -0.33679 81.1428 -0.386305 86.5125 0.405948C84.9712 5.50608 83.0819 9.6159 77.7619 11.9927ZM84.3746 1.84191C78.0105 0.950623 73.5357 4.66431 72.8396 5.65463L69.5581 4.91189L65.6302 9.21977H68.9117C68.9117 9.21977 67.9174 10.1606 68.4145 11.8441C69.757 12.983 71.0994 12.4383 71.0994 12.4383L69.757 15.3597L75.425 13.6267L76.0714 10.4577C77.2647 10.2596 82.6344 7.83333 84.3746 1.84191Z" fill="#2962FF"/>
<path fill-rule="evenodd" clip-rule="evenodd" d="M32.7152 39.473C38.6319 37.3439 50.2166 31.6495 65.7291 16.6462C55.5366 24.6183 41.6648 32.8379 28.6382 36.7992C26.6494 37.3934 25.8042 37.74 24.064 38.3837C24.412 38.3837 36.5933 51.4064 47.4323 40.1168C48.8741 40.5129 50.3657 40.7605 51.8573 40.7605C60.2599 40.7605 67.0218 34.0263 67.0218 25.6581C67.0218 23.4299 66.5246 21.3502 65.6794 19.4686C64.685 20.4094 63.7403 21.3502 62.9448 22.1425C63.2929 23.2814 63.4917 24.4202 63.4917 25.6581C63.4917 32.0457 58.2712 37.2448 51.8573 37.2448C49.8188 37.2448 47.9294 36.7497 46.239 35.8089C44.5485 38.7798 41.267 40.81 37.5877 40.81C35.8475 40.7605 34.2068 40.3148 32.7152 39.473Z" fill="#2962FF"/>
<path fill-rule="evenodd" clip-rule="evenodd" d="M63.2436 14.6172C63.2436 14.6172 53.051 20.9057 36.7926 26.6C24.1638 31.0565 13.126 31.4031 0 32.6905C18.5952 42.7422 51.5097 24.867 63.2436 14.6172Z" fill="#2962FF"/>
<path fill-rule="evenodd" clip-rule="evenodd" d="M20.7329 14.9137C23.1692 7.78342 29.9808 2.88135 37.7371 2.88135C43.7034 2.88135 49.1726 5.80278 52.5038 10.6058C54.6418 10.7049 56.6306 11.2 58.4702 12.0913L53.1999 14.171C52.7524 14.1214 52.305 14.1214 51.8575 14.1214C51.41 14.1214 50.9625 14.171 50.515 14.171C48.1285 9.56599 43.256 6.44649 37.6873 6.44649C30.7266 6.44649 24.9094 11.3486 23.5669 17.8351C20.0865 18.2808 17.2028 20.4595 15.8106 23.4799L17.5508 23.3809C37.8862 23.2324 62.3981 12.2398 62.3981 12.2398C45.0956 22.143 30.7763 27.1936 11.2861 27.6888C11.3359 21.7469 15.214 16.6468 20.7329 14.9137Z" fill="#2962FF"/>
</svg>
