<svg width="1600" height="1218" viewBox="0 0 1600 1218" fill="none" xmlns="http://www.w3.org/2000/svg">
<rect width="137.483" height="110.813" transform="matrix(0.866025 0.5 -0.866025 0.5 1003.91 236.718)" fill="url(#paint0_radial_182_2081)"/>
<rect width="137.485" height="766.616" transform="matrix(0.866025 0.5 -2.20305e-08 1 907.946 292.127)" fill="url(#paint1_radial_182_2081)"/>
<rect width="110.868" height="589.873" transform="matrix(0.866025 -0.5 2.20305e-08 1 1027.01 360.868)" fill="url(#paint2_radial_182_2081)"/>
<rect width="68.377" height="55.1126" transform="matrix(0.866025 0.5 -0.866025 0.5 230.216 481.846)" fill="url(#paint3_radial_182_2081)"/>
<rect width="68.3781" height="381.275" transform="matrix(0.866025 0.5 -2.20305e-08 1 182.487 509.404)" fill="url(#paint4_radial_182_2081)"/>
<rect width="55.1403" height="293.373" transform="matrix(0.866025 -0.5 2.20305e-08 1 241.703 543.593)" fill="url(#paint5_radial_182_2081)"/>
<rect width="203.965" height="164.398" transform="matrix(0.866025 0.5 -0.866025 0.5 1201.93 296.228)" fill="url(#paint6_radial_182_2081)"/>
<rect width="203.968" height="1137.32" transform="matrix(0.866025 0.5 -2.20305e-08 1 1059.56 378.43)" fill="url(#paint7_radial_182_2081)"/>
<rect width="164.48" height="875.114" transform="matrix(0.866025 -0.5 2.20305e-08 1 1236.19 480.413)" fill="url(#paint8_radial_182_2081)"/>
<rect width="124.362" height="100.237" transform="matrix(0.866025 0.5 -0.866025 0.5 117.685 493.18)" fill="url(#paint9_radial_182_2081)"/>
<rect width="124.364" height="693.45" transform="matrix(0.866025 0.5 -2.20305e-08 1 30.876 543.301)" fill="url(#paint10_radial_182_2081)"/>
<rect width="100.287" height="533.575" transform="matrix(0.866025 -0.5 2.20305e-08 1 138.576 605.482)" fill="url(#paint11_radial_182_2081)"/>
<rect width="1057.27" height="937.298" transform="matrix(0.866025 0.5 -0.866025 0.5 797.26 277.809)" fill="url(#paint12_radial_182_2081)"/>
<rect width="1057.28" height="1219.25" transform="matrix(0.866025 0.5 -2.20305e-08 1 -14.4648 746.47)" fill="url(#paint13_radial_182_2081)"/>
<rect width="852.596" height="1012.49" transform="matrix(0.866025 -0.5 2.20305e-08 1 901.154 1275.11)" fill="url(#paint14_radial_182_2081)"/>
<path d="M1247.01 293.002V281.075L1237.41 287.007V298.934L1247.01 293.002Z" fill="url(#paint15_linear_182_2081)"/>
<path d="M1227.82 293.002V281.075L1237.41 287.007V298.934L1227.82 293.002Z" fill="url(#paint16_linear_182_2081)"/>
<path d="M1227.82 293.002V281.075L1237.41 287.007V298.934L1227.82 293.002Z" fill="url(#paint17_linear_182_2081)"/>
<path d="M1237.37 275.126L1247.01 281.075L1237.41 287.009L1227.81 281.075L1237.37 275.126Z" fill="url(#paint18_linear_182_2081)"/>
<path d="M1237.37 275.126L1247.01 281.075L1237.41 287.009L1227.81 281.075L1237.37 275.126Z" fill="url(#paint19_radial_182_2081)"/>
<path d="M1192.19 119.541V107.614L1182.6 113.546V125.473L1192.19 119.541Z" fill="url(#paint20_linear_182_2081)"/>
<path d="M1173 119.541V107.614L1182.6 113.546V125.473L1173 119.541Z" fill="url(#paint21_linear_182_2081)"/>
<path d="M1173 119.541V107.614L1182.6 113.546V125.473L1173 119.541Z" fill="url(#paint22_linear_182_2081)"/>
<path d="M1182.56 101.664L1192.19 107.613L1182.6 113.547L1173 107.614L1182.56 101.664Z" fill="url(#paint23_linear_182_2081)"/>
<path d="M1182.56 101.664L1192.19 107.613L1182.6 113.547L1173 107.614L1182.56 101.664Z" fill="url(#paint24_radial_182_2081)"/>
<path d="M445.613 388.899V374.192L433.78 381.507V396.214L445.613 388.899Z" fill="url(#paint25_linear_182_2081)"/>
<path d="M421.946 388.899V374.192L433.779 381.507V396.214L421.946 388.899Z" fill="url(#paint26_linear_182_2081)"/>
<path d="M421.946 388.899V374.192L433.779 381.507V396.214L421.946 388.899Z" fill="url(#paint27_linear_182_2081)"/>
<path d="M433.733 366.856L445.613 374.192L433.778 381.509L421.944 374.192L433.733 366.856Z" fill="url(#paint28_linear_182_2081)"/>
<path d="M433.733 366.856L445.613 374.192L433.778 381.509L421.944 374.192L433.733 366.856Z" fill="url(#paint29_radial_182_2081)"/>
<path d="M272.751 482.86V468.152L260.917 475.467V490.174L272.751 482.86Z" fill="url(#paint30_linear_182_2081)"/>
<path d="M249.083 482.86V468.152L260.917 475.467V490.174L249.083 482.86Z" fill="url(#paint31_linear_182_2081)"/>
<path d="M249.083 482.86V468.152L260.917 475.467V490.174L249.083 482.86Z" fill="url(#paint32_linear_182_2081)"/>
<path d="M260.871 460.816L272.751 468.152L260.916 475.469L249.082 468.152L260.871 460.816Z" fill="url(#paint33_linear_182_2081)"/>
<path d="M260.871 460.816L272.751 468.152L260.916 475.469L249.082 468.152L260.871 460.816Z" fill="url(#paint34_radial_182_2081)"/>
<path d="M1400.05 27.6439V9.20117L1385.21 18.3739V36.8167L1400.05 27.6439Z" fill="url(#paint35_linear_182_2081)"/>
<path d="M1370.37 27.6439V9.20117L1385.21 18.3739V36.8167L1370.37 27.6439Z" fill="url(#paint36_linear_182_2081)"/>
<path d="M1370.37 27.6439V9.20117L1385.21 18.3739V36.8167L1370.37 27.6439Z" fill="url(#paint37_linear_182_2081)"/>
<path d="M1385.15 0L1400.05 9.19932L1385.21 18.3754L1370.37 9.19981L1385.15 0Z" fill="url(#paint38_linear_182_2081)"/>
<path d="M1385.15 0L1400.05 9.19932L1385.21 18.3754L1370.37 9.19981L1385.15 0Z" fill="url(#paint39_radial_182_2081)"/>
<path d="M1336.17 142.209V107.817L1308.49 124.922V159.314L1336.17 142.209Z" fill="url(#paint40_linear_182_2081)"/>
<path d="M1280.82 142.209V107.817L1308.49 124.922V159.314L1280.82 142.209Z" fill="url(#paint41_linear_182_2081)"/>
<path d="M1280.82 142.209V107.817L1308.49 124.922V159.314L1280.82 142.209Z" fill="url(#paint42_linear_182_2081)"/>
<path d="M1308.38 90.6597L1336.17 107.815L1308.49 124.926L1280.82 107.816L1308.38 90.6597Z" fill="url(#paint43_linear_182_2081)"/>
<path d="M1308.38 90.6597L1336.17 107.815L1308.49 124.926L1280.82 107.816L1308.38 90.6597Z" fill="url(#paint44_radial_182_2081)"/>
<path d="M1537.35 855.549V821.157L1509.68 838.262V872.654L1537.35 855.549Z" fill="url(#paint45_linear_182_2081)"/>
<path d="M1482 855.549V821.157L1509.68 838.262V872.654L1482 855.549Z" fill="url(#paint46_linear_182_2081)"/>
<path d="M1482 855.549V821.157L1509.68 838.262V872.654L1482 855.549Z" fill="url(#paint47_linear_182_2081)"/>
<path d="M1509.57 804L1537.35 821.155L1509.67 838.267L1482 821.156L1509.57 804Z" fill="url(#paint48_linear_182_2081)"/>
<path d="M1509.57 804L1537.35 821.155L1509.67 838.267L1482 821.156L1509.57 804Z" fill="url(#paint49_radial_182_2081)"/>
<path d="M155.35 153.549V119.157L127.677 136.262V170.654L155.35 153.549Z" fill="url(#paint50_linear_182_2081)"/>
<path d="M100.005 153.549V119.157L127.677 136.262V170.654L100.005 153.549Z" fill="url(#paint51_linear_182_2081)"/>
<path d="M100.005 153.549V119.157L127.677 136.262V170.654L100.005 153.549Z" fill="url(#paint52_linear_182_2081)"/>
<path d="M127.569 102L155.35 119.155L127.674 136.267L100.001 119.156L127.569 102Z" fill="url(#paint53_linear_182_2081)"/>
<path d="M127.569 102L155.35 119.155L127.674 136.267L100.001 119.156L127.569 102Z" fill="url(#paint54_radial_182_2081)"/>
<path d="M403.765 497.104V454.694L369.641 475.787V518.197L403.765 497.104Z" fill="url(#paint55_linear_182_2081)"/>
<path d="M335.517 497.104V454.694L369.641 475.787V518.197L335.517 497.104Z" fill="url(#paint56_linear_182_2081)"/>
<path d="M335.517 497.104V454.694L369.641 475.787V518.197L335.517 497.104Z" fill="url(#paint57_linear_182_2081)"/>
<path d="M369.508 433.538L403.765 454.692L369.638 475.793L335.513 454.693L369.508 433.538Z" fill="url(#paint58_linear_182_2081)"/>
<path d="M369.508 433.538L403.765 454.692L369.638 475.793L335.513 454.693L369.508 433.538Z" fill="url(#paint59_radial_182_2081)"/>
<rect width="137.483" height="110.813" transform="matrix(0.866025 0.5 -0.866025 0.5 405.975 1093.95)" fill="url(#paint60_radial_182_2081)"/>
<rect width="137.485" height="766.616" transform="matrix(0.866025 0.5 -2.20305e-08 1 310.008 1149.36)" fill="url(#paint61_radial_182_2081)"/>
<rect width="110.868" height="589.873" transform="matrix(0.866025 -0.5 2.20305e-08 1 429.072 1218.1)" fill="url(#paint62_radial_182_2081)"/>
<rect width="203.965" height="164.398" transform="matrix(0.866025 0.5 -0.866025 0.5 603.99 1153.46)" fill="url(#paint63_radial_182_2081)"/>
<defs>
<radialGradient id="paint0_radial_182_2081" cx="0" cy="0" r="1" gradientUnits="userSpaceOnUse" gradientTransform="translate(8.76003 21.5064) rotate(21.6595) scale(136.421 93.1524)">
<stop stop-color="#F5F5F5"/>
<stop offset="1" stop-color="#D5D5D5"/>
</radialGradient>
<radialGradient id="paint1_radial_182_2081" cx="0" cy="0" r="1" gradientUnits="userSpaceOnUse" gradientTransform="translate(86.8194 -127.014) rotate(106.347) scale(411.285 346.648)">
<stop offset="0.282049" stop-color="#B0B0B0"/>
<stop offset="1" stop-color="#EAEAEA"/>
</radialGradient>
<radialGradient id="paint2_radial_182_2081" cx="0" cy="0" r="1" gradientUnits="userSpaceOnUse" gradientTransform="translate(60.1683 -293.677) rotate(90) scale(749.416 865.351)">
<stop stop-color="#989898"/>
<stop offset="1" stop-color="#BEBEBE"/>
</radialGradient>
<radialGradient id="paint3_radial_182_2081" cx="0" cy="0" r="1" gradientUnits="userSpaceOnUse" gradientTransform="translate(4.35679 10.6962) rotate(21.6595) scale(67.8489 46.3292)">
<stop stop-color="#F5F5F5"/>
<stop offset="1" stop-color="#D5D5D5"/>
</radialGradient>
<radialGradient id="paint4_radial_182_2081" cx="0" cy="0" r="1" gradientUnits="userSpaceOnUse" gradientTransform="translate(41.7209 -6.61933) rotate(118.057) scale(224.365 151.54)">
<stop stop-color="#B0B0B0"/>
<stop offset="1" stop-color="#EAEAEA"/>
</radialGradient>
<radialGradient id="paint5_radial_182_2081" cx="0" cy="0" r="1" gradientUnits="userSpaceOnUse" gradientTransform="translate(29.9246 -146.06) rotate(90) scale(372.721 430.382)">
<stop stop-color="#989898"/>
<stop offset="1" stop-color="#BEBEBE"/>
</radialGradient>
<radialGradient id="paint6_radial_182_2081" cx="0" cy="0" r="1" gradientUnits="userSpaceOnUse" gradientTransform="translate(12.9961 31.9062) rotate(21.6595) scale(202.389 138.197)">
<stop stop-color="#F5F5F5"/>
<stop offset="1" stop-color="#D5D5D5"/>
</radialGradient>
<radialGradient id="paint7_radial_182_2081" cx="0" cy="0" r="1" gradientUnits="userSpaceOnUse" gradientTransform="translate(128.802 -188.433) rotate(106.347) scale(610.167 514.274)">
<stop offset="0.282049" stop-color="#B0B0B0"/>
<stop offset="1" stop-color="#EAEAEA"/>
</radialGradient>
<radialGradient id="paint8_radial_182_2081" cx="0" cy="0" r="1" gradientUnits="userSpaceOnUse" gradientTransform="translate(89.2635 -435.688) rotate(90) scale(1111.81 1283.8)">
<stop stop-color="#989898"/>
<stop offset="1" stop-color="#BEBEBE"/>
</radialGradient>
<radialGradient id="paint9_radial_182_2081" cx="0" cy="0" r="1" gradientUnits="userSpaceOnUse" gradientTransform="translate(7.92397 19.4539) rotate(21.6595) scale(123.401 84.2619)">
<stop stop-color="#F5F5F5"/>
<stop offset="1" stop-color="#D5D5D5"/>
</radialGradient>
<radialGradient id="paint10_radial_182_2081" cx="0" cy="0" r="1" gradientUnits="userSpaceOnUse" gradientTransform="translate(78.5334 -114.892) rotate(106.347) scale(372.032 313.564)">
<stop offset="0.282049" stop-color="#B0B0B0"/>
<stop offset="1" stop-color="#EAEAEA"/>
</radialGradient>
<radialGradient id="paint11_radial_182_2081" cx="0" cy="0" r="1" gradientUnits="userSpaceOnUse" gradientTransform="translate(54.4259 -265.648) rotate(90) scale(677.892 782.762)">
<stop stop-color="#989898"/>
<stop offset="1" stop-color="#BEBEBE"/>
</radialGradient>
<radialGradient id="paint12_radial_182_2081" cx="0" cy="0" r="1" gradientUnits="userSpaceOnUse" gradientTransform="translate(67.366 181.91) rotate(23.5958) scale(1063.98 776.897)">
<stop stop-color="#F5F5F5"/>
<stop offset="1" stop-color="#D5D5D5"/>
</radialGradient>
<radialGradient id="paint13_radial_182_2081" cx="0" cy="0" r="1" gradientUnits="userSpaceOnUse" gradientTransform="translate(881.148 -497.097) rotate(115.28) scale(1699.15 835.49)">
<stop offset="0.281556" stop-color="#B6B5B5"/>
<stop offset="1" stop-color="#BEBEBE"/>
</radialGradient>
<radialGradient id="paint14_radial_182_2081" cx="0" cy="0" r="1" gradientUnits="userSpaceOnUse" gradientTransform="translate(380.059 -108.371) rotate(84.6985) scale(894.456 4007.13)">
<stop stop-color="#919090"/>
<stop offset="1" stop-color="#BEBEBE"/>
</radialGradient>
<linearGradient id="paint15_linear_182_2081" x1="1237.99" y1="285.047" x2="1249.44" y2="294.355" gradientUnits="userSpaceOnUse">
<stop stop-color="#FFC188"/>
<stop offset="1" stop-color="#E26A44"/>
</linearGradient>
<linearGradient id="paint16_linear_182_2081" x1="1222.96" y1="291.092" x2="1242.34" y2="288.783" gradientUnits="userSpaceOnUse">
<stop stop-color="#DBD7D7"/>
<stop offset="1" stop-color="white"/>
</linearGradient>
<linearGradient id="paint17_linear_182_2081" x1="1247.61" y1="284.236" x2="1222.68" y2="291.341" gradientUnits="userSpaceOnUse">
<stop stop-color="#FFC188"/>
<stop offset="1" stop-color="#E26A44"/>
</linearGradient>
<linearGradient id="paint18_linear_182_2081" x1="1241.34" y1="271.587" x2="1232.92" y2="290.374" gradientUnits="userSpaceOnUse">
<stop stop-color="#DBD7D7"/>
<stop offset="1" stop-color="white"/>
</linearGradient>
<radialGradient id="paint19_radial_182_2081" cx="0" cy="0" r="1" gradientUnits="userSpaceOnUse" gradientTransform="translate(1237.41 269.661) rotate(90) scale(10.9694 10.2558)">
<stop stop-color="#E26A44"/>
<stop offset="1" stop-color="#FFC188"/>
</radialGradient>
<linearGradient id="paint20_linear_182_2081" x1="1183.17" y1="111.586" x2="1194.62" y2="120.893" gradientUnits="userSpaceOnUse">
<stop stop-color="#FFC188"/>
<stop offset="1" stop-color="#E26A44"/>
</linearGradient>
<linearGradient id="paint21_linear_182_2081" x1="1168.14" y1="117.63" x2="1187.52" y2="115.321" gradientUnits="userSpaceOnUse">
<stop stop-color="#DBD7D7"/>
<stop offset="1" stop-color="white"/>
</linearGradient>
<linearGradient id="paint22_linear_182_2081" x1="1192.8" y1="110.774" x2="1167.87" y2="117.88" gradientUnits="userSpaceOnUse">
<stop stop-color="#FFC188"/>
<stop offset="1" stop-color="#E26A44"/>
</linearGradient>
<linearGradient id="paint23_linear_182_2081" x1="1186.53" y1="98.1253" x2="1178.11" y2="116.912" gradientUnits="userSpaceOnUse">
<stop stop-color="#DBD7D7"/>
<stop offset="1" stop-color="white"/>
</linearGradient>
<radialGradient id="paint24_radial_182_2081" cx="0" cy="0" r="1" gradientUnits="userSpaceOnUse" gradientTransform="translate(1182.6 96.1997) rotate(90) scale(10.9694 10.2558)">
<stop stop-color="#E26A44"/>
<stop offset="1" stop-color="#FFC188"/>
</radialGradient>
<linearGradient id="paint25_linear_182_2081" x1="434.49" y1="379.09" x2="448.609" y2="390.567" gradientUnits="userSpaceOnUse">
<stop stop-color="#FFC188"/>
<stop offset="1" stop-color="#E26A44"/>
</linearGradient>
<linearGradient id="paint26_linear_182_2081" x1="415.952" y1="386.544" x2="439.855" y2="383.696" gradientUnits="userSpaceOnUse">
<stop stop-color="#DBD7D7"/>
<stop offset="1" stop-color="white"/>
</linearGradient>
<linearGradient id="paint27_linear_182_2081" x1="446.355" y1="378.089" x2="415.617" y2="386.851" gradientUnits="userSpaceOnUse">
<stop stop-color="#FFC188"/>
<stop offset="1" stop-color="#E26A44"/>
</linearGradient>
<linearGradient id="paint28_linear_182_2081" x1="438.626" y1="362.492" x2="428.241" y2="385.659" gradientUnits="userSpaceOnUse">
<stop stop-color="#DBD7D7"/>
<stop offset="1" stop-color="white"/>
</linearGradient>
<radialGradient id="paint29_radial_182_2081" cx="0" cy="0" r="1" gradientUnits="userSpaceOnUse" gradientTransform="translate(433.779 360.118) rotate(90) scale(13.5265 12.6466)">
<stop stop-color="#E26A44"/>
<stop offset="1" stop-color="#FFC188"/>
</radialGradient>
<linearGradient id="paint30_linear_182_2081" x1="261.627" y1="473.05" x2="275.747" y2="484.527" gradientUnits="userSpaceOnUse">
<stop stop-color="#FFC188"/>
<stop offset="1" stop-color="#E26A44"/>
</linearGradient>
<linearGradient id="paint31_linear_182_2081" x1="243.09" y1="480.504" x2="266.993" y2="477.656" gradientUnits="userSpaceOnUse">
<stop stop-color="#DBD7D7"/>
<stop offset="1" stop-color="white"/>
</linearGradient>
<linearGradient id="paint32_linear_182_2081" x1="273.493" y1="472.049" x2="242.755" y2="480.812" gradientUnits="userSpaceOnUse">
<stop stop-color="#FFC188"/>
<stop offset="1" stop-color="#E26A44"/>
</linearGradient>
<linearGradient id="paint33_linear_182_2081" x1="265.764" y1="456.452" x2="255.379" y2="479.619" gradientUnits="userSpaceOnUse">
<stop stop-color="#DBD7D7"/>
<stop offset="1" stop-color="white"/>
</linearGradient>
<radialGradient id="paint34_radial_182_2081" cx="0" cy="0" r="1" gradientUnits="userSpaceOnUse" gradientTransform="translate(260.916 454.078) rotate(90) scale(13.5265 12.6466)">
<stop stop-color="#E26A44"/>
<stop offset="1" stop-color="#FFC188"/>
</radialGradient>
<linearGradient id="paint35_linear_182_2081" x1="1386.1" y1="15.343" x2="1403.81" y2="29.7353" gradientUnits="userSpaceOnUse">
<stop stop-color="#FFC188"/>
<stop offset="1" stop-color="#E26A44"/>
</linearGradient>
<linearGradient id="paint36_linear_182_2081" x1="1362.85" y1="24.69" x2="1392.83" y2="21.1192" gradientUnits="userSpaceOnUse">
<stop stop-color="#DBD7D7"/>
<stop offset="1" stop-color="white"/>
</linearGradient>
<linearGradient id="paint37_linear_182_2081" x1="1400.98" y1="14.0881" x2="1362.44" y2="25.0757" gradientUnits="userSpaceOnUse">
<stop stop-color="#FFC188"/>
<stop offset="1" stop-color="#E26A44"/>
</linearGradient>
<linearGradient id="paint38_linear_182_2081" x1="1391.29" y1="-5.47211" x2="1378.27" y2="23.5786" gradientUnits="userSpaceOnUse">
<stop stop-color="#DBD7D7"/>
<stop offset="1" stop-color="white"/>
</linearGradient>
<radialGradient id="paint39_radial_182_2081" cx="0" cy="0" r="1" gradientUnits="userSpaceOnUse" gradientTransform="translate(1385.21 -8.44965) rotate(90) scale(16.9621 15.8587)">
<stop stop-color="#E26A44"/>
<stop offset="1" stop-color="#FFC188"/>
</radialGradient>
<linearGradient id="paint40_linear_182_2081" x1="1310.15" y1="119.27" x2="1343.17" y2="146.109" gradientUnits="userSpaceOnUse">
<stop stop-color="#FFC188"/>
<stop offset="1" stop-color="#E26A44"/>
</linearGradient>
<linearGradient id="paint41_linear_182_2081" x1="1266.8" y1="136.7" x2="1322.7" y2="130.041" gradientUnits="userSpaceOnUse">
<stop stop-color="#DBD7D7"/>
<stop offset="1" stop-color="white"/>
</linearGradient>
<linearGradient id="paint42_linear_182_2081" x1="1337.9" y1="116.93" x2="1266.02" y2="137.42" gradientUnits="userSpaceOnUse">
<stop stop-color="#FFC188"/>
<stop offset="1" stop-color="#E26A44"/>
</linearGradient>
<linearGradient id="paint43_linear_182_2081" x1="1319.83" y1="80.4553" x2="1295.54" y2="134.629" gradientUnits="userSpaceOnUse">
<stop stop-color="#DBD7D7"/>
<stop offset="1" stop-color="white"/>
</linearGradient>
<radialGradient id="paint44_radial_182_2081" cx="0" cy="0" r="1" gradientUnits="userSpaceOnUse" gradientTransform="translate(1308.49 74.9027) rotate(90) scale(31.631 29.5734)">
<stop stop-color="#E26A44"/>
<stop offset="1" stop-color="#FFC188"/>
</radialGradient>
<linearGradient id="paint45_linear_182_2081" x1="1511.34" y1="832.61" x2="1544.36" y2="859.449" gradientUnits="userSpaceOnUse">
<stop stop-color="#FFC188"/>
<stop offset="1" stop-color="#E26A44"/>
</linearGradient>
<linearGradient id="paint46_linear_182_2081" x1="1467.99" y1="850.041" x2="1523.88" y2="843.382" gradientUnits="userSpaceOnUse">
<stop stop-color="#DBD7D7"/>
<stop offset="1" stop-color="white"/>
</linearGradient>
<linearGradient id="paint47_linear_182_2081" x1="1539.08" y1="830.27" x2="1467.21" y2="850.76" gradientUnits="userSpaceOnUse">
<stop stop-color="#FFC188"/>
<stop offset="1" stop-color="#E26A44"/>
</linearGradient>
<linearGradient id="paint48_linear_182_2081" x1="1521.01" y1="793.796" x2="1496.73" y2="847.97" gradientUnits="userSpaceOnUse">
<stop stop-color="#DBD7D7"/>
<stop offset="1" stop-color="white"/>
</linearGradient>
<radialGradient id="paint49_radial_182_2081" cx="0" cy="0" r="1" gradientUnits="userSpaceOnUse" gradientTransform="translate(1509.68 788.243) rotate(90) scale(31.631 29.5734)">
<stop stop-color="#E26A44"/>
<stop offset="1" stop-color="#FFC188"/>
</radialGradient>
<linearGradient id="paint50_linear_182_2081" x1="129.338" y1="130.61" x2="162.355" y2="157.449" gradientUnits="userSpaceOnUse">
<stop stop-color="#FFC188"/>
<stop offset="1" stop-color="#E26A44"/>
</linearGradient>
<linearGradient id="paint51_linear_182_2081" x1="85.989" y1="148.041" x2="141.884" y2="141.382" gradientUnits="userSpaceOnUse">
<stop stop-color="#DBD7D7"/>
<stop offset="1" stop-color="white"/>
</linearGradient>
<linearGradient id="paint52_linear_182_2081" x1="157.085" y1="128.27" x2="85.2061" y2="148.76" gradientUnits="userSpaceOnUse">
<stop stop-color="#FFC188"/>
<stop offset="1" stop-color="#E26A44"/>
</linearGradient>
<linearGradient id="paint53_linear_182_2081" x1="139.01" y1="91.7956" x2="114.726" y2="145.97" gradientUnits="userSpaceOnUse">
<stop stop-color="#DBD7D7"/>
<stop offset="1" stop-color="white"/>
</linearGradient>
<radialGradient id="paint54_radial_182_2081" cx="0" cy="0" r="1" gradientUnits="userSpaceOnUse" gradientTransform="translate(127.675 86.2431) rotate(90) scale(31.631 29.5734)">
<stop stop-color="#E26A44"/>
<stop offset="1" stop-color="#FFC188"/>
</radialGradient>
<linearGradient id="paint55_linear_182_2081" x1="371.689" y1="468.818" x2="412.403" y2="501.913" gradientUnits="userSpaceOnUse">
<stop stop-color="#FFC188"/>
<stop offset="1" stop-color="#E26A44"/>
</linearGradient>
<linearGradient id="paint56_linear_182_2081" x1="318.235" y1="490.311" x2="387.16" y2="482.1" gradientUnits="userSpaceOnUse">
<stop stop-color="#DBD7D7"/>
<stop offset="1" stop-color="white"/>
</linearGradient>
<linearGradient id="paint57_linear_182_2081" x1="405.904" y1="465.932" x2="317.269" y2="491.198" gradientUnits="userSpaceOnUse">
<stop stop-color="#FFC188"/>
<stop offset="1" stop-color="#E26A44"/>
</linearGradient>
<linearGradient id="paint58_linear_182_2081" x1="383.616" y1="420.955" x2="353.671" y2="487.757" gradientUnits="userSpaceOnUse">
<stop stop-color="#DBD7D7"/>
<stop offset="1" stop-color="white"/>
</linearGradient>
<radialGradient id="paint59_radial_182_2081" cx="0" cy="0" r="1" gradientUnits="userSpaceOnUse" gradientTransform="translate(369.639 414.108) rotate(90) scale(39.0048 36.4675)">
<stop stop-color="#E26A44"/>
<stop offset="1" stop-color="#FFC188"/>
</radialGradient>
<radialGradient id="paint60_radial_182_2081" cx="0" cy="0" r="1" gradientUnits="userSpaceOnUse" gradientTransform="translate(8.76003 21.5064) rotate(21.6595) scale(136.421 93.1524)">
<stop stop-color="#F5F5F5"/>
<stop offset="1" stop-color="#D5D5D5"/>
</radialGradient>
<radialGradient id="paint61_radial_182_2081" cx="0" cy="0" r="1" gradientUnits="userSpaceOnUse" gradientTransform="translate(86.8194 -127.014) rotate(102.41) scale(887.457 809.676)">
<stop offset="0.0210332" stop-color="#8A8A8A"/>
<stop offset="1" stop-color="#EAEAEA"/>
<stop offset="1" stop-color="#EAEAEA"/>
<stop offset="1" stop-color="#EAEAEA"/>
</radialGradient>
<radialGradient id="paint62_radial_182_2081" cx="0" cy="0" r="1" gradientUnits="userSpaceOnUse" gradientTransform="translate(60.1683 -293.677) rotate(90) scale(749.416 865.351)">
<stop stop-color="#989898"/>
<stop offset="1" stop-color="#BEBEBE"/>
</radialGradient>
<radialGradient id="paint63_radial_182_2081" cx="0" cy="0" r="1" gradientUnits="userSpaceOnUse" gradientTransform="translate(12.9961 31.9062) rotate(21.6595) scale(202.389 138.197)">
<stop stop-color="#F5F5F5"/>
<stop offset="1" stop-color="#D5D5D5"/>
</radialGradient>
</defs>
</svg>
