<svg width="66" height="66" viewBox="0 0 66 66" fill="none" xmlns="http://www.w3.org/2000/svg">
<path d="M57.01 33.0002C57.01 46.2606 46.2604 57.0102 33 57.0102" stroke="#E27D44" stroke-width="4" stroke-linecap="round" stroke-linejoin="round"/>
<path d="M8.99121 33.0005C8.99121 19.7401 19.7409 8.99048 33.0012 8.99048" stroke="#E27D44" stroke-width="4" stroke-linecap="round" stroke-linejoin="round"/>
<path d="M8.99121 33.0008C8.99159 35.8132 9.4918 38.6031 10.4685 41.2405C10.9152 42.4653 12.1746 43.1949 13.4594 42.973L16.0903 42.5091C18.2167 42.1341 19.6622 40.1398 19.3569 38.0023L18.565 32.4594C18.4117 31.3863 17.8297 30.4214 16.952 29.7853C16.0743 29.1491 14.9762 28.8963 13.9087 29.0845L9.21184 29.9127" stroke="#E27D44" stroke-width="4" stroke-linecap="round" stroke-linejoin="round"/>
<path d="M57.01 33.0005C57.01 19.7401 46.2604 8.99048 33 8.99048" stroke="#E27D44" stroke-width="4" stroke-linecap="round" stroke-linejoin="round"/>
<path d="M57.0108 33.0008C57.0104 35.8132 56.5102 38.6031 55.5335 41.2405C55.0868 42.4653 53.8274 43.1949 52.5427 42.973L49.9117 42.5091C47.7853 42.1341 46.3398 40.1398 46.6452 38.0023L47.437 32.4594C47.5903 31.3863 48.1724 30.4214 49.05 29.7853C49.9277 29.1491 51.0259 28.8963 52.0933 29.0845L56.7902 29.9127" stroke="#E27D44" stroke-width="4" stroke-linecap="round" stroke-linejoin="round"/>
<path d="M36.9823 34.3103C36.9743 34.3103 36.967 34.3152 36.9639 34.3226C36.9608 34.33 36.9625 34.3386 36.9682 34.3443C36.9739 34.35 36.9825 34.3517 36.9899 34.3487C36.9974 34.3456 37.0022 34.3383 37.0022 34.3302C37.0026 34.3249 37.0006 34.3196 36.9968 34.3158C36.993 34.312 36.9877 34.31 36.9823 34.3103" stroke="#E27D44" stroke-width="4" stroke-linecap="round" stroke-linejoin="round"/>
<path d="M29.0194 34.3181C29.0114 34.3181 29.0041 34.323 29.001 34.3304C28.9979 34.3379 28.9996 34.3465 29.0053 34.3522C29.011 34.3579 29.0196 34.3596 29.0271 34.3565C29.0345 34.3534 29.0394 34.3461 29.0393 34.338C29.0397 34.3326 29.0377 34.3274 29.0339 34.3235C29.0301 34.3197 29.0248 34.3178 29.0194 34.3181" stroke="#E27D44" stroke-width="4" stroke-linecap="round" stroke-linejoin="round"/>
</svg>
