<svg width="117" height="64" viewBox="0 0 117 64" fill="none" xmlns="http://www.w3.org/2000/svg">
<path fill-rule="evenodd" clip-rule="evenodd" d="M92.4646 11.9211C93.7079 11.9211 94.6529 12.9117 94.6529 14.15C94.6529 15.3882 93.6582 16.3293 92.4646 16.3293C91.2212 16.3293 90.2266 15.3882 90.2266 14.15C90.2266 12.9117 91.271 11.9211 92.4646 11.9211ZM92.4646 12.3174C93.3598 12.3174 94.1555 13.0108 94.255 13.8528C94.0063 13.2089 93.3598 12.7136 92.564 12.7136C91.5694 12.7136 90.7736 13.5061 90.7736 14.4967C90.7736 14.5958 90.8234 14.6453 90.8234 14.7443C90.7239 14.5462 90.6742 14.3481 90.6742 14.1005C90.6742 13.1099 91.4699 12.3174 92.4646 12.3174Z" fill="#E27D44"/>
<path fill-rule="evenodd" clip-rule="evenodd" d="M92.7614 19.9925L92.1647 23.0625L81.2264 26.4791L83.3146 21.8741C82.8174 21.6266 82.4197 21.2799 81.9722 20.9333C81.823 20.3391 81.6241 19.8935 81.6241 19.2993L76.5527 19.3488L84.2096 10.7826L87.2922 11.5253C91.6675 7.66309 96.1423 7.61357 101.512 8.40583C99.9707 13.506 98.0814 17.6158 92.7614 19.9925ZM99.3741 9.84179C93.01 8.9505 88.5352 12.6642 87.8391 13.6545L84.5576 12.9118L80.6298 17.2196H83.9113C83.9113 17.2196 82.9169 18.1604 83.4141 19.844C84.7565 20.9829 86.0989 20.4382 86.0989 20.4382L84.7565 23.3596L90.4245 21.6266L91.0709 18.4575C92.2642 18.2595 97.6339 15.8332 99.3741 9.84179Z" fill="#E27D44"/>
<path fill-rule="evenodd" clip-rule="evenodd" d="M47.7157 47.4729C53.6323 45.3437 65.217 39.6494 80.7296 24.6461C70.5371 32.6182 56.6652 40.8378 43.6387 44.7991C41.6499 45.3933 40.8046 45.7399 39.0645 46.3836C39.4125 46.3836 51.5938 59.4062 62.4327 48.1166C63.8746 48.5128 65.3662 48.7603 66.8578 48.7603C75.2604 48.7603 82.0223 42.0262 82.0223 33.658C82.0223 31.4298 81.5251 29.3501 80.6799 27.4685C79.6855 28.4093 78.7408 29.3501 77.9453 30.1424C78.2933 31.2812 78.4922 32.4201 78.4922 33.658C78.4922 40.0455 73.2716 45.2447 66.8578 45.2447C64.8193 45.2447 62.9299 44.7496 61.2395 43.8088C59.549 46.7797 56.2675 48.8099 52.5882 48.8099C50.848 48.7603 49.2073 48.3147 47.7157 47.4729Z" fill="#E27D44"/>
<path fill-rule="evenodd" clip-rule="evenodd" d="M78.2436 22.6171C78.2436 22.6171 68.051 28.9056 51.7926 34.5999C39.1638 39.0563 28.126 39.4029 15 40.6904C33.5952 50.7421 66.5097 32.8668 78.2436 22.6171Z" fill="#E27D44"/>
<path fill-rule="evenodd" clip-rule="evenodd" d="M35.7329 22.9136C38.1692 15.7833 44.9808 10.8812 52.7371 10.8812C58.7034 10.8812 64.1726 13.8027 67.5038 18.6057C69.6418 18.7047 71.6306 19.1999 73.4702 20.0912L68.1999 22.1708C67.7524 22.1213 67.305 22.1213 66.8575 22.1213C66.41 22.1213 65.9625 22.1708 65.515 22.1708C63.1285 17.5659 58.256 14.4464 52.6873 14.4464C45.7266 14.4464 39.9094 19.3484 38.5669 25.835C35.0865 26.2807 32.2028 28.4594 30.8106 31.4798L32.5508 31.3808C52.8862 31.2322 77.3981 20.2397 77.3981 20.2397C60.0956 30.1429 45.7763 35.1935 26.2861 35.6887C26.3359 29.7468 30.214 24.6466 35.7329 22.9136Z" fill="#E27D44"/>
</svg>
