<svg width="64" height="64" viewBox="0 0 64 64" fill="none" xmlns="http://www.w3.org/2000/svg">
<path d="M45.3333 5.33325C37.9707 5.33325 32 11.3039 32 18.6666C32 26.0293 37.9707 31.9999 45.3333 31.9999C52.6987 31.9999 58.6667 26.0293 58.6667 18.6666C58.6667 11.3039 52.6987 5.33325 45.3333 5.33325" stroke="#E27D44" stroke-width="4" stroke-linecap="round" stroke-linejoin="round"/>
<path d="M33.125 13.3333H15.6024C12.8157 13.3333 10.501 15.4773 10.285 18.2533L8.02637 47.3519" stroke="#E27D44" stroke-width="4" stroke-linecap="round" stroke-linejoin="round"/>
<path d="M55.9729 47.3603L54.5063 28.3203" stroke="#E27D44" stroke-width="4" stroke-linecap="round" stroke-linejoin="round"/>
<path fill-rule="evenodd" clip-rule="evenodd" d="M48 40H16C11.5813 40 8 43.5813 8 48V48C8 52.4187 11.5813 56 16 56H48C52.4187 56 56 52.4187 56 48V48C56 43.5813 52.4187 40 48 40Z" stroke="#E27D44" stroke-width="4" stroke-linecap="round" stroke-linejoin="round"/>
<path d="M47.9997 48H29.333" stroke="#E27D44" stroke-width="4" stroke-linecap="round" stroke-linejoin="round"/>
<path d="M16.093 47.9066C16.1464 47.96 16.1464 48.0426 16.093 48.096C16.0397 48.1493 15.957 48.1493 15.9037 48.096C15.8504 48.0426 15.8504 47.96 15.9037 47.9066C15.957 47.8533 16.0424 47.8533 16.093 47.9066" stroke="#E27D44" stroke-width="4" stroke-linecap="round" stroke-linejoin="round"/>
<path d="M45.3333 24.2135V25.3335" stroke="#E27D44" stroke-width="4" stroke-linecap="round" stroke-linejoin="round"/>
<path d="M45.3333 13.1199V11.9999" stroke="#E27D44" stroke-width="4" stroke-linecap="round" stroke-linejoin="round"/>
<path d="M39.5731 22.0001L40.5331 21.4401" stroke="#E27D44" stroke-width="4" stroke-linecap="round" stroke-linejoin="round"/>
<path d="M51.0936 15.3334L50.1336 15.8934" stroke="#E27D44" stroke-width="4" stroke-linecap="round" stroke-linejoin="round"/>
<path d="M40.5331 15.8934L39.5731 15.3334" stroke="#E27D44" stroke-width="4" stroke-linecap="round" stroke-linejoin="round"/>
<path d="M51.0936 22.0001L50.1336 21.4401" stroke="#E27D44" stroke-width="4" stroke-linecap="round" stroke-linejoin="round"/>
</svg>
