<svg width="64" height="64" viewBox="0 0 64 64" fill="none" xmlns="http://www.w3.org/2000/svg">
<path d="M29.333 42.4H10.3997C7.59967 42.4 5.33301 40.1333 5.33301 37.3333V13.0667C5.33301 10.2667 7.59967 8 10.3997 8H50.933C53.733 8 55.9997 10.2667 55.9997 13.0667V26.6667" stroke="#E27D44" stroke-width="4" stroke-linecap="round" stroke-linejoin="round"/>
<path d="M35.1434 21.2557C37.6154 23.7277 37.6154 27.7383 35.1434 30.213C32.6714 32.685 28.6607 32.685 26.186 30.213C23.714 27.741 23.714 23.7303 26.186 21.2557C28.6607 18.781 32.6714 18.781 35.1434 21.2557" stroke="#E27D44" stroke-width="4" stroke-linecap="round" stroke-linejoin="round"/>
<path fill-rule="evenodd" clip-rule="evenodd" d="M58.6663 45.3333C58.6663 51.2373 53.9037 56 47.9997 56C42.0957 56 37.333 51.2373 37.333 45.3333C37.333 39.4293 42.0957 34.6666 47.9997 34.6666C53.9037 34.6666 58.6663 39.4293 58.6663 45.3333Z" stroke="#E27D44" stroke-width="4" stroke-linecap="round" stroke-linejoin="round"/>
<path d="M15.9997 34.6667H13.333" stroke="#E27D44" stroke-width="4" stroke-linecap="round" stroke-linejoin="round"/>
<path d="M47.9997 16.0001H45.333" stroke="#E27D44" stroke-width="4" stroke-linecap="round" stroke-linejoin="round"/>
<path d="M40.4609 52.8716L55.5409 37.7916" stroke="#E27D44" stroke-width="4" stroke-linecap="round" stroke-linejoin="round"/>
</svg>
