<svg width="117" height="64" viewBox="0 0 117 64" fill="none" xmlns="http://www.w3.org/2000/svg">
<path fill-rule="evenodd" clip-rule="evenodd" d="M11.1347 34.4732C10.5987 34.3285 10.027 34.2199 9.5625 34.039C10.563 29.9144 11.9566 25.9705 13.6002 22.3886C15.2439 18.8428 17.1734 15.5141 20.2106 13.3794C21.9258 16.2739 21.9973 21.086 21.5328 25.3193C21.1039 29.3716 20.2106 33.3515 19.3174 36.7526C17.6022 36.2822 15.8514 35.8119 14.1005 35.3416C14.4221 27.0198 17.1377 21.1222 19.9248 15.297C19.9248 15.2608 19.9963 15.2247 19.9963 15.1885C15.5655 20.1091 12.7784 26.7304 11.1347 34.4732Z" fill="#E27D44"/>
<path fill-rule="evenodd" clip-rule="evenodd" d="M9.63401 31.3981L9.02656 33.8585L6.9541 33.3519L9.63401 31.3981Z" fill="#E27D44"/>
<path fill-rule="evenodd" clip-rule="evenodd" d="M20.6045 34.3641L22.0338 37.4034L19.9971 36.8969L20.6045 34.3641Z" fill="#E27D44"/>
<path fill-rule="evenodd" clip-rule="evenodd" d="M11.6353 46.3038C11.6353 46.3038 12.1712 41.3469 12.4214 38.9228C11.8497 39.7549 10.6348 42.0705 10.6348 42.0705C10.6348 42.0705 10.7777 40.587 10.9206 39.7911C11.0993 38.5971 10.9206 36.8965 12.5286 37.0413C13.136 37.1137 13.6363 37.367 14.3509 37.5479C15.2799 37.8011 16.3162 37.9096 16.1375 39.1037C15.9231 40.4061 14.5653 43.1921 14.5653 43.1921C14.5653 43.1921 14.5653 40.6232 14.6368 39.4293C13.5648 41.6725 11.6353 46.3038 11.6353 46.3038Z" fill="#E27D44"/>
<path fill-rule="evenodd" clip-rule="evenodd" d="M37.1858 13.4136C39.8723 13.5043 42.6485 13.5043 45.335 13.4136C46.8574 20.5772 49.4993 26.6073 50.9768 33.8162C53.35 26.834 56.3948 20.4865 58.7232 13.4136C61.4993 13.5043 64.3202 13.5043 67.0963 13.4136C66.7381 22.5268 66.4694 31.8667 66.6037 41.2066C64.768 41.1612 62.8873 41.1159 61.0515 41.2066C61.2306 34.1789 61.5888 26.7887 61.544 19.3077C58.7679 26.562 55.9918 33.8162 53.35 41.2066C51.5142 41.1159 49.5888 41.1159 47.7529 41.2066C46.6783 37.5341 45.7828 33.9069 44.7529 30.2798C43.7232 26.698 42.4694 23.2069 41.6186 19.489C40.8127 26.4259 40.544 33.8616 40.141 41.2066C38.35 41.1612 36.6485 41.1159 34.8574 41.2066C35.7529 32.3654 36.5141 22.8895 37.141 13.5949C37.0962 13.5043 37.0962 13.4136 37.1858 13.4136Z" fill="#E27D44"/>
<path fill-rule="evenodd" clip-rule="evenodd" d="M89.9772 13.4136C96.6489 13.5496 103.32 13.4136 110.037 13.4136C109.992 14.9551 109.903 16.406 109.813 17.9022C105.425 17.5848 100.634 17.6755 96.1116 17.7661C95.8877 19.9878 95.8877 22.5268 95.7086 24.8391C99.6937 24.9751 103.903 24.8844 107.843 24.7937C107.708 26.2899 107.619 27.7408 107.575 29.2824C103.589 29.1916 99.3355 29.1463 95.4399 29.3277C95.3952 31.8667 95.216 34.2697 95.1713 36.8086C99.7385 36.9446 104.619 36.854 109.052 36.6273C109.097 38.0328 108.828 39.6197 108.828 41.2066C102.156 41.1159 95.3504 41.1612 88.6787 41.2066C89.3504 32.2747 89.843 23.1162 89.9325 13.5949C89.843 13.5043 89.8877 13.4589 89.9772 13.4136Z" fill="#E27D44"/>
<path fill-rule="evenodd" clip-rule="evenodd" d="M73.7687 47.4623C76.7687 47.4623 80.1269 47.5076 82.7687 47.3263C82.6792 48.4144 82.6344 49.5026 82.5001 50.5907C77.6642 50.5 67.8135 50.5907 67.8135 50.5907V47.5076C67.8135 47.5076 68.7986 46.5102 69.2463 46.1021C71.6642 43.7445 73.8582 41.5682 76.0523 38.9385C76.8135 38.0317 78.0673 36.7622 78.2463 35.5834C78.4254 34.3593 77.8881 33.5885 77.1717 33.1804C75.0224 31.9109 71.1269 32.9991 68.8881 33.4071C69.0672 32.2736 69.291 31.1401 69.4702 30.0067C73.724 29.2359 80.1717 28.6918 82.5896 31.5482C84.3359 33.5885 83.1717 36.4901 81.9628 38.3491C79.7687 41.6588 76.4105 44.7873 73.7687 47.4623Z" fill="#E27D44"/>
</svg>
