<svg width="30" height="58" viewBox="0 0 30 58" fill="none" xmlns="http://www.w3.org/2000/svg">
<path fill-rule="evenodd" clip-rule="evenodd" d="M9.26346 36.987C8.35053 36.7407 7.37673 36.5558 6.58551 36.2479C8.28967 29.2275 10.6633 22.5149 13.463 16.4182C16.2626 10.3831 19.5492 4.71749 24.7224 1.08411C27.644 6.01073 27.7656 14.2013 26.9744 21.4065C26.244 28.3038 24.7224 35.0778 23.201 40.8667C20.2795 40.066 17.2973 39.2655 14.315 38.4649C14.8628 24.3008 19.4883 14.2628 24.2356 4.348C24.2356 4.28642 24.3574 4.22484 24.3574 4.16325C16.8104 12.5385 12.0631 23.8082 9.26346 36.987Z" fill="#2962FF"/>
<path fill-rule="evenodd" clip-rule="evenodd" d="M6.70757 31.7523L5.67289 35.9401L2.14288 35.0778L6.70757 31.7523Z" fill="#2962FF"/>
<path fill-rule="evenodd" clip-rule="evenodd" d="M25.3918 36.8021L27.8263 41.9751L24.3572 41.113L25.3918 36.8021Z" fill="#2962FF"/>
<path fill-rule="evenodd" clip-rule="evenodd" d="M10.1155 57.1247C10.1155 57.1247 11.0285 48.6878 11.4545 44.5618C10.4807 45.9781 8.41138 49.9195 8.41138 49.9195C8.41138 49.9195 8.65483 47.3945 8.89828 46.0397C9.2026 44.0075 8.89828 41.113 11.6371 41.3593C12.6718 41.4826 13.5238 41.9137 14.7411 42.2216C16.3235 42.6526 18.0885 42.8373 17.7842 44.8697C17.419 47.0866 15.1062 51.8284 15.1062 51.8284C15.1062 51.8284 15.1062 47.4561 15.228 45.4239C13.4021 49.242 10.1155 57.1247 10.1155 57.1247Z" fill="#2962FF"/>
</svg>
