<svg width="53" height="56" viewBox="0 0 53 56" fill="none" xmlns="http://www.w3.org/2000/svg">
<path fill-rule="evenodd" clip-rule="evenodd" d="M13.3293 7.65843L16.7975 3.32329C17.3043 2.69103 18.07 2.32288 18.881 2.32288H29.1226C29.9336 2.32288 30.6992 2.69103 31.2061 3.32329L34.6716 7.65843V7.65843V10.3262C34.6716 11.7988 33.4764 12.994 32.0038 12.994H15.9971C14.5245 12.994 13.3293 11.7988 13.3293 10.3262V7.65843V7.65843Z" stroke="#2962FF" stroke-width="4" stroke-linecap="round" stroke-linejoin="round"/>
<path d="M45.343 29.001V12.9944C45.343 10.0465 42.9553 7.65881 40.0074 7.65881H34.6719" stroke="#2962FF" stroke-width="4" stroke-linecap="round" stroke-linejoin="round"/>
<path d="M13.3293 7.65881H7.99376C5.04586 7.65881 2.6582 10.0465 2.6582 12.9944V47.6755C2.6582 50.6234 5.04586 53.011 7.99376 53.011H24.0004" stroke="#2962FF" stroke-width="4" stroke-linecap="round" stroke-linejoin="round"/>
<path fill-rule="evenodd" clip-rule="evenodd" d="M31.3822 46.8507C30.6512 45.7409 30.6512 44.2789 31.3822 43.1691C33.6445 39.7464 37.198 37.0039 40.7541 37.0039C44.3103 37.0039 47.8611 39.7464 50.126 43.1665C50.8597 44.2763 50.8597 45.7409 50.126 46.848C47.8584 50.2681 44.3076 53.0106 40.7541 53.0106C37.198 53.0132 33.6445 50.2708 31.3822 46.8507Z" stroke="#2962FF" stroke-width="4" stroke-linecap="round" stroke-linejoin="round"/>
<path d="M41.018 44.7429C41.1674 44.8923 41.1674 45.1297 41.018 45.2791C40.8686 45.4285 40.6312 45.4285 40.4818 45.2791C40.3324 45.1297 40.3324 44.8923 40.4818 44.7429C40.6339 44.5935 40.874 44.5935 41.018 44.7429" stroke="#2962FF" stroke-width="4" stroke-linecap="round" stroke-linejoin="round"/>
<path d="M13.3293 26.3325H34.6716" stroke="#2962FF" stroke-width="4" stroke-linecap="round" stroke-linejoin="round"/>
<path d="M13.3293 39.6724H18.6649" stroke="#2962FF" stroke-width="4" stroke-linecap="round" stroke-linejoin="round"/>
</svg>
