<svg width="62" height="58" viewBox="0 0 62 58" fill="none" xmlns="http://www.w3.org/2000/svg">
<path fill-rule="evenodd" clip-rule="evenodd" d="M2.53173 36.2853C4.3824 34.6506 6.58506 33.7866 8.89706 33.7866C11.1824 33.7866 13.3637 34.632 15.2037 36.232C16.0757 36.9893 16.5771 38.0853 16.5824 39.2373C16.5877 40.392 16.0944 41.4906 15.2304 42.2533C13.3797 43.888 11.1797 44.752 8.86773 44.752C6.5824 44.752 4.40106 43.9066 2.5584 42.3066C1.6864 41.5493 1.18506 40.4533 1.17973 39.3013C1.1744 38.1466 1.66773 37.048 2.53173 36.2853ZM12.585 39.2533C11.4597 38.2746 10.177 37.7866 8.89701 37.7866C7.60367 37.7866 6.31034 38.2853 5.17967 39.2826C6.30501 40.2613 7.58767 40.7493 8.86767 40.7493C10.161 40.7493 11.4543 40.2506 12.585 39.2533Z" fill="#2962FF"/>
<path fill-rule="evenodd" clip-rule="evenodd" d="M1.56993 16.7654C2.31927 16.0374 3.32193 15.632 4.35927 15.632C4.46593 15.632 4.5726 15.6347 4.67927 15.6454C9.7406 16.048 13.3219 19.728 13.5913 24.8C13.6499 25.952 13.2126 27.072 12.3859 27.8774C11.6366 28.6054 10.6339 29.0107 9.5966 29.0107C9.48993 29.0107 9.38327 29.0054 9.2766 28.9974C4.21527 28.592 0.633935 24.9147 0.364602 19.8427C0.305935 18.6907 0.743268 17.5707 1.56993 16.7654ZM4.35938 19.632C7.38871 19.8747 9.43404 21.976 9.59671 25.0107C6.56737 24.768 4.52204 22.6667 4.35938 19.632Z" fill="#2962FF"/>
<path fill-rule="evenodd" clip-rule="evenodd" d="M12.8111 1.86128C13.5711 1.00261 14.6644 0.509277 15.8111 0.509277H15.8271C16.9791 0.514611 18.0751 1.01594 18.8324 1.89061C22.2137 5.78394 22.1924 10.9999 18.7791 14.8666C18.0191 15.7253 16.9257 16.2186 15.7791 16.2186H15.7631C14.6084 16.2133 13.5151 15.7119 12.7577 14.8399C9.37641 10.9466 9.39774 5.73061 12.8111 1.86128ZM15.81 4.50928C17.8553 6.86661 17.842 9.87728 15.778 12.2186C13.7327 9.86128 13.7433 6.85061 15.81 4.50928Z" fill="#2962FF"/>
<path fill-rule="evenodd" clip-rule="evenodd" d="M36.0327 45.4613C36.7873 44.7013 37.8087 44.2773 38.8727 44.2773C38.9553 44.2773 39.038 44.28 39.1207 44.2853C44.15 44.5973 47.766 48.184 48.1207 53.208C48.2033 54.3573 47.7847 55.488 46.9713 56.3067C46.2167 57.0667 45.1953 57.4907 44.1313 57.4907C44.0487 57.4907 43.966 57.488 43.8833 57.4827C38.854 57.1707 35.238 53.584 34.8833 48.56C34.8007 47.4107 35.2193 46.28 36.0327 45.4613ZM38.873 48.2773C41.865 48.464 43.9184 50.5013 44.129 53.4907C41.137 53.304 39.0837 51.2667 38.873 48.2773Z" fill="#2962FF"/>
<path fill-rule="evenodd" clip-rule="evenodd" d="M46.7908 36.232C48.6335 34.632 50.8148 33.7866 53.1002 33.7866C55.4122 33.7866 57.6122 34.6506 59.4628 36.2853C60.3268 37.048 60.8202 38.1493 60.8148 39.3013C60.8095 40.456 60.3082 41.552 59.4362 42.3066C57.5935 43.9066 55.4122 44.752 53.1268 44.752C50.8148 44.752 48.6148 43.888 46.7642 42.2533C45.9002 41.4906 45.4068 40.3893 45.4122 39.2373C45.4175 38.0826 45.9188 36.9866 46.7908 36.232ZM56.8174 39.2826C55.6868 38.2853 54.3934 37.7866 53.1001 37.7866C51.8201 37.7866 50.5374 38.2746 49.4121 39.2533C50.5428 40.2506 51.8361 40.7493 53.1294 40.7493C54.4094 40.7493 55.6921 40.2586 56.8174 39.2826Z" fill="#2962FF"/>
<path fill-rule="evenodd" clip-rule="evenodd" d="M57.318 15.6453C57.4247 15.6373 57.5314 15.632 57.638 15.632C58.6754 15.632 59.678 16.0346 60.4274 16.7653C61.254 17.568 61.694 18.6906 61.6327 19.8426C61.3634 24.9146 57.782 28.592 52.7207 28.9973C52.614 29.0053 52.5074 29.0106 52.4007 29.0106C51.3634 29.0106 50.3607 28.608 49.6114 27.8773C48.7847 27.0746 48.3447 25.952 48.406 24.8C48.6754 19.728 52.2567 16.0506 57.318 15.6453ZM57.6377 19.632C57.4777 22.6666 55.4297 24.768 52.4004 25.0106C52.5604 21.976 54.6084 19.8746 57.6377 19.632Z" fill="#2962FF"/>
<path fill-rule="evenodd" clip-rule="evenodd" d="M46.1693 0.509277H46.1853C47.332 0.509277 48.4253 1.00261 49.1853 1.86128C52.5987 5.72794 52.62 10.9413 49.2387 14.8373C48.4813 15.7093 47.3853 16.2106 46.2333 16.2159H46.2173C45.068 16.2159 43.9773 15.7253 43.2173 14.8639C39.804 10.9973 39.7827 5.78394 43.164 1.88794C43.9213 1.01594 45.0173 0.514611 46.1693 0.509277ZM46.1859 4.50928C48.2499 6.84794 48.2632 9.86128 46.2179 12.2159C44.1539 9.87728 44.1405 6.86661 46.1859 4.50928Z" fill="#2962FF"/>
</svg>
