<svg width="66" height="66" viewBox="0 0 66 66" fill="none" xmlns="http://www.w3.org/2000/svg">
<path d="M57.01 33C57.01 46.2604 46.2604 57.01 33 57.01" stroke="#2962FF" stroke-width="4" stroke-linecap="round" stroke-linejoin="round"/>
<path d="M8.98993 32.9999C8.98993 19.7395 19.7396 8.98987 32.9999 8.98987" stroke="#2962FF" stroke-width="4" stroke-linecap="round" stroke-linejoin="round"/>
<path d="M8.98993 32.9999C8.9903 35.8123 9.49052 38.6023 10.4672 41.2396C10.9139 42.4645 12.1733 43.194 13.4581 42.9721L16.089 42.5082C18.2154 42.1333 19.6609 40.139 19.3556 38.0014L18.5637 32.4585C18.4104 31.3855 17.8284 30.4205 16.9507 29.7844C16.0731 29.1483 14.9749 28.8954 13.9074 29.0836L9.21055 29.9118" stroke="#2962FF" stroke-width="4" stroke-linecap="round" stroke-linejoin="round"/>
<path d="M57.01 32.9999C57.01 19.7395 46.2604 8.98987 33 8.98987" stroke="#2962FF" stroke-width="4" stroke-linecap="round" stroke-linejoin="round"/>
<path d="M57.01 32.9999C57.0097 35.8123 56.5094 38.6023 55.5327 41.2396C55.086 42.4645 53.8266 43.194 52.5419 42.9721L49.9109 42.5082C47.7845 42.1333 46.339 40.139 46.6444 38.0014L47.4362 32.4585C47.5895 31.3855 48.1716 30.4205 49.0492 29.7844C49.9269 29.1483 51.0251 28.8954 52.0925 29.0836L56.7894 29.9118" stroke="#2962FF" stroke-width="4" stroke-linecap="round" stroke-linejoin="round"/>
<path d="M36.9817 34.3097C36.9736 34.3097 36.9663 34.3145 36.9632 34.322C36.9601 34.3294 36.9618 34.338 36.9675 34.3437C36.9732 34.3494 36.9818 34.3511 36.9893 34.348C36.9967 34.345 37.0016 34.3377 37.0016 34.3296C37.0019 34.3243 36.9999 34.319 36.9961 34.3152C36.9923 34.3114 36.987 34.3094 36.9817 34.3097" stroke="#2962FF" stroke-width="4" stroke-linecap="round" stroke-linejoin="round"/>
<path d="M29.0183 34.3179C29.0102 34.3179 29.0029 34.3227 28.9998 34.3302C28.9968 34.3376 28.9985 34.3462 29.0042 34.3519C29.0099 34.3576 29.0185 34.3593 29.0259 34.3562C29.0333 34.3531 29.0382 34.3459 29.0382 34.3378C29.0386 34.3324 29.0366 34.3271 29.0327 34.3233C29.0289 34.3195 29.0236 34.3175 29.0183 34.3179" stroke="#2962FF" stroke-width="4" stroke-linecap="round" stroke-linejoin="round"/>
</svg>
