<svg width="64" height="64" viewBox="0 0 64 64" fill="none" xmlns="http://www.w3.org/2000/svg">
<path d="M24 42.6667H13.3333C8.91504 42.6667 5.33331 39.0849 5.33331 34.6667V16C5.33331 11.5817 8.91504 8 13.3333 8H48C52.4183 8 56 11.5817 56 16V32" stroke="#2962FF" stroke-width="4" stroke-linecap="round" stroke-linejoin="round"/>
<path fill-rule="evenodd" clip-rule="evenodd" d="M39.9999 45.3327V33.3334C39.9999 31.1242 41.7908 29.3334 43.9999 29.3334V29.3334C46.2091 29.3334 47.9999 31.1242 47.9999 33.3334V39.3352L54.1912 40.3448C57.0218 40.8064 58.9805 43.4239 58.6249 46.2697L57.6596 53.9947C57.3261 56.6636 55.0574 58.6666 52.3676 58.6667H42.2447C40.4613 58.6667 38.796 57.7754 37.8068 56.2914L32.6335 48.5301C31.6363 47.0343 31.8335 45.0426 33.1047 43.7714H33.1048C33.8121 43.064 34.7714 42.6666 35.7717 42.6666C36.772 42.6666 37.7314 43.064 38.4386 43.7714L39.9999 45.3327Z" stroke="#2962FF" stroke-width="4" stroke-linecap="round" stroke-linejoin="round"/>
<path fill-rule="evenodd" clip-rule="evenodd" d="M23.5475 20.046L24 20.5055L24.4678 20.0111C25.2616 19.1641 26.3672 18.6785 27.5279 18.6668C28.6887 18.6552 29.8038 19.1185 30.6145 19.9493L30.7096 20.0459C32.4302 21.8141 32.4302 24.6309 30.7096 26.3991L26.0315 31.1492C25.4957 31.6935 24.7638 32 24 32C23.2362 32 22.5044 31.6935 21.9686 31.1492L17.2907 26.3992C15.57 24.631 15.57 21.8142 17.2907 20.046V20.046C18.1158 19.2077 19.2429 18.7357 20.4191 18.7357C21.5953 18.7357 22.7224 19.2077 23.5475 20.046V20.046Z" stroke="#2962FF" stroke-width="4" stroke-linecap="round" stroke-linejoin="round"/>
</svg>
