<svg width="52" height="58" viewBox="0 0 52 58" fill="none" xmlns="http://www.w3.org/2000/svg">
<path fill-rule="evenodd" clip-rule="evenodd" d="M49.8026 39.6639V18.3359C49.8026 16.4292 48.7866 14.6692 47.1359 13.7172L28.6666 3.05323C27.0159 2.10123 24.9839 2.10123 23.3333 3.05323L4.86393 13.7172C3.21327 14.6692 2.19727 16.4319 2.19727 18.3359V39.6612C2.19727 41.5679 3.21327 43.3279 4.86393 44.2799L23.3333 54.9466C24.9839 55.8986 27.0159 55.8986 28.6666 54.9466L47.1359 44.2826C48.7866 43.3306 49.8026 41.5679 49.8026 39.6639Z" stroke="#2962FF" stroke-width="4" stroke-linecap="round" stroke-linejoin="round"/>
<path d="M10.4531 30.6801L18.4531 35.3201" stroke="#2962FF" stroke-width="4" stroke-linecap="round" stroke-linejoin="round"/>
<path d="M2.91211 15.6693L26.0001 29L49.0881 15.6693" stroke="#2962FF" stroke-width="4" stroke-linecap="round" stroke-linejoin="round"/>
<path d="M26.0001 55.6667V29" stroke="#2962FF" stroke-width="4" stroke-linecap="round" stroke-linejoin="round"/>
<path d="M37.5467 22.333L14.1067 8.38635" stroke="#2962FF" stroke-width="4" stroke-linecap="round" stroke-linejoin="round"/>
</svg>
