<svg width="66" height="66" viewBox="0 0 66 66" fill="none" xmlns="http://www.w3.org/2000/svg">
<path d="M24.9959 57.0099H14.9918C11.6767 57.0099 8.98926 54.3225 8.98926 51.0074V22.7023C8.98926 21.8917 9.15393 21.0895 9.47213 20.344L12.7668 12.6341C13.7123 10.4248 15.8833 8.99141 18.2865 8.98993H47.7094C50.1127 8.99071 52.2841 10.4243 53.229 12.6341L56.5237 20.344C56.8438 21.0891 57.0093 21.8914 57.0093 22.7023V32.9999" stroke="#2962FF" stroke-width="4" stroke-linecap="round" stroke-linejoin="round"/>
<path d="M32.9999 8.98993V22.3288" stroke="#2962FF" stroke-width="4" stroke-linecap="round" stroke-linejoin="round"/>
<path d="M19.6611 46.339H24.9967" stroke="#2962FF" stroke-width="4" stroke-linecap="round" stroke-linejoin="round"/>
<path d="M57.0093 27.6645C57.0093 24.7178 54.6204 22.329 51.6737 22.329H14.3248C11.3781 22.329 8.98926 24.7178 8.98926 27.6645" stroke="#2962FF" stroke-width="4" stroke-linecap="round" stroke-linejoin="round"/>
<path fill-rule="evenodd" clip-rule="evenodd" d="M50.8589 37.2819L58.985 51.7226C59.9155 53.3736 59.9004 55.3944 58.9453 57.0313C57.9901 58.6683 56.2383 59.6757 54.343 59.6779H38.0829C36.1871 59.6779 34.4336 58.6721 33.4766 57.0355C32.5197 55.3989 32.5031 53.3774 33.433 51.7252L41.5591 37.2819C42.5042 35.6022 44.2817 34.5629 46.209 34.5629C48.1363 34.5629 49.9138 35.6022 50.8589 37.2819Z" stroke="#2962FF" stroke-width="4" stroke-linecap="round" stroke-linejoin="round"/>
<path d="M46.2079 47.4594V42.564" stroke="#2962FF" stroke-width="4" stroke-linecap="round" stroke-linejoin="round"/>
<path d="M46.2052 52.8617C46.1411 52.8617 46.0796 52.8874 46.0345 52.933C45.9894 52.9786 45.9644 53.0403 45.9651 53.1045C45.9652 53.2029 46.0246 53.2916 46.1156 53.329C46.2067 53.3664 46.3113 53.3452 46.3805 53.2752C46.4497 53.2052 46.4698 53.1003 46.4314 53.0097C46.393 52.9191 46.3037 52.8606 46.2052 52.8617" stroke="#2962FF" stroke-width="4" stroke-linecap="round" stroke-linejoin="round"/>
</svg>
