<svg width="52" height="52" viewBox="0 0 52 52" fill="none" xmlns="http://www.w3.org/2000/svg">
<path fill-rule="evenodd" clip-rule="evenodd" d="M2 39.3333V12.6667C2 6.776 6.776 2 12.6667 2H39.3333C45.224 2 50 6.776 50 12.6667V39.3333C50 45.224 45.224 50 39.3333 50H12.6667C6.776 50 2 45.224 2 39.3333Z" stroke="#2962FF" stroke-width="4" stroke-linecap="round" stroke-linejoin="round"/>
<path d="M40.6377 24.6666L36.6377 20.6666L32.6377 24.6666" stroke="#2962FF" stroke-width="4" stroke-linecap="round" stroke-linejoin="round"/>
<path d="M11.333 27.3334L15.333 31.3334L19.333 27.3334" stroke="#2962FF" stroke-width="4" stroke-linecap="round" stroke-linejoin="round"/>
<path d="M15.333 31.3334V20.6667C15.333 17.72 17.7197 15.3334 20.6663 15.3334H28.6663" stroke="#2962FF" stroke-width="4" stroke-linecap="round" stroke-linejoin="round"/>
<path d="M36.637 20.6666V31.3333C36.637 34.2666 34.237 36.6666 31.3037 36.6666H23.333" stroke="#2962FF" stroke-width="4" stroke-linecap="round" stroke-linejoin="round"/>
</svg>
