<svg width="64" height="64" viewBox="0 0 64 64" fill="none" xmlns="http://www.w3.org/2000/svg">
<path d="M31.9981 37.3947L36.6781 39.8533C37.5901 40.3333 38.6541 39.5573 38.4808 38.544L37.5874 33.3333L41.3741 29.6453C42.1128 28.928 41.7048 27.6747 40.6861 27.528L35.4541 26.768L33.1154 22.0267C32.6594 21.104 31.3421 21.104 30.8888 22.0267L28.5501 26.7707L23.3181 27.5307C22.2994 27.68 21.8914 28.9307 22.6301 29.648L26.4168 33.336L25.5208 38.5467C25.3474 39.56 26.4114 40.3333 27.3234 39.856L32.0034 37.3973" stroke="#2962FF" stroke-width="4" stroke-linecap="round" stroke-linejoin="round"/>
<path fill-rule="evenodd" clip-rule="evenodd" d="M23.8788 47.2853C23.9615 47.28 24.0442 47.2773 24.1268 47.2773C25.1908 47.2773 26.2148 47.7013 26.9668 48.4613C27.7775 49.28 28.1962 50.4107 28.1162 51.56C27.7588 56.584 24.1428 60.1707 19.1162 60.4827C19.0335 60.488 18.9508 60.4907 18.8682 60.4907C17.8042 60.4907 16.7802 60.0667 16.0282 59.3067C15.2175 58.488 14.7988 57.3573 14.8788 56.208C15.2362 51.184 18.8522 47.5973 23.8788 47.2853ZM24.1277 51.2773C23.9171 54.2667 21.8637 56.304 18.8717 56.4907C19.0824 53.4987 21.1357 51.464 24.1277 51.2773Z" fill="#2962FF"/>
<path fill-rule="evenodd" clip-rule="evenodd" d="M3.53175 39.2853C5.38241 37.6506 7.58508 36.7866 9.89708 36.7866C12.1824 36.7866 14.3637 37.632 16.2037 39.232C17.0757 39.9893 17.5771 41.0853 17.5824 42.2373C17.5877 43.392 17.0944 44.4906 16.2304 45.2533C14.3797 46.888 12.1797 47.752 9.86775 47.752C7.58241 47.752 5.40108 46.9066 3.55841 45.3066C2.68641 44.5493 2.18508 43.4533 2.17975 42.3013C2.17441 41.1466 2.66775 40.048 3.53175 39.2853ZM13.585 42.2533C12.4597 41.2746 11.177 40.7866 9.89702 40.7866C8.60369 40.7866 7.31035 41.2853 6.17969 42.2826C7.30502 43.2613 8.58769 43.7493 9.86769 43.7493C11.161 43.7493 12.4544 43.2506 13.585 42.2533Z" fill="#2962FF"/>
<path fill-rule="evenodd" clip-rule="evenodd" d="M2.56993 19.7654C3.31927 19.0374 4.32193 18.632 5.35927 18.632C5.46593 18.632 5.5726 18.6347 5.67927 18.6454C10.7406 19.048 14.3219 22.728 14.5913 27.8C14.6499 28.952 14.2126 30.072 13.3859 30.8774C12.6366 31.6054 11.6339 32.0107 10.5966 32.0107C10.4899 32.0107 10.3833 32.0054 10.2766 31.9974C5.21527 31.592 1.63393 27.9147 1.3646 22.8427C1.30593 21.6907 1.74327 20.5707 2.56993 19.7654ZM5.35938 22.632C8.38871 22.8747 10.434 24.976 10.5967 28.0107C7.56737 27.768 5.52204 25.6667 5.35938 22.632Z" fill="#2962FF"/>
<path fill-rule="evenodd" clip-rule="evenodd" d="M13.8111 4.86128C14.5711 4.00261 15.6644 3.50928 16.8111 3.50928H16.8271C17.9791 3.51461 19.0751 4.01594 19.8324 4.89061C23.2137 8.78394 23.1924 13.9999 19.7791 17.8666C19.0191 18.7253 17.9257 19.2186 16.7791 19.2186H16.7631C15.6084 19.2133 14.5151 18.7119 13.7577 17.8399C10.3764 13.9466 10.3977 8.73061 13.8111 4.86128ZM16.81 7.50928C18.8553 9.86661 18.842 12.8773 16.778 15.2186C14.7327 12.8613 14.7433 9.85061 16.81 7.50928Z" fill="#2962FF"/>
<path fill-rule="evenodd" clip-rule="evenodd" d="M37.0327 48.4613C37.7873 47.7013 38.8087 47.2773 39.8727 47.2773C39.9553 47.2773 40.038 47.28 40.1207 47.2853C45.15 47.5973 48.766 51.184 49.1207 56.208C49.2033 57.3573 48.7847 58.488 47.9713 59.3067C47.2167 60.0667 46.1953 60.4907 45.1313 60.4907C45.0487 60.4907 44.966 60.488 44.8833 60.4827C39.854 60.1707 36.238 56.584 35.8833 51.56C35.8007 50.4107 36.2193 49.28 37.0327 48.4613ZM39.873 51.2773C42.865 51.464 44.9184 53.5013 45.129 56.4907C42.137 56.304 40.0837 54.2667 39.873 51.2773Z" fill="#2962FF"/>
<path fill-rule="evenodd" clip-rule="evenodd" d="M47.7908 39.232C49.6335 37.632 51.8148 36.7866 54.1002 36.7866C56.4122 36.7866 58.6122 37.6506 60.4628 39.2853C61.3268 40.048 61.8202 41.1493 61.8148 42.3013C61.8095 43.456 61.3082 44.552 60.4362 45.3066C58.5935 46.9066 56.4122 47.752 54.1268 47.752C51.8148 47.752 49.6148 46.888 47.7642 45.2533C46.9002 44.4906 46.4068 43.3893 46.4122 42.2373C46.4175 41.0826 46.9188 39.9866 47.7908 39.232ZM57.8174 42.2826C56.6868 41.2853 55.3934 40.7866 54.1001 40.7866C52.8201 40.7866 51.5374 41.2746 50.4121 42.2533C51.5428 43.2506 52.8361 43.7493 54.1294 43.7493C55.4094 43.7493 56.6921 43.2586 57.8174 42.2826Z" fill="#2962FF"/>
<path fill-rule="evenodd" clip-rule="evenodd" d="M58.318 18.6453C58.4247 18.6373 58.5314 18.632 58.638 18.632C59.6754 18.632 60.678 19.0346 61.4274 19.7653C62.254 20.568 62.694 21.6906 62.6327 22.8426C62.3634 27.9146 58.782 31.592 53.7207 31.9973C53.614 32.0053 53.5074 32.0106 53.4007 32.0106C52.3634 32.0106 51.3607 31.608 50.6114 30.8773C49.7847 30.0746 49.3447 28.952 49.406 27.8C49.6754 22.728 53.2567 19.0506 58.318 18.6453ZM58.6377 22.632C58.4777 25.6666 56.4297 27.768 53.4004 28.0106C53.5604 24.976 55.6084 22.8746 58.6377 22.632Z" fill="#2962FF"/>
<path fill-rule="evenodd" clip-rule="evenodd" d="M47.1693 3.50928H47.1853C48.332 3.50928 49.4253 4.00261 50.1853 4.86128C53.5987 8.72794 53.62 13.9413 50.2387 17.8373C49.4813 18.7093 48.3853 19.2106 47.2333 19.2159H47.2173C46.068 19.2159 44.9773 18.7253 44.2173 17.8639C40.804 13.9973 40.7827 8.78394 44.164 4.88794C44.9213 4.01594 46.0173 3.51461 47.1693 3.50928ZM47.1859 7.50928C49.2499 9.84794 49.2632 12.8613 47.2179 15.2159C45.1539 12.8773 45.1405 9.86661 47.1859 7.50928Z" fill="#2962FF"/>
</svg>
