<svg width="66" height="66" viewBox="0 0 66 66" fill="none" xmlns="http://www.w3.org/2000/svg">
<path d="M16.0012 49.9537C23.6777 57.6518 35.569 59.2313 44.9889 53.804C54.4089 48.3768 59.0066 37.2972 56.1971 26.795C53.3876 16.2928 43.8718 8.98883 33.0003 8.98993" stroke="#2962FF" stroke-width="4" stroke-linecap="round" stroke-linejoin="round"/>
<path d="M10.9406 42.0037C10.8669 42.0037 10.8072 42.0634 10.8072 42.1371C10.8072 42.2108 10.8669 42.2705 10.9406 42.2705C10.9882 42.2705 11.0323 42.2451 11.0561 42.2038C11.0799 42.1625 11.0799 42.1117 11.0561 42.0704C11.0323 42.0291 10.9882 42.0037 10.9406 42.0037" stroke="#2962FF" stroke-width="4" stroke-linecap="round" stroke-linejoin="round"/>
<path d="M9.12368 32.8665C9.05002 32.8665 8.99029 32.9262 8.99029 32.9999C8.99029 33.0736 9.05002 33.1333 9.12368 33.1333C9.19735 33.1333 9.25707 33.0736 9.25707 32.9999C9.25707 32.9262 9.19735 32.8665 9.12368 32.8665" stroke="#2962FF" stroke-width="4" stroke-linecap="round" stroke-linejoin="round"/>
<path d="M10.9406 23.7295C10.9052 23.7295 10.8713 23.7435 10.8463 23.7686C10.8212 23.7936 10.8072 23.8275 10.8072 23.8629C10.8072 23.9365 10.8669 23.9963 10.9406 23.9963C10.9882 23.9963 11.0323 23.9708 11.0561 23.9296C11.0799 23.8883 11.0799 23.8375 11.0561 23.7962C11.0323 23.7549 10.9882 23.7295 10.9406 23.7295" stroke="#2962FF" stroke-width="4" stroke-linecap="round" stroke-linejoin="round"/>
<path d="M16.1159 15.9822C16.0428 15.9837 15.9839 16.0426 15.9825 16.1156C15.9825 16.1893 16.0422 16.249 16.1159 16.249C16.1895 16.249 16.2493 16.1893 16.2493 16.1156C16.2493 16.042 16.1895 15.9822 16.1159 15.9822" stroke="#2962FF" stroke-width="4" stroke-linecap="round" stroke-linejoin="round"/>
<path d="M23.8632 10.8068C23.7895 10.8068 23.7298 10.8665 23.7298 10.9402C23.7298 11.0138 23.7895 11.0735 23.8632 11.0735C23.9369 11.0735 23.9966 11.0138 23.9966 10.9402C23.9966 10.8665 23.9369 10.8068 23.8632 10.8068" stroke="#2962FF" stroke-width="4" stroke-linecap="round" stroke-linejoin="round"/>
<path fill-rule="evenodd" clip-rule="evenodd" d="M23.1484 36.9244V29.0838C23.1505 28.0831 23.6892 27.1604 24.5597 26.6668L31.6426 22.6864C32.4856 22.2115 33.5155 22.2115 34.3584 22.6864L41.4414 26.6668C42.3131 27.1592 42.8523 28.0826 42.8526 29.0838V36.9244C42.8465 37.9198 42.3081 38.8358 41.4414 39.3254L34.3558 43.3057C33.5121 43.778 32.4836 43.778 31.64 43.3057L24.557 39.336C23.6872 38.8447 23.1491 37.9234 23.1484 36.9244V36.9244Z" stroke="#2962FF" stroke-width="4" stroke-linecap="round" stroke-linejoin="round"/>
<path d="M33.0006 33V43.6711" stroke="#2962FF" stroke-width="4" stroke-linecap="round" stroke-linejoin="round"/>
<path d="M23.5273 27.6831L33.0006 33L42.4739 27.6805" stroke="#2962FF" stroke-width="4" stroke-linecap="round" stroke-linejoin="round"/>
</svg>
