<svg width="66" height="66" viewBox="0 0 66 66" fill="none" xmlns="http://www.w3.org/2000/svg">
<path fill-rule="evenodd" clip-rule="evenodd" d="M43.671 57.0096H22.3288C14.9619 57.0096 8.98987 51.0376 8.98987 43.6707V22.3285C8.98987 14.9616 14.9619 8.98962 22.3288 8.98962H43.671C51.0378 8.98962 57.0099 14.9616 57.0099 22.3285V43.6707C57.0099 51.0376 51.0378 57.0096 43.671 57.0096Z" stroke="#2962FF" stroke-width="4" stroke-linecap="round" stroke-linejoin="round"/>
<path fill-rule="evenodd" clip-rule="evenodd" d="M38.3356 46.3401H32.8793V40.8837C32.8788 40.324 33.1013 39.7872 33.4975 39.392L41.9373 30.9521C42.3327 30.556 42.8694 30.3334 43.4291 30.3334C43.9887 30.3334 44.5254 30.556 44.9208 30.9521L48.2672 34.2986C48.6634 34.6939 48.886 35.2306 48.886 35.7903C48.886 36.35 48.6634 36.8867 48.2672 37.282L39.8274 45.7218C39.4316 46.1173 38.8951 46.3396 38.3356 46.3401V46.3401Z" stroke="#2962FF" stroke-width="4" stroke-linecap="round" stroke-linejoin="round"/>
<path d="M24.9968 38.3365H19.5404" stroke="#2962FF" stroke-width="4" stroke-linecap="round" stroke-linejoin="round"/>
<path d="M30.3323 30.3313H19.5404" stroke="#2962FF" stroke-width="4" stroke-linecap="round" stroke-linejoin="round"/>
<path d="M35.6679 22.3286H19.5404" stroke="#2962FF" stroke-width="4" stroke-linecap="round" stroke-linejoin="round"/>
</svg>
