<svg width="64" height="64" viewBox="0 0 64 64" fill="none" xmlns="http://www.w3.org/2000/svg">
<path d="M55.4456 25.3961C57.5523 27.5029 57.5523 30.9186 55.4456 33.0253C53.3388 35.1321 49.9231 35.1321 47.8164 33.0253C45.7096 30.9186 45.7096 27.5028 47.8164 25.3961C49.9231 23.2894 53.3388 23.2894 55.4456 25.3961" stroke="#2962FF" stroke-width="4" stroke-linecap="round" stroke-linejoin="round"/>
<path d="M37.8728 15.7662C41.1167 19.0102 41.1167 24.2697 37.8728 27.5136C34.6288 30.7576 29.3693 30.7576 26.1253 27.5136C22.8814 24.2697 22.8814 19.0102 26.1253 15.7662C29.3693 12.5223 34.6288 12.5223 37.8728 15.7662" stroke="#2962FF" stroke-width="4" stroke-linecap="round" stroke-linejoin="round"/>
<path d="M16.1829 25.3961C18.2896 27.5029 18.2896 30.9186 16.1829 33.0253C14.0761 35.1321 10.6604 35.1321 8.55369 33.0253C6.44695 30.9186 6.44695 27.5028 8.55369 25.3961C10.6604 23.2894 14.0761 23.2894 16.1829 25.3961" stroke="#2962FF" stroke-width="4" stroke-linecap="round" stroke-linejoin="round"/>
<path d="M61.3329 50.6667V47.7441C61.3329 44.0614 58.3489 41.0774 54.6663 41.0774H52.5303" stroke="#2962FF" stroke-width="4" stroke-linecap="round" stroke-linejoin="round"/>
<path d="M2.66602 50.6667V47.7441C2.66602 44.0614 5.65002 41.0774 9.33268 41.0774H11.4687" stroke="#2962FF" stroke-width="4" stroke-linecap="round" stroke-linejoin="round"/>
<path d="M46.2371 50.6668V46.3974C46.2371 41.2428 42.0584 37.0641 36.9038 37.0641H27.0931C21.9384 37.0641 17.7598 41.2428 17.7598 46.3974V50.6668" stroke="#2962FF" stroke-width="4" stroke-linecap="round" stroke-linejoin="round"/>
</svg>
