<svg width="64" height="64" viewBox="0 0 64 64" fill="none" xmlns="http://www.w3.org/2000/svg">
<path d="M55.682 24.0001C55.4819 23.1599 55.1897 22.3442 54.8107 21.5681C50.3963 13.0848 41.5617 7.82984 32 8.00011C22.4384 7.82985 13.6037 13.0848 9.18933 21.5681V21.5681C7.60356 24.7823 7.60356 28.5513 9.18933 31.7654V31.7654C13.144 39.4052 20.7583 44.4661 29.3333 45.1544" stroke="#2962FF" stroke-width="4" stroke-linecap="round" stroke-linejoin="round"/>
<path d="M49.3307 43.3333C48.9628 43.3348 48.6657 43.6339 48.6667 44.0017C48.6676 44.3696 48.9664 44.6671 49.3342 44.6666C49.7021 44.6661 50 44.3678 50 44C50.0009 43.8224 49.9306 43.6519 49.8048 43.5266C49.679 43.4013 49.5082 43.3317 49.3307 43.3333" stroke="#2962FF" stroke-width="4" stroke-linecap="round" stroke-linejoin="round"/>
<path fill-rule="evenodd" clip-rule="evenodd" d="M40 44V44C40 38.8453 44.1787 34.6666 49.3333 34.6666V34.6666C54.488 34.6666 58.6667 38.8453 58.6667 44V44C58.6667 48.3693 53.8987 53.0368 51.1787 55.3449C50.1045 56.2183 48.5649 56.2183 47.4907 55.3449C44.768 53.0368 40 48.3693 40 44Z" stroke="#2962FF" stroke-width="4" stroke-linecap="round" stroke-linejoin="round"/>
<circle cx="31.9998" cy="26.6667" r="5.33333" stroke="#2962FF" stroke-width="4" stroke-linecap="round" stroke-linejoin="round"/>
</svg>
