<svg width="64" height="64" viewBox="0 0 64 64" fill="none" xmlns="http://www.w3.org/2000/svg">
<path d="M55.6346 27.8319C57.9359 40.8853 49.2186 53.3333 36.1679 55.6346C23.1146 57.9359 10.6666 49.2213 8.36528 36.1679C6.06394 23.1146 14.7786 10.6666 27.8319 8.36528C40.8853 6.06394 53.3333 14.7786 55.6346 27.8319" stroke="#2962FF" stroke-width="4" stroke-linecap="round" stroke-linejoin="round"/>
<path d="M18.7867 11.9893L22.6427 17.8293" stroke="#2962FF" stroke-width="4" stroke-linecap="round" stroke-linejoin="round"/>
<path d="M45.2134 52.0105L41.3574 46.1705" stroke="#2962FF" stroke-width="4" stroke-linecap="round" stroke-linejoin="round"/>
<path d="M27.376 38.104C28.064 39.232 29.2426 40.008 30.664 40.008H33.5866C35.6533 40.008 37.3306 38.3333 37.3306 36.264C37.3306 34.5467 36.1626 33.048 34.4986 32.632L29.5013 31.3787C27.8346 30.96 26.6666 29.4613 26.6666 27.744C26.6666 25.6773 28.3413 24 30.4106 24H33.3333C34.7546 24 35.9333 24.7787 36.6213 25.904" stroke="#2962FF" stroke-width="4" stroke-linecap="round" stroke-linejoin="round"/>
<path d="M32 21.3334V24" stroke="#2962FF" stroke-width="4" stroke-linecap="round" stroke-linejoin="round"/>
<path d="M32 42.6667V40" stroke="#2962FF" stroke-width="4" stroke-linecap="round" stroke-linejoin="round"/>
</svg>
