<svg width="64" height="64" viewBox="0 0 64 64" fill="none" xmlns="http://www.w3.org/2000/svg">
<path d="M40.851 27.5781L29.7897 38.6395L23.1523 32.0021" stroke="#2962FF" stroke-width="4" stroke-linecap="round" stroke-linejoin="round"/>
<path fill-rule="evenodd" clip-rule="evenodd" d="M50.9334 15.7893C44.3761 15.272 38.4081 12.6613 33.6987 8.62134C32.7334 7.79468 31.2641 7.79468 30.3014 8.62134C25.5921 12.6587 19.6241 15.272 13.0667 15.7893C11.7014 15.896 10.6667 17.064 10.6667 18.432V29.9787C10.6667 41.624 19.0827 52.544 30.6081 55.8053C31.5121 56.0613 32.4907 56.0613 33.3947 55.8053C44.9174 52.5413 53.3334 41.6267 53.3334 29.9813V18.4347C53.3334 17.064 52.2988 15.896 50.9334 15.7893Z" stroke="#2962FF" stroke-width="4" stroke-linecap="round" stroke-linejoin="round"/>
</svg>
