<svg width="191" height="48" viewBox="0 0 191 48" fill="none" xmlns="http://www.w3.org/2000/svg">
<path fill-rule="evenodd" clip-rule="evenodd" d="M77.4641 4.3269C78.7074 4.3269 79.6524 5.3175 79.6524 6.55575C79.6524 7.79399 78.6577 8.73506 77.4641 8.73506C76.2207 8.73506 75.2261 7.79399 75.2261 6.55575C75.2261 5.3175 76.2705 4.3269 77.4641 4.3269ZM77.4641 4.72314C78.3593 4.72314 79.155 5.41656 79.2545 6.25857C79.0058 5.61468 78.3593 5.11938 77.5636 5.11938C76.5689 5.11938 75.7731 5.91186 75.7731 6.90245C75.7731 7.00151 75.8229 7.05104 75.8229 7.1501C75.7234 6.95198 75.6737 6.75386 75.6737 6.50622C75.6737 5.51562 76.4694 4.72314 77.4641 4.72314Z" fill="#2962FF"/>
<path fill-rule="evenodd" clip-rule="evenodd" d="M77.7619 12.3984L77.1652 15.4684L66.2269 18.885L68.3151 14.28C67.8179 14.0324 67.4201 13.6858 66.9727 13.3392C66.8235 12.745 66.6246 12.2994 66.6246 11.7052L61.5532 11.7547L69.2101 3.18847L72.2927 3.93121C76.668 0.0689721 81.1428 0.0194562 86.5125 0.81171C84.9712 5.91184 83.0819 10.0217 77.7619 12.3984ZM84.3746 2.24767C78.0105 1.35638 73.5357 5.07007 72.8396 6.06039L69.5581 5.31765L65.6302 9.62553H68.9117C68.9117 9.62553 67.9174 10.5663 68.4145 12.2499C69.757 13.3887 71.0994 12.8441 71.0994 12.8441L69.757 15.7655L75.425 14.0324L76.0714 10.8634C77.2647 10.6654 82.6344 8.23909 84.3746 2.24767Z" fill="#2962FF"/>
<path fill-rule="evenodd" clip-rule="evenodd" d="M32.7152 39.8788C38.6319 37.7496 50.2166 32.0553 65.7291 17.052C55.5366 25.0241 41.6648 33.2437 28.6382 37.205C26.6494 37.7991 25.8042 38.1458 24.064 38.7895C24.412 38.7895 36.5933 51.8121 47.4323 40.5225C48.8741 40.9186 50.3657 41.1662 51.8573 41.1662C60.2599 41.1662 67.0218 34.4321 67.0218 26.0639C67.0218 23.8357 66.5246 21.756 65.6794 19.8744C64.685 20.8152 63.7403 21.756 62.9448 22.5483C63.2929 23.6871 63.4917 24.826 63.4917 26.0639C63.4917 32.4514 58.2712 37.6506 51.8573 37.6506C49.8188 37.6506 47.9294 37.1554 46.239 36.2146C44.5485 39.1856 41.267 41.2157 37.5877 41.2157C35.8475 41.1662 34.2068 40.7206 32.7152 39.8788Z" fill="#2962FF"/>
<path fill-rule="evenodd" clip-rule="evenodd" d="M63.2436 15.0229C63.2436 15.0229 53.051 21.3115 36.7926 27.0058C24.1638 31.4622 13.126 31.8088 0 33.0962C18.5952 43.148 51.5097 25.2727 63.2436 15.0229Z" fill="#2962FF"/>
<path fill-rule="evenodd" clip-rule="evenodd" d="M20.7329 15.3195C23.1692 8.18918 29.9808 3.28711 37.7371 3.28711C43.7034 3.28711 49.1726 6.20854 52.5038 11.0116C54.6418 11.1106 56.6306 11.6058 58.4702 12.4971L53.1999 14.5767C52.7524 14.5272 52.305 14.5272 51.8575 14.5272C51.41 14.5272 50.9625 14.5767 50.515 14.5767C48.1285 9.97175 43.256 6.85225 37.6873 6.85225C30.7266 6.85225 24.9094 11.7543 23.5669 18.2409C20.0865 18.6865 17.2028 20.8652 15.8106 23.8857L17.5508 23.7867C37.8862 23.6381 62.3981 12.6456 62.3981 12.6456C45.0956 22.5488 30.7763 27.5994 11.2861 28.0945C11.3359 22.1526 15.214 17.0525 20.7329 15.3195Z" fill="#2962FF"/>
<path d="M96.9539 16.2812H99.1414L103.253 27.248L107.354 16.2812H109.542L104.112 30.5H102.374L96.9539 16.2812ZM95.9578 16.2812H98.0378L98.3992 25.7734V30.5H95.9578V16.2812ZM108.458 16.2812H110.548V30.5H108.096V25.7734L108.458 16.2812ZM122.418 28.625V30.5H112.887V28.8887L117.516 23.8398C118.023 23.2669 118.424 22.7721 118.717 22.3555C119.01 21.9388 119.215 21.5645 119.332 21.2324C119.456 20.8939 119.518 20.5651 119.518 20.2461C119.518 19.7969 119.433 19.403 119.264 19.0645C119.101 18.7194 118.86 18.4492 118.541 18.2539C118.222 18.0521 117.835 17.9512 117.379 17.9512C116.852 17.9512 116.409 18.0651 116.051 18.293C115.693 18.5208 115.422 18.8366 115.24 19.2402C115.058 19.6374 114.967 20.0931 114.967 20.6074H112.613C112.613 19.7806 112.802 19.0254 113.18 18.3418C113.557 17.6517 114.104 17.1048 114.82 16.7012C115.536 16.291 116.399 16.0859 117.408 16.0859C118.359 16.0859 119.166 16.2454 119.83 16.5645C120.494 16.8835 120.999 17.3359 121.344 17.9219C121.695 18.5078 121.871 19.2012 121.871 20.002C121.871 20.4447 121.799 20.8841 121.656 21.3203C121.513 21.7565 121.308 22.1927 121.041 22.6289C120.781 23.0586 120.471 23.4915 120.113 23.9277C119.755 24.3574 119.361 24.7936 118.932 25.2363L115.855 28.625H122.418ZM133.732 28.5566V30.5H126.183V28.5566H133.732ZM126.876 16.2812V30.5H124.425V16.2812H126.876ZM132.745 22.2188V24.1328H126.183V22.2188H132.745ZM133.683 16.2812V18.2344H126.183V16.2812H133.683ZM148.712 25.8711H151.154C151.076 26.8021 150.815 27.6322 150.373 28.3613C149.93 29.084 149.308 29.6536 148.507 30.0703C147.707 30.487 146.733 30.6953 145.587 30.6953C144.709 30.6953 143.918 30.5391 143.214 30.2266C142.511 29.9076 141.909 29.4583 141.408 28.8789C140.906 28.293 140.522 27.5866 140.255 26.7598C139.995 25.9329 139.865 25.0085 139.865 23.9863V22.8047C139.865 21.7826 139.998 20.8581 140.265 20.0312C140.539 19.2044 140.929 18.498 141.437 17.9121C141.945 17.3197 142.554 16.8672 143.263 16.5547C143.979 16.2422 144.783 16.0859 145.675 16.0859C146.808 16.0859 147.765 16.2943 148.546 16.7109C149.328 17.1276 149.933 17.7038 150.363 18.4395C150.799 19.1751 151.066 20.0182 151.164 20.9688H148.722C148.657 20.3568 148.514 19.8327 148.293 19.3965C148.078 18.9603 147.759 18.6283 147.335 18.4004C146.912 18.166 146.359 18.0488 145.675 18.0488C145.115 18.0488 144.627 18.153 144.21 18.3613C143.794 18.5697 143.446 18.8757 143.166 19.2793C142.886 19.6829 142.674 20.181 142.531 20.7734C142.394 21.3594 142.326 22.0299 142.326 22.7852V23.9863C142.326 24.7025 142.388 25.3535 142.511 25.9395C142.641 26.5189 142.837 27.0169 143.097 27.4336C143.364 27.8503 143.703 28.1725 144.113 28.4004C144.523 28.6283 145.015 28.7422 145.587 28.7422C146.284 28.7422 146.847 28.6315 147.277 28.4102C147.713 28.1888 148.042 27.8665 148.263 27.4434C148.491 27.0137 148.641 26.4896 148.712 25.8711ZM155.466 15.5V30.5H153.102V15.5H155.466ZM157.394 25.334V25.1094C157.394 24.3477 157.505 23.6413 157.727 22.9902C157.948 22.3327 158.267 21.763 158.684 21.2812C159.107 20.793 159.621 20.4154 160.227 20.1484C160.838 19.875 161.529 19.7383 162.297 19.7383C163.072 19.7383 163.762 19.875 164.367 20.1484C164.979 20.4154 165.497 20.793 165.92 21.2812C166.343 21.763 166.665 22.3327 166.887 22.9902C167.108 23.6413 167.219 24.3477 167.219 25.1094V25.334C167.219 26.0957 167.108 26.8021 166.887 27.4531C166.665 28.1042 166.343 28.6738 165.92 29.1621C165.497 29.6439 164.982 30.0215 164.377 30.2949C163.771 30.5618 163.085 30.6953 162.316 30.6953C161.542 30.6953 160.848 30.5618 160.236 30.2949C159.631 30.0215 159.116 29.6439 158.693 29.1621C158.27 28.6738 157.948 28.1042 157.727 27.4531C157.505 26.8021 157.394 26.0957 157.394 25.334ZM159.748 25.1094V25.334C159.748 25.8092 159.797 26.2585 159.894 26.6816C159.992 27.1048 160.145 27.4759 160.353 27.7949C160.562 28.1139 160.829 28.3646 161.154 28.5469C161.48 28.7292 161.867 28.8203 162.316 28.8203C162.753 28.8203 163.13 28.7292 163.449 28.5469C163.775 28.3646 164.042 28.1139 164.25 27.7949C164.458 27.4759 164.611 27.1048 164.709 26.6816C164.813 26.2585 164.865 25.8092 164.865 25.334V25.1094C164.865 24.6406 164.813 24.1979 164.709 23.7812C164.611 23.3581 164.455 22.9837 164.24 22.6582C164.032 22.3327 163.765 22.0788 163.439 21.8965C163.12 21.7077 162.74 21.6133 162.297 21.6133C161.854 21.6133 161.47 21.7077 161.144 21.8965C160.825 22.0788 160.562 22.3327 160.353 22.6582C160.145 22.9837 159.992 23.3581 159.894 23.7812C159.797 24.1979 159.748 24.6406 159.748 25.1094ZM175.349 28.0098V19.9336H177.712V30.5H175.485L175.349 28.0098ZM175.681 25.8125L176.472 25.793C176.472 26.5026 176.394 27.1569 176.237 27.7559C176.081 28.3483 175.84 28.8659 175.515 29.3086C175.189 29.7448 174.773 30.0866 174.265 30.334C173.757 30.5749 173.148 30.6953 172.439 30.6953C171.924 30.6953 171.452 30.6204 171.023 30.4707C170.593 30.321 170.222 30.0898 169.909 29.7773C169.603 29.4648 169.366 29.0579 169.196 28.5566C169.027 28.0553 168.943 27.4564 168.943 26.7598V19.9336H171.296V26.7793C171.296 27.1634 171.342 27.4857 171.433 27.7461C171.524 28 171.648 28.2051 171.804 28.3613C171.96 28.5176 172.142 28.6283 172.351 28.6934C172.559 28.7585 172.78 28.791 173.015 28.791C173.685 28.791 174.213 28.6608 174.597 28.4004C174.987 28.1335 175.264 27.7754 175.427 27.3262C175.596 26.877 175.681 26.3724 175.681 25.8125ZM186.369 28.3125V15.5H188.733V30.5H186.594L186.369 28.3125ZM179.494 25.334V25.1289C179.494 24.3281 179.589 23.599 179.778 22.9414C179.966 22.2773 180.24 21.7077 180.598 21.2324C180.956 20.7507 181.392 20.3828 181.907 20.1289C182.421 19.8685 183 19.7383 183.645 19.7383C184.283 19.7383 184.843 19.862 185.325 20.1094C185.806 20.3568 186.216 20.7116 186.555 21.1738C186.894 21.6296 187.164 22.1764 187.366 22.8145C187.567 23.446 187.711 24.1491 187.795 24.9238V25.5781C187.711 26.3333 187.567 27.0234 187.366 27.6484C187.164 28.2734 186.894 28.8138 186.555 29.2695C186.216 29.7253 185.803 30.0768 185.315 30.3242C184.833 30.5716 184.27 30.6953 183.625 30.6953C182.987 30.6953 182.411 30.5618 181.897 30.2949C181.389 30.028 180.956 29.6536 180.598 29.1719C180.24 28.6901 179.966 28.1237 179.778 27.4727C179.589 26.8151 179.494 26.1022 179.494 25.334ZM181.848 25.1289V25.334C181.848 25.8158 181.89 26.265 181.975 26.6816C182.066 27.0983 182.206 27.4661 182.395 27.7852C182.584 28.0977 182.828 28.3451 183.127 28.5273C183.433 28.7031 183.798 28.791 184.221 28.791C184.755 28.791 185.194 28.6738 185.539 28.4395C185.884 28.2051 186.155 27.8893 186.35 27.4922C186.552 27.0885 186.688 26.6393 186.76 26.1445V24.377C186.721 23.9928 186.64 23.6348 186.516 23.3027C186.399 22.9707 186.239 22.681 186.037 22.4336C185.836 22.1797 185.585 21.9844 185.285 21.8477C184.993 21.7044 184.644 21.6328 184.241 21.6328C183.811 21.6328 183.446 21.724 183.147 21.9062C182.847 22.0885 182.6 22.3392 182.405 22.6582C182.216 22.9772 182.076 23.3483 181.985 23.7715C181.894 24.1947 181.848 24.6471 181.848 25.1289Z" fill="#181818"/>
</svg>
