<svg width="849" height="416" viewBox="0 0 849 416" fill="none" xmlns="http://www.w3.org/2000/svg">
<rect width="791" height="416" transform="translate(58)" fill="#FCFCFC"/>
<mask id="mask0_306_6576" style="mask-type:alpha" maskUnits="userSpaceOnUse" x="0" y="-8" width="901" height="531">
<rect x="0.333984" y="-7.53809" width="900" height="529.747" fill="url(#paint0_radial_306_6576)"/>
</mask>
<g mask="url(#mask0_306_6576)">
<g filter="url(#filter0_i_306_6576)">
<path d="M436.675 261.576L356.985 313.503M356.985 313.503L668.756 492.009C669.609 492.498 669.646 493.715 668.824 494.254L508.725 599.292M356.985 313.503L-30.5595 544.548M356.985 313.503L47.2195 139.217C46.8213 138.993 46.3356 138.991 45.9358 139.212L-112.23 226.675" stroke="#DBDBDB" stroke-width="13.1759"/>
</g>
<path d="M547.621 417.071V403.886L536.372 410.444V423.629L547.621 417.071Z" fill="url(#paint1_linear_306_6576)"/>
<path d="M525.122 417.071V403.886L536.371 410.444V423.629L525.122 417.071Z" fill="url(#paint2_linear_306_6576)"/>
<path d="M525.122 417.071V403.886L536.371 410.444V423.629L525.122 417.071Z" fill="url(#paint3_linear_306_6576)"/>
<path d="M536.328 397.308L547.621 403.885L536.37 410.445L525.121 403.885L536.328 397.308Z" fill="url(#paint4_linear_306_6576)"/>
<path d="M536.328 397.308L547.621 403.885L536.37 410.445L525.121 403.885L536.328 397.308Z" fill="url(#paint5_radial_306_6576)"/>
<path d="M499.984 389.666V376.481L488.735 383.038V396.223L499.984 389.666Z" fill="url(#paint6_linear_306_6576)"/>
<path d="M477.485 389.665V376.48L488.734 383.038V396.223L477.485 389.665Z" fill="url(#paint7_linear_306_6576)"/>
<path d="M477.485 389.665V376.48L488.734 383.038V396.223L477.485 389.665Z" fill="url(#paint8_linear_306_6576)"/>
<path d="M488.691 369.903L499.984 376.48L488.734 383.04L477.484 376.48L488.691 369.903Z" fill="url(#paint9_linear_306_6576)"/>
<path d="M488.691 369.903L499.984 376.48L488.734 383.04L477.484 376.48L488.691 369.903Z" fill="url(#paint10_radial_306_6576)"/>
<path d="M453.521 362.157V348.973L442.272 355.53V368.715L453.521 362.157Z" fill="url(#paint11_linear_306_6576)"/>
<path d="M431.022 362.157V348.972L442.271 355.53V368.715L431.022 362.157Z" fill="url(#paint12_linear_306_6576)"/>
<path d="M431.022 362.157V348.972L442.271 355.53V368.715L431.022 362.157Z" fill="url(#paint13_linear_306_6576)"/>
<path d="M442.228 342.395L453.521 348.972L442.271 355.532L431.021 348.972L442.228 342.395Z" fill="url(#paint14_linear_306_6576)"/>
<path d="M442.228 342.395L453.521 348.972L442.271 355.532L431.021 348.972L442.228 342.395Z" fill="url(#paint15_radial_306_6576)"/>
<path d="M403.506 333.501V320.316L392.256 326.874V340.059L403.506 333.501Z" fill="url(#paint16_linear_306_6576)"/>
<path d="M381.006 333.501V320.316L392.256 326.874V340.059L381.006 333.501Z" fill="url(#paint17_linear_306_6576)"/>
<path d="M381.006 333.501V320.316L392.256 326.874V340.059L381.006 333.501Z" fill="url(#paint18_linear_306_6576)"/>
<path d="M392.213 313.738L403.506 320.315L392.255 326.875L381.005 320.315L392.213 313.738Z" fill="url(#paint19_linear_306_6576)"/>
<path d="M392.213 313.738L403.506 320.315L392.255 326.875L381.005 320.315L392.213 313.738Z" fill="url(#paint20_radial_306_6576)"/>
<path d="M252.803 380.031V366.846L241.553 373.404V386.589L252.803 380.031Z" fill="url(#paint21_linear_306_6576)"/>
<path d="M230.303 380.031V366.846L241.553 373.404V386.589L230.303 380.031Z" fill="url(#paint22_linear_306_6576)"/>
<path d="M230.303 380.031V366.846L241.553 373.404V386.589L230.303 380.031Z" fill="url(#paint23_linear_306_6576)"/>
<path d="M241.509 360.27L252.803 366.847L241.552 373.407L230.302 366.847L241.509 360.27Z" fill="url(#paint24_linear_306_6576)"/>
<path d="M241.509 360.27L252.803 366.847L241.552 373.407L230.302 366.847L241.509 360.27Z" fill="url(#paint25_radial_306_6576)"/>
<path d="M295.689 355.58V342.395L284.44 348.952V362.137L295.689 355.58Z" fill="url(#paint26_linear_306_6576)"/>
<path d="M273.19 355.58V342.395L284.439 348.952V362.137L273.19 355.58Z" fill="url(#paint27_linear_306_6576)"/>
<path d="M273.19 355.58V342.395L284.439 348.952V362.137L273.19 355.58Z" fill="url(#paint28_linear_306_6576)"/>
<path d="M284.396 335.818L295.689 342.395L284.439 348.955L273.189 342.395L284.396 335.818Z" fill="url(#paint29_linear_306_6576)"/>
<path d="M284.396 335.818L295.689 342.395L284.439 348.955L273.189 342.395L284.396 335.818Z" fill="url(#paint30_radial_306_6576)"/>
<path d="M392.256 297.28V284.095L381.006 290.652V303.837L392.256 297.28Z" fill="url(#paint31_linear_306_6576)"/>
<path d="M369.756 297.28V284.095L381.006 290.652V303.837L369.756 297.28Z" fill="url(#paint32_linear_306_6576)"/>
<path d="M369.756 297.28V284.095L381.006 290.652V303.837L369.756 297.28Z" fill="url(#paint33_linear_306_6576)"/>
<path d="M380.963 277.518L392.256 284.095L381.005 290.655L369.755 284.095L380.963 277.518Z" fill="url(#paint34_linear_306_6576)"/>
<path d="M380.963 277.518L392.256 284.095L381.005 290.655L369.755 284.095L380.963 277.518Z" fill="url(#paint35_radial_306_6576)"/>
<path d="M336.572 330.212V317.027L325.323 323.585V336.77L336.572 330.212Z" fill="url(#paint36_linear_306_6576)"/>
<path d="M314.073 330.212V317.027L325.322 323.585V336.77L314.073 330.212Z" fill="url(#paint37_linear_306_6576)"/>
<path d="M314.073 330.212V317.027L325.322 323.585V336.77L314.073 330.212Z" fill="url(#paint38_linear_306_6576)"/>
<path d="M325.279 310.451L336.572 317.028L325.322 323.588L314.072 317.028L325.279 310.451Z" fill="url(#paint39_linear_306_6576)"/>
<path d="M325.279 310.451L336.572 317.028L325.322 323.588L314.072 317.028L325.279 310.451Z" fill="url(#paint40_radial_306_6576)"/>
<path d="M217.834 228.342V215.157L206.585 221.715V234.9L217.834 228.342Z" fill="url(#paint41_linear_306_6576)"/>
<path d="M195.335 228.342V215.157L206.584 221.715V234.9L195.335 228.342Z" fill="url(#paint42_linear_306_6576)"/>
<path d="M195.335 228.342V215.157L206.584 221.715V234.9L195.335 228.342Z" fill="url(#paint43_linear_306_6576)"/>
<path d="M206.541 208.581L217.834 215.158L206.583 221.718L195.333 215.158L206.541 208.581Z" fill="url(#paint44_linear_306_6576)"/>
<path d="M206.541 208.581L217.834 215.158L206.583 221.718L195.333 215.158L206.541 208.581Z" fill="url(#paint45_radial_306_6576)"/>
<path d="M271.326 258.796V245.611L260.077 252.169V265.354L271.326 258.796Z" fill="url(#paint46_linear_306_6576)"/>
<path d="M248.827 258.796V245.611L260.076 252.169V265.354L248.827 258.796Z" fill="url(#paint47_linear_306_6576)"/>
<path d="M248.827 258.796V245.611L260.076 252.169V265.354L248.827 258.796Z" fill="url(#paint48_linear_306_6576)"/>
<path d="M260.033 239.035L271.326 245.611L260.076 252.172L248.826 245.612L260.033 239.035Z" fill="url(#paint49_linear_306_6576)"/>
<path d="M260.033 239.035L271.326 245.611L260.076 252.172L248.826 245.612L260.033 239.035Z" fill="url(#paint50_radial_306_6576)"/>
<path d="M322.781 287.408V274.223L311.532 280.781V293.966L322.781 287.408Z" fill="url(#paint51_linear_306_6576)"/>
<path d="M300.282 287.408V274.223L311.531 280.781V293.966L300.282 287.408Z" fill="url(#paint52_linear_306_6576)"/>
<path d="M300.282 287.408V274.223L311.531 280.781V293.966L300.282 287.408Z" fill="url(#paint53_linear_306_6576)"/>
<path d="M311.488 267.647L322.781 274.223L311.531 280.784L300.281 274.224L311.488 267.647Z" fill="url(#paint54_linear_306_6576)"/>
<path d="M311.488 267.647L322.781 274.223L311.531 280.784L300.281 274.224L311.488 267.647Z" fill="url(#paint55_radial_306_6576)"/>
<path d="M161.691 196.225V183.04L150.442 189.598V202.783L161.691 196.225Z" fill="url(#paint56_linear_306_6576)"/>
<path d="M139.192 196.225V183.04L150.441 189.598V202.783L139.192 196.225Z" fill="url(#paint57_linear_306_6576)"/>
<path d="M139.192 196.225V183.04L150.441 189.598V202.783L139.192 196.225Z" fill="url(#paint58_linear_306_6576)"/>
<path d="M150.398 176.463L161.691 183.04L150.441 189.6L139.191 183.04L150.398 176.463Z" fill="url(#paint59_linear_306_6576)"/>
<path d="M150.398 176.463L161.691 183.04L150.441 189.6L139.191 183.04L150.398 176.463Z" fill="url(#paint60_radial_306_6576)"/>
<path d="M105.543 164.1V150.915L94.2936 157.473V170.658L105.543 164.1Z" fill="url(#paint61_linear_306_6576)"/>
<path d="M83.0436 164.1V150.915L94.293 157.473V170.658L83.0436 164.1Z" fill="url(#paint62_linear_306_6576)"/>
<path d="M83.0436 164.1V150.915L94.293 157.473V170.658L83.0436 164.1Z" fill="url(#paint63_linear_306_6576)"/>
<path d="M94.2496 144.338L105.543 150.914L94.2924 157.475L83.0424 150.915L94.2496 144.338Z" fill="url(#paint64_linear_306_6576)"/>
<path d="M94.2496 144.338L105.543 150.914L94.2924 157.475L83.0424 150.915L94.2496 144.338Z" fill="url(#paint65_radial_306_6576)"/>
<path d="M16.7617 160.559V147.374L5.51232 153.932V167.117L16.7617 160.559Z" fill="url(#paint66_linear_306_6576)"/>
<path d="M-5.73768 160.559V147.374L5.51172 153.932V167.117L-5.73768 160.559Z" fill="url(#paint67_linear_306_6576)"/>
<path d="M-5.73768 160.559V147.374L5.51172 153.932V167.117L-5.73768 160.559Z" fill="url(#paint68_linear_306_6576)"/>
<path d="M5.4684 140.796L16.7617 147.373L5.5111 153.933L-5.73885 147.373L5.4684 140.796Z" fill="url(#paint69_linear_306_6576)"/>
<path d="M5.4684 140.796L16.7617 147.373L5.5111 153.933L-5.73885 147.373L5.4684 140.796Z" fill="url(#paint70_radial_306_6576)"/>
<g filter="url(#filter1_i_306_6576)">
<path d="M406.079 279.442L621.177 160.398M621.177 160.398L921.409 337.824C921.83 338.073 922.353 338.068 922.77 337.812L1030.46 271.631M621.177 160.398L323.029 -11.7101C322.172 -12.2044 322.145 -13.4307 322.979 -13.9622L417.434 -74.1783M621.177 160.398L869.241 16.8888" stroke="#DBDBDB" stroke-width="13.1759"/>
</g>
<path d="M590.438 183.92V170.735L579.188 177.292V190.477L590.438 183.92Z" fill="url(#paint71_linear_306_6576)"/>
<path d="M567.938 183.92V170.735L579.188 177.292V190.477L567.938 183.92Z" fill="url(#paint72_linear_306_6576)"/>
<path d="M567.938 183.92V170.735L579.188 177.292V190.477L567.938 183.92Z" fill="url(#paint73_linear_306_6576)"/>
<path d="M579.144 164.158L590.438 170.735L579.187 177.295L567.937 170.735L579.144 164.158Z" fill="url(#paint74_linear_306_6576)"/>
<path d="M579.144 164.158L590.438 170.735L579.187 177.295L567.937 170.735L579.144 164.158Z" fill="url(#paint75_radial_306_6576)"/>
<path d="M686.969 127.166V113.981L675.719 120.539V133.724L686.969 127.166Z" fill="url(#paint76_linear_306_6576)"/>
<path d="M664.469 127.166V113.981L675.719 120.539V133.724L664.469 127.166Z" fill="url(#paint77_linear_306_6576)"/>
<path d="M664.469 127.166V113.981L675.719 120.539V133.724L664.469 127.166Z" fill="url(#paint78_linear_306_6576)"/>
<path d="M675.675 107.405L686.969 113.981L675.718 120.541L664.468 113.982L675.675 107.405Z" fill="url(#paint79_linear_306_6576)"/>
<path d="M675.675 107.405L686.969 113.981L675.718 120.541L664.468 113.982L675.675 107.405Z" fill="url(#paint80_radial_306_6576)"/>
<path d="M821.672 272.656L821.672 259.471L810.422 266.029L810.422 279.214L821.672 272.656Z" fill="url(#paint81_linear_306_6576)"/>
<path d="M799.172 272.656L799.172 259.471L810.422 266.029L810.422 279.214L799.172 272.656Z" fill="url(#paint82_linear_306_6576)"/>
<path d="M799.172 272.656L799.172 259.471L810.422 266.029L810.422 279.214L799.172 272.656Z" fill="url(#paint83_linear_306_6576)"/>
<path d="M810.379 252.894L821.672 259.47L810.421 266.03L799.171 259.471L810.379 252.894Z" fill="url(#paint84_linear_306_6576)"/>
<path d="M810.379 252.894L821.672 259.47L810.421 266.03L799.171 259.471L810.379 252.894Z" fill="url(#paint85_radial_306_6576)"/>
<path d="M656.937 175.709L656.938 162.524L645.688 169.082L645.688 182.267L656.937 175.709Z" fill="url(#paint86_linear_306_6576)"/>
<path d="M634.438 175.709L634.438 162.524L645.687 169.082L645.687 182.267L634.438 175.709Z" fill="url(#paint87_linear_306_6576)"/>
<path d="M634.438 175.709L634.438 162.524L645.687 169.082L645.687 182.267L634.438 175.709Z" fill="url(#paint88_linear_306_6576)"/>
<path d="M645.644 155.946L656.937 162.523L645.687 169.083L634.437 162.523L645.644 155.946Z" fill="url(#paint89_linear_306_6576)"/>
<path d="M645.644 155.946L656.937 162.523L645.687 169.083L634.437 162.523L645.644 155.946Z" fill="url(#paint90_radial_306_6576)"/>
<path d="M712.557 208.078L712.557 194.893L701.307 201.45L701.307 214.635L712.557 208.078Z" fill="url(#paint91_linear_306_6576)"/>
<path d="M690.057 208.078L690.057 194.893L701.307 201.45L701.307 214.635L690.057 208.078Z" fill="url(#paint92_linear_306_6576)"/>
<path d="M690.057 208.078L690.057 194.893L701.307 201.45L701.307 214.635L690.057 208.078Z" fill="url(#paint93_linear_306_6576)"/>
<path d="M701.263 188.315L712.557 194.892L701.306 201.452L690.056 194.892L701.263 188.315Z" fill="url(#paint94_linear_306_6576)"/>
<path d="M701.263 188.315L712.557 194.892L701.306 201.452L690.056 194.892L701.263 188.315Z" fill="url(#paint95_radial_306_6576)"/>
<path d="M772.045 242.922L772.045 229.737L760.796 236.295L760.796 249.48L772.045 242.922Z" fill="url(#paint96_linear_306_6576)"/>
<path d="M749.546 242.922L749.546 229.737L760.795 236.295L760.795 249.48L749.546 242.922Z" fill="url(#paint97_linear_306_6576)"/>
<path d="M749.546 242.922L749.546 229.737L760.795 236.295L760.795 249.48L749.546 242.922Z" fill="url(#paint98_linear_306_6576)"/>
<path d="M760.752 223.159L772.045 229.736L760.794 236.296L749.544 229.736L760.752 223.159Z" fill="url(#paint99_linear_306_6576)"/>
<path d="M760.752 223.159L772.045 229.736L760.794 236.296L749.544 229.736L760.752 223.159Z" fill="url(#paint100_radial_306_6576)"/>
<path d="M607.314 145.975L607.314 132.79L596.065 139.348L596.065 152.533L607.314 145.975Z" fill="url(#paint101_linear_306_6576)"/>
<path d="M584.815 145.975L584.815 132.79L596.064 139.348L596.064 152.533L584.815 145.975Z" fill="url(#paint102_linear_306_6576)"/>
<path d="M584.815 145.975L584.815 132.79L596.064 139.348L596.064 152.533L584.815 145.975Z" fill="url(#paint103_linear_306_6576)"/>
<path d="M596.021 126.212L607.314 132.789L596.064 139.349L584.814 132.789L596.021 126.212Z" fill="url(#paint104_linear_306_6576)"/>
<path d="M596.021 126.212L607.314 132.789L596.064 139.349L584.814 132.789L596.021 126.212Z" fill="url(#paint105_radial_306_6576)"/>
<path d="M548.484 111.244L548.484 98.0588L537.235 104.617L537.235 117.802L548.484 111.244Z" fill="url(#paint106_linear_306_6576)"/>
<path d="M525.985 111.244L525.985 98.0588L537.234 104.617L537.234 117.802L525.985 111.244Z" fill="url(#paint107_linear_306_6576)"/>
<path d="M525.985 111.244L525.985 98.0588L537.234 104.617L537.234 117.802L525.985 111.244Z" fill="url(#paint108_linear_306_6576)"/>
<path d="M537.191 91.481L548.484 98.0577L537.234 104.618L525.984 98.058L537.191 91.481Z" fill="url(#paint109_linear_306_6576)"/>
<path d="M537.191 91.481L548.484 98.0577L537.234 104.618L525.984 98.058L537.191 91.481Z" fill="url(#paint110_radial_306_6576)"/>
<path d="M516.842 226.48L516.842 213.295L505.592 219.853L505.592 233.038L516.842 226.48Z" fill="url(#paint111_linear_306_6576)"/>
<path d="M494.342 226.48L494.342 213.295L505.592 219.852L505.592 233.037L494.342 226.48Z" fill="url(#paint112_linear_306_6576)"/>
<path d="M494.342 226.48L494.342 213.295L505.592 219.852L505.592 233.037L494.342 226.48Z" fill="url(#paint113_linear_306_6576)"/>
<path d="M505.548 206.718L516.842 213.295L505.591 219.855L494.341 213.295L505.548 206.718Z" fill="url(#paint114_linear_306_6576)"/>
<path d="M505.548 206.718L516.842 213.295L505.591 219.855L494.341 213.295L505.548 206.718Z" fill="url(#paint115_radial_306_6576)"/>
<path d="M559.727 202.028L559.727 188.843L548.477 195.401L548.477 208.586L559.727 202.028Z" fill="url(#paint116_linear_306_6576)"/>
<path d="M537.227 202.028L537.227 188.843L548.477 195.401L548.477 208.586L537.227 202.028Z" fill="url(#paint117_linear_306_6576)"/>
<path d="M537.227 202.028L537.227 188.843L548.477 195.401L548.477 208.586L537.227 202.028Z" fill="url(#paint118_linear_306_6576)"/>
<path d="M548.433 182.266L559.727 188.843L548.476 195.403L537.226 188.844L548.433 182.266Z" fill="url(#paint119_linear_306_6576)"/>
<path d="M548.433 182.266L559.727 188.843L548.476 195.403L537.226 188.844L548.433 182.266Z" fill="url(#paint120_radial_306_6576)"/>
<path d="M483.387 73.2675L483.387 60.0825L472.137 66.6403L472.137 79.8253L483.387 73.2675Z" fill="url(#paint121_linear_306_6576)"/>
<path d="M460.887 73.2675L460.887 60.0825L472.137 66.6403L472.137 79.8253L460.887 73.2675Z" fill="url(#paint122_linear_306_6576)"/>
<path d="M460.887 73.2675L460.887 60.0825L472.137 66.6403L472.137 79.8253L460.887 73.2675Z" fill="url(#paint123_linear_306_6576)"/>
<path d="M472.093 53.5061L483.387 60.0828L472.136 66.643L460.886 60.0832L472.093 53.5061Z" fill="url(#paint124_linear_306_6576)"/>
<path d="M472.093 53.5061L483.387 60.0828L472.136 66.643L460.886 60.0832L472.093 53.5061Z" fill="url(#paint125_radial_306_6576)"/>
<path d="M427.242 41.15L427.242 27.9651L415.993 34.5228L415.993 47.7078L427.242 41.15Z" fill="url(#paint126_linear_306_6576)"/>
<path d="M404.743 41.15L404.743 27.9651L415.992 34.5228L415.992 47.7078L404.743 41.15Z" fill="url(#paint127_linear_306_6576)"/>
<path d="M404.743 41.15L404.743 27.9651L415.992 34.5228L415.992 47.7078L404.743 41.15Z" fill="url(#paint128_linear_306_6576)"/>
<path d="M415.949 21.3877L427.242 27.9644L415.992 34.5246L404.742 27.9648L415.949 21.3877Z" fill="url(#paint129_linear_306_6576)"/>
<path d="M415.949 21.3877L427.242 27.9644L415.992 34.5246L404.742 27.9648L415.949 21.3877Z" fill="url(#paint130_radial_306_6576)"/>
<path d="M371.096 9.02504L371.096 -4.15991L359.846 2.39784L359.846 15.5828L371.096 9.02504Z" fill="url(#paint131_linear_306_6576)"/>
<path d="M348.596 9.02504L348.596 -4.15991L359.846 2.39784L359.846 15.5828L348.596 9.02504Z" fill="url(#paint132_linear_306_6576)"/>
<path d="M348.596 9.02504L348.596 -4.15991L359.846 2.39784L359.846 15.5828L348.596 9.02504Z" fill="url(#paint133_linear_306_6576)"/>
<path d="M359.802 -10.7375L371.096 -4.16081L359.845 2.39931L348.595 -4.16046L359.802 -10.7375Z" fill="url(#paint134_linear_306_6576)"/>
<path d="M359.802 -10.7375L371.096 -4.16081L359.845 2.39931L348.595 -4.16046L359.802 -10.7375Z" fill="url(#paint135_radial_306_6576)"/>
<g filter="url(#filter2_i_306_6576)">
<rect width="157.522" height="248.4" rx="3.26133" transform="matrix(0.866025 -0.5 0.866025 0.5 314 227.928)" fill="#C6C6C6"/>
</g>
<rect width="140.225" height="70.176" transform="matrix(-0.864117 0.50329 2.18383e-08 1 648.156 201.075)" fill="#D9D9D9"/>
<rect width="140.225" height="70.176" transform="matrix(-0.864117 0.50329 2.18383e-08 1 648.156 201.075)" fill="url(#paint136_linear_306_6576)"/>
<rect width="228.304" height="70.4154" transform="matrix(-0.864117 -0.50329 -2.18383e-08 1 527.467 271.45)" fill="#D9D9D9"/>
<rect width="228.304" height="70.4154" transform="matrix(-0.864117 -0.50329 -2.18383e-08 1 527.467 271.45)" fill="url(#paint137_linear_306_6576)"/>
<rect width="139.654" height="228.635" transform="matrix(-0.864117 0.50329 0.864118 0.50329 450.647 86.6721)" fill="#D9D9D9"/>
<rect width="139.654" height="228.635" transform="matrix(-0.864117 0.50329 0.864118 0.50329 450.647 86.6721)" fill="url(#paint138_linear_306_6576)"/>
<path fill-rule="evenodd" clip-rule="evenodd" d="M498.313 182.681C488.749 181.59 478.402 177.981 471.257 173.856C461.238 168.071 455.587 160.918 454.368 153.742C454.273 153.178 455.353 153.109 455.654 153.679C459.122 160.18 465.884 166.79 475.289 172.221C481.633 175.883 489.805 179.223 498.698 181.498C500.041 181.841 499.9 182.859 498.313 182.681Z" fill="#FF9900"/>
<path fill-rule="evenodd" clip-rule="evenodd" d="M503.167 182.624C503.288 181.712 498.731 179.599 496.688 178.649C496.063 178.361 496.422 178.054 497.248 178.162C502.615 178.842 507.38 182.291 507.304 183.058C507.225 183.827 501.541 186.198 496.13 185.771C495.299 185.706 495.04 185.335 495.726 185.182C497.984 184.675 503.046 183.541 503.167 182.624Z" fill="#FF9900"/>
<path fill-rule="evenodd" clip-rule="evenodd" d="M512.304 169.783L514.34 168.607C514.648 168.429 515.112 168.459 515.421 168.637L525.445 174.424C525.766 174.61 525.813 174.88 525.509 175.056L523.766 176.062C523.469 176.228 522.816 176.293 521.732 176.365L509.794 177.259C511.767 178.349 513.543 179.676 514.396 181.204C514.588 181.549 514.399 181.782 514.136 181.968L511.964 183.222C511.668 183.394 510.96 183.386 510.762 183.064C509.149 180.435 505.213 177.978 500.157 176.959C499.638 176.858 499.617 176.449 499.913 176.278L501.976 175.087C502.308 174.896 502.877 174.572 503.745 174.492L517.61 173.435L512.373 170.412C512.051 170.226 512 169.958 512.304 169.783Z" fill="#221F1F"/>
<path fill-rule="evenodd" clip-rule="evenodd" d="M463.035 156.003L459.985 154.243C459.713 154.063 459.681 153.814 459.913 153.656L474.144 145.439C474.429 145.275 474.916 145.295 475.242 145.484L478.086 147.125C478.37 147.303 478.399 147.559 478.164 147.72L476.303 148.794L476.359 148.826C478.899 148.216 481.131 148.537 483.01 149.621C484.919 150.723 485.272 151.896 484.332 153.429C486.868 152.817 489.383 153.301 491.181 154.339C492.459 155.077 493.377 156.161 493.154 157.275C492.922 158.524 490.985 159.414 489.46 160.294L480.474 165.478C480.19 165.642 479.698 165.624 479.372 165.436L476.327 163.677C476.042 163.49 476.019 163.221 476.293 163.063L483.835 158.708C484.436 158.362 485.993 157.532 486.417 157.119C487.145 156.436 486.732 155.887 485.849 155.377C485.111 154.951 483.891 154.764 482.86 154.997C481.829 155.231 480.658 155.942 479.851 156.408L472.308 160.763C472.023 160.927 471.532 160.909 471.206 160.721L468.16 158.962C467.871 158.773 467.853 158.506 468.126 158.348L475.665 153.991C477.252 153.075 479.875 151.892 477.709 150.641C475.518 149.376 473.326 150.74 471.68 151.691L464.137 156.045C463.853 156.21 463.361 156.192 463.035 156.003Z" fill="#221F1F"/>
<path fill-rule="evenodd" clip-rule="evenodd" d="M532.238 195.962L529.201 194.208C528.916 194.021 528.894 193.752 529.167 193.594L543.398 185.373C543.685 185.237 544.141 185.266 544.45 185.444L547.276 187.076C547.531 187.236 547.586 187.457 547.423 187.62L545.247 188.877L545.303 188.909C548.102 188.278 550.227 188.433 552.333 189.649C553.701 190.439 554.587 191.468 554.216 192.673C553.875 193.791 551.96 194.896 550.583 195.691L541.625 200.863C541.341 200.987 540.889 200.956 540.589 200.783L537.531 199.017C537.272 198.845 537.227 198.603 537.439 198.446L545.169 193.983C546.725 193.085 549.2 191.884 547.094 190.668C546.352 190.24 545.218 190.107 544.192 190.308C542.894 190.562 541.972 191.03 541.013 191.584L533.349 196.009C533.06 196.17 532.564 196.15 532.238 195.962" fill="#221F1F"/>
<path fill-rule="evenodd" clip-rule="evenodd" d="M534.914 179.591C539.439 182.203 538.354 185.657 533.861 188.251C529.521 190.758 523.371 191.183 519.103 188.719C514.659 186.154 515.774 182.717 520.177 180.175C524.608 177.617 530.5 177.043 534.914 179.591ZM532.034 181.283C529.786 179.986 526.86 181.512 525.125 182.514C523.385 183.518 519.642 185.644 522.036 187.026C524.399 188.391 527.506 186.726 529.331 185.672C530.532 184.978 531.912 184.117 532.652 183.23C533.299 182.46 533.003 181.843 532.034 181.283Z" fill="#221F1F"/>
<path fill-rule="evenodd" clip-rule="evenodd" d="M498.405 168.575C497.325 169.199 496.454 169.736 494.894 169.943C493.63 170.114 492.378 169.945 491.524 169.452C490.353 168.776 490.478 167.912 491.676 167.221C494.039 165.856 496.797 166.953 499.006 168.228L498.405 168.575ZM494.722 174.253C494.356 174.231 494.053 174.069 493.935 173.875C493.687 172.849 493.858 172.538 494.034 171.797C490.809 171.728 489.157 171.31 486.991 170.059C484.421 168.576 483.866 166.594 486.748 164.93C488.999 163.63 491.87 163.518 494.531 164.19C496.85 164.763 499.279 166.03 501.229 166.945L501.588 166.738C502.247 166.357 503.083 165.939 503.223 165.363C503.365 164.855 502.864 164.322 502.233 163.958C501.071 163.287 499.495 163.003 498.119 163.506C497.818 163.62 497.371 163.645 497.08 163.491L494.414 161.618C494.216 161.445 494.12 161.179 494.54 161.02C498.478 159.529 502.704 160.834 505.603 162.508C507.087 163.365 508.667 164.691 508.816 165.957C509.04 167.541 507.218 168.43 505.389 169.486L501.067 171.981C499.769 172.731 499.791 173.401 499.647 174.128C499.59 174.384 499.333 174.582 498.897 174.546C497.803 174.46 495.819 174.328 494.718 174.26L494.722 174.253" fill="#221F1F"/>
<path fill-rule="evenodd" clip-rule="evenodd" d="M458.427 145.495C457.347 146.119 456.476 146.656 454.916 146.864C453.651 147.034 452.404 146.868 451.546 146.373C450.375 145.697 450.504 144.835 451.702 144.143C454.065 142.779 456.823 143.876 459.027 145.148L458.427 145.495ZM454.743 151.173C454.378 151.151 454.075 150.989 453.956 150.795C453.709 149.769 453.883 149.461 454.055 148.718C450.83 148.648 449.182 148.232 447.012 146.979C444.447 145.499 443.888 143.514 446.77 141.85C449.02 140.551 451.895 140.441 454.553 141.11C456.871 141.683 459.3 142.951 461.251 143.865L461.609 143.658C462.268 143.277 463.104 142.859 463.249 142.285C463.387 141.775 462.885 141.242 462.259 140.881C461.097 140.21 459.517 139.923 458.141 140.426C457.839 140.54 457.392 140.566 457.106 140.414L454.435 138.539C454.237 138.366 454.146 138.101 454.562 137.941C458.504 136.452 462.725 137.754 465.624 139.428C467.108 140.285 468.688 141.611 468.837 142.877C469.062 144.461 467.239 145.35 465.41 146.406L461.089 148.901C459.79 149.651 459.813 150.321 459.668 151.049C459.616 151.307 459.358 151.505 458.922 151.469C457.829 151.383 455.845 151.25 454.744 151.182L454.743 151.173" fill="#221F1F"/>
<path d="M446.57 176.688L444.066 175.242L445.381 174.483L447.884 175.929C448.32 176.181 448.743 176.343 449.153 176.417C449.562 176.491 449.952 176.492 450.322 176.421C450.701 176.35 451.051 176.221 451.372 176.036C451.676 175.86 451.896 175.659 452.033 175.433C452.178 175.207 452.198 174.969 452.092 174.72C451.987 174.471 451.716 174.22 451.28 173.969L449.285 172.817L440.988 177.607L439.33 176.65L448.948 171.097L452.601 173.206C453.345 173.635 453.845 174.077 454.1 174.529C454.365 174.982 454.402 175.42 454.213 175.845C454.028 176.267 453.64 176.648 453.05 176.989C452.429 177.348 451.76 177.577 451.042 177.676C450.324 177.775 449.584 177.742 448.822 177.577C448.065 177.414 447.314 177.118 446.57 176.688ZM455.197 179.129L449.41 182.47L447.818 181.551L454.966 177.424L456.485 178.301L455.197 179.129ZM458.791 179.579L457.298 180.426C457.218 180.359 457.126 180.291 457.02 180.22C456.919 180.151 456.813 180.085 456.703 180.021C456.43 179.864 456.15 179.748 455.864 179.674C455.582 179.598 455.298 179.561 455.012 179.564C454.735 179.566 454.457 179.604 454.18 179.678C453.902 179.752 453.631 179.857 453.367 179.995L452.977 179.8C453.427 179.541 453.887 179.326 454.358 179.155C454.829 178.985 455.298 178.867 455.765 178.801C456.236 178.737 456.688 178.736 457.119 178.797C457.555 178.861 457.952 178.995 458.308 179.201C458.405 179.257 458.5 179.322 458.592 179.396C458.689 179.472 458.755 179.533 458.791 179.579ZM455.613 182.016L455.765 181.928C456.28 181.631 456.833 181.398 457.423 181.23C458.018 181.06 458.619 180.962 459.227 180.937C459.843 180.911 460.446 180.965 461.037 181.097C461.636 181.229 462.195 181.445 462.714 181.745C463.239 182.048 463.613 182.371 463.837 182.714C464.071 183.057 464.166 183.407 464.122 183.763C464.082 184.116 463.915 184.464 463.62 184.808C463.329 185.148 462.926 185.468 462.411 185.765L462.259 185.853C461.743 186.15 461.191 186.383 460.601 186.551C460.01 186.718 459.407 186.815 458.791 186.841C458.178 186.863 457.575 186.81 456.981 186.68C456.39 186.548 455.836 186.332 455.316 186.032C454.792 185.729 454.413 185.406 454.18 185.063C453.955 184.72 453.863 184.372 453.902 184.018C453.946 183.662 454.114 183.314 454.404 182.973C454.695 182.633 455.098 182.313 455.613 182.016ZM457.357 182.847L457.205 182.935C456.884 183.121 456.613 183.315 456.393 183.519C456.172 183.722 456.025 183.927 455.95 184.133C455.875 184.339 455.886 184.541 455.983 184.739C456.08 184.937 456.28 185.124 456.584 185.3C456.879 185.47 457.196 185.582 457.535 185.635C457.879 185.691 458.229 185.698 458.586 185.654C458.943 185.611 459.297 185.526 459.649 185.399C460.006 185.274 460.345 185.119 460.667 184.934L460.819 184.846C461.136 184.663 461.4 184.47 461.611 184.266C461.832 184.063 461.979 183.856 462.054 183.644C462.133 183.436 462.124 183.233 462.027 183.034C461.939 182.836 461.746 182.65 461.446 182.477C461.147 182.305 460.823 182.191 460.475 182.138C460.136 182.085 459.786 182.081 459.425 182.127C459.064 182.172 458.707 182.259 458.355 182.386C458.007 182.51 457.674 182.664 457.357 182.847ZM465.938 190.304L474.605 185.3L476.204 186.223L466.057 192.081L464.61 191.246L465.938 190.304ZM463.302 186.455L463.441 186.375C463.983 186.062 464.54 185.815 465.112 185.632C465.689 185.446 466.26 185.33 466.823 185.284C467.391 185.236 467.935 185.263 468.455 185.365C468.979 185.464 469.459 185.639 469.895 185.891C470.327 186.14 470.622 186.407 470.78 186.692C470.939 186.977 470.976 187.275 470.893 187.588C470.813 187.898 470.626 188.217 470.331 188.545C470.04 188.871 469.662 189.201 469.195 189.537L468.752 189.792C468.184 190.054 467.62 190.268 467.061 190.433C466.502 190.599 465.954 190.704 465.416 190.75C464.879 190.796 464.362 190.771 463.864 190.677C463.371 190.586 462.906 190.414 462.47 190.162C462.038 189.913 461.739 189.636 461.572 189.331C461.409 189.028 461.369 188.713 461.453 188.385C461.536 188.057 461.735 187.729 462.047 187.401C462.364 187.071 462.783 186.755 463.302 186.455ZM465.033 187.294L464.894 187.374C464.569 187.563 464.293 187.755 464.069 187.95C463.849 188.149 463.694 188.347 463.606 188.545C463.523 188.741 463.52 188.933 463.6 189.121C463.688 189.309 463.875 189.486 464.161 189.651C464.522 189.86 464.899 189.986 465.291 190.029C465.683 190.072 466.079 190.054 466.48 189.976C466.889 189.897 467.286 189.775 467.669 189.609L468.865 188.919C469.098 188.754 469.285 188.582 469.426 188.404C469.571 188.229 469.659 188.053 469.69 187.878C469.726 187.7 469.688 187.526 469.578 187.355C469.477 187.185 469.29 187.021 469.017 186.863C468.726 186.696 468.418 186.589 468.092 186.543C467.766 186.497 467.429 186.499 467.081 186.547C466.737 186.598 466.392 186.688 466.044 186.818C465.696 186.947 465.359 187.106 465.033 187.294ZM473.707 194.552L479.17 191.398L480.768 192.321L473.621 196.448L472.115 195.578L473.707 194.552ZM475.418 193.824L475.966 194.125C475.486 194.402 474.99 194.627 474.48 194.8C473.973 194.971 473.46 195.079 472.94 195.124C472.425 195.168 471.912 195.138 471.401 195.037C470.895 194.932 470.402 194.742 469.922 194.465C469.574 194.264 469.305 194.05 469.116 193.824C468.926 193.598 468.832 193.362 468.832 193.118C468.836 192.877 468.95 192.625 469.175 192.363C469.4 192.101 469.748 191.834 470.219 191.562L474.836 188.896L476.428 189.815L471.798 192.489C471.538 192.639 471.351 192.783 471.236 192.92C471.126 193.055 471.071 193.183 471.071 193.305C471.071 193.427 471.119 193.542 471.216 193.648C471.313 193.755 471.441 193.854 471.599 193.946C472.053 194.208 472.498 194.363 472.934 194.411C473.379 194.459 473.808 194.428 474.222 194.316C474.64 194.206 475.039 194.042 475.418 193.824ZM479.308 198.42C479.568 198.57 479.852 198.675 480.161 198.736C480.478 198.797 480.793 198.811 481.105 198.778C481.422 198.748 481.709 198.666 481.964 198.534L483.464 199.4C482.992 199.662 482.435 199.826 481.792 199.892C481.149 199.958 480.498 199.93 479.837 199.808C479.181 199.683 478.588 199.468 478.06 199.163C477.514 198.848 477.131 198.52 476.911 198.179C476.695 197.836 476.618 197.492 476.679 197.146C476.741 196.8 476.919 196.463 477.214 196.135C477.514 195.81 477.91 195.504 478.403 195.22L478.635 195.086C479.128 194.801 479.656 194.573 480.22 194.4C480.793 194.227 481.378 194.123 481.977 194.087C482.576 194.051 483.171 194.097 483.761 194.224C484.355 194.349 484.923 194.568 485.465 194.88C486.038 195.211 486.425 195.567 486.628 195.948C486.835 196.327 486.859 196.705 486.7 197.081C486.551 197.457 486.214 197.802 485.69 198.114L484.19 197.249C484.441 197.089 484.613 196.913 484.705 196.722C484.807 196.532 484.816 196.338 484.732 196.143C484.653 195.949 484.468 195.769 484.177 195.601C483.856 195.415 483.523 195.3 483.18 195.254C482.84 195.206 482.499 195.212 482.156 195.273C481.817 195.332 481.482 195.426 481.152 195.555C480.83 195.685 480.522 195.835 480.227 196.005L479.995 196.139C479.7 196.309 479.438 196.488 479.209 196.677C478.98 196.865 478.815 197.057 478.714 197.253C478.621 197.448 478.615 197.645 478.694 197.844C478.778 198.039 478.983 198.231 479.308 198.42ZM492.745 199.236L491.582 199.907L487.553 197.581L488.715 196.909L492.745 199.236ZM491.628 196.57L493.22 197.489L486.298 201.486C486.077 201.613 485.939 201.729 485.881 201.833C485.833 201.937 485.846 202.034 485.921 202.123C485.996 202.212 486.11 202.301 486.264 202.39C486.375 202.453 486.487 202.511 486.601 202.561C486.716 202.612 486.811 202.652 486.885 202.68L485.677 203.385C485.505 203.332 485.315 203.263 485.108 203.179C484.906 203.098 484.692 202.992 484.468 202.863C484.102 202.652 483.842 202.428 483.688 202.192C483.538 201.953 483.532 201.702 483.668 201.44C483.805 201.178 484.118 200.906 484.606 200.624L491.628 196.57Z" fill="#151515"/>
<g filter="url(#filter3_i_306_6576)">
<rect width="105.884" height="166.971" rx="2.19222" transform="matrix(0.866025 -0.5 0.866025 0.5 370.393 166.223)" fill="#C6C6C6"/>
</g>
<rect width="94.2575" height="47.1713" transform="matrix(-0.864117 0.50329 2.18383e-08 1 596.146 150.701)" fill="#D9D9D9"/>
<rect width="94.2575" height="47.1713" transform="matrix(-0.864117 0.50329 2.18383e-08 1 596.146 150.701)" fill="url(#paint139_linear_306_6576)"/>
<rect width="153.463" height="47.3322" transform="matrix(-0.864117 -0.50329 -2.18383e-08 1 515.017 198.006)" fill="#D9D9D9"/>
<rect width="153.463" height="47.3322" transform="matrix(-0.864117 -0.50329 -2.18383e-08 1 515.017 198.006)" fill="url(#paint140_linear_306_6576)"/>
<rect width="93.8736" height="153.685" transform="matrix(-0.864117 0.50329 0.864118 0.50329 463.381 73.8013)" fill="#D9D9D9"/>
<rect width="93.8736" height="153.685" transform="matrix(-0.864117 0.50329 0.864118 0.50329 463.381 73.8013)" fill="url(#paint141_linear_306_6576)"/>
<path fill-rule="evenodd" clip-rule="evenodd" d="M495.243 138.439C488.815 137.707 481.86 135.28 477.057 132.507C470.322 128.619 466.524 123.811 465.704 118.987C465.64 118.608 466.367 118.562 466.568 118.945C468.9 123.315 473.445 127.758 479.767 131.408C484.031 133.87 489.524 136.115 495.502 137.644C496.405 137.875 496.31 138.559 495.243 138.439Z" fill="#FF9900"/>
<path fill-rule="evenodd" clip-rule="evenodd" d="M498.506 138.401C498.587 137.788 495.524 136.368 494.15 135.729C493.731 135.535 493.972 135.33 494.527 135.402C498.135 135.859 501.338 138.178 501.287 138.693C501.233 139.21 497.413 140.803 493.775 140.517C493.217 140.473 493.043 140.224 493.504 140.121C495.022 139.78 498.425 139.017 498.506 138.401Z" fill="#FF9900"/>
<path fill-rule="evenodd" clip-rule="evenodd" d="M504.648 129.77L506.016 128.98C506.224 128.86 506.535 128.88 506.743 128.999L513.481 132.889C513.697 133.014 513.728 133.196 513.524 133.314L512.352 133.991C512.153 134.102 511.714 134.146 510.985 134.194L502.961 134.795C504.287 135.528 505.481 136.42 506.054 137.447C506.183 137.679 506.056 137.835 505.879 137.961L504.419 138.804C504.22 138.919 503.744 138.914 503.611 138.697C502.527 136.93 499.881 135.278 496.483 134.594C496.134 134.526 496.119 134.251 496.319 134.136L497.705 133.335C497.928 133.206 498.311 132.989 498.894 132.935L508.214 132.225L504.694 130.193C504.478 130.068 504.443 129.888 504.648 129.77Z" fill="#221F1F"/>
<path fill-rule="evenodd" clip-rule="evenodd" d="M471.529 120.507L469.48 119.324C469.297 119.203 469.275 119.036 469.431 118.929L478.997 113.406C479.188 113.296 479.516 113.31 479.735 113.436L481.647 114.54C481.838 114.659 481.857 114.831 481.699 114.939L480.448 115.661L480.486 115.683C482.193 115.273 483.694 115.488 484.956 116.218C486.239 116.958 486.477 117.746 485.845 118.777C487.55 118.366 489.241 118.691 490.449 119.388C491.308 119.884 491.925 120.613 491.775 121.362C491.619 122.201 490.317 122.8 489.292 123.392L483.252 126.876C483.061 126.986 482.73 126.974 482.511 126.848L480.464 125.666C480.272 125.54 480.257 125.359 480.441 125.253L485.511 122.326C485.915 122.093 486.962 121.535 487.247 121.257C487.736 120.798 487.459 120.429 486.865 120.086C486.369 119.8 485.548 119.674 484.855 119.831C484.163 119.988 483.375 120.466 482.833 120.779L477.763 123.707C477.571 123.817 477.241 123.805 477.022 123.678L474.975 122.496C474.78 122.369 474.768 122.19 474.952 122.084L480.019 119.155C481.086 118.539 482.849 117.744 481.393 116.903C479.92 116.052 478.447 116.97 477.341 117.608L472.27 120.536C472.079 120.646 471.749 120.634 471.529 120.507Z" fill="#221F1F"/>
<path fill-rule="evenodd" clip-rule="evenodd" d="M518.047 147.367L516.006 146.188C515.814 146.062 515.799 145.881 515.983 145.775L525.549 140.249C525.742 140.158 526.048 140.177 526.256 140.297L528.156 141.394C528.326 141.502 528.363 141.65 528.254 141.76L526.791 142.604L526.829 142.626C528.711 142.202 530.139 142.306 531.555 143.123C532.474 143.654 533.07 144.346 532.82 145.156C532.591 145.907 531.304 146.65 530.379 147.185L524.357 150.661C524.166 150.745 523.862 150.724 523.66 150.607L521.605 149.421C521.43 149.305 521.401 149.142 521.543 149.037L526.739 146.037C527.785 145.433 529.448 144.626 528.033 143.808C527.534 143.52 526.772 143.431 526.082 143.566C525.21 143.737 524.59 144.052 523.945 144.424L518.794 147.398C518.6 147.507 518.266 147.493 518.047 147.367" fill="#221F1F"/>
<path fill-rule="evenodd" clip-rule="evenodd" d="M519.845 136.363C522.887 138.119 522.158 140.441 519.138 142.184C516.22 143.869 512.086 144.155 509.217 142.499C506.231 140.774 506.98 138.464 509.939 136.755C512.918 135.036 516.879 134.65 519.845 136.363ZM517.91 137.5C516.399 136.628 514.432 137.654 513.265 138.327C512.096 139.002 509.58 140.432 511.189 141.36C512.777 142.278 514.866 141.158 516.093 140.45C516.9 139.984 517.827 139.405 518.325 138.809C518.76 138.291 518.561 137.876 517.91 137.5Z" fill="#221F1F"/>
<path fill-rule="evenodd" clip-rule="evenodd" d="M495.305 128.958C494.579 129.377 493.994 129.738 492.945 129.878C492.095 129.992 491.254 129.879 490.68 129.548C489.893 129.093 489.977 128.512 490.782 128.047C492.37 127.13 494.224 127.868 495.709 128.725L495.305 128.958ZM492.829 132.774C492.584 132.76 492.38 132.651 492.3 132.52C492.134 131.831 492.248 131.622 492.367 131.124C490.199 131.077 489.088 130.796 487.632 129.956C485.906 128.958 485.532 127.626 487.47 126.507C488.982 125.634 490.912 125.559 492.701 126.01C494.26 126.396 495.892 127.247 497.203 127.862L497.445 127.723C497.888 127.467 498.449 127.186 498.544 126.799C498.639 126.457 498.302 126.099 497.878 125.854C497.097 125.403 496.038 125.213 495.113 125.55C494.91 125.627 494.61 125.644 494.415 125.541L492.622 124.282C492.489 124.165 492.425 123.986 492.707 123.88C495.354 122.877 498.194 123.754 500.143 124.88C501.141 125.456 502.203 126.347 502.303 127.198C502.454 128.263 501.229 128.86 499.999 129.57L497.095 131.247C496.222 131.751 496.237 132.202 496.14 132.691C496.102 132.862 495.929 132.996 495.636 132.972C494.9 132.914 493.567 132.825 492.827 132.779L492.829 132.774" fill="#221F1F"/>
<path fill-rule="evenodd" clip-rule="evenodd" d="M468.432 113.444C467.706 113.863 467.121 114.224 466.072 114.364C465.222 114.478 464.384 114.367 463.807 114.034C463.02 113.579 463.107 113 463.912 112.535C465.5 111.618 467.354 112.355 468.836 113.211L468.432 113.444ZM465.956 117.26C465.711 117.246 465.507 117.137 465.427 117.007C465.261 116.317 465.378 116.109 465.494 115.61C463.326 115.563 462.218 115.284 460.759 114.442C459.035 113.446 458.659 112.112 460.597 110.994C462.109 110.12 464.042 110.046 465.828 110.497C467.387 110.882 469.019 111.733 470.33 112.348L470.571 112.209C471.015 111.953 471.576 111.672 471.674 111.286C471.766 110.943 471.429 110.585 471.008 110.342C470.227 109.891 469.165 109.699 468.24 110.036C468.037 110.113 467.737 110.13 467.544 110.028L465.749 108.768C465.616 108.652 465.555 108.474 465.834 108.366C468.484 107.365 471.321 108.24 473.27 109.366C474.268 109.942 475.33 110.833 475.43 111.684C475.581 112.749 474.356 113.346 473.126 114.056L470.222 115.733C469.349 116.237 469.364 116.688 469.267 117.177C469.232 117.35 469.058 117.483 468.765 117.46C468.03 117.401 466.697 117.312 465.957 117.267L465.956 117.26" fill="#221F1F"/>
<path d="M460.519 134.378L458.836 133.406L459.72 132.896L461.403 133.868C461.696 134.037 461.98 134.146 462.256 134.196C462.531 134.245 462.793 134.246 463.041 134.198C463.296 134.151 463.531 134.064 463.748 133.939C463.952 133.822 464.1 133.686 464.192 133.534C464.289 133.382 464.303 133.222 464.232 133.055C464.16 132.887 463.978 132.719 463.685 132.55L462.344 131.776L456.767 134.996L455.653 134.352L462.118 130.62L464.573 132.037C465.074 132.326 465.41 132.623 465.581 132.927C465.759 133.231 465.784 133.526 465.657 133.811C465.533 134.095 465.272 134.351 464.875 134.58C464.458 134.821 464.008 134.975 463.525 135.042C463.043 135.108 462.546 135.086 462.034 134.975C461.524 134.866 461.02 134.667 460.519 134.378ZM466.318 136.019L462.429 138.264L461.359 137.646L466.163 134.873L467.184 135.462L466.318 136.019ZM468.734 136.321L467.731 136.89C467.677 136.846 467.615 136.8 467.544 136.752C467.476 136.706 467.405 136.661 467.331 136.618C467.147 136.512 466.959 136.435 466.767 136.385C466.578 136.334 466.387 136.309 466.194 136.311C466.008 136.313 465.821 136.338 465.635 136.388C465.448 136.437 465.266 136.508 465.089 136.601L464.827 136.47C465.128 136.295 465.438 136.151 465.755 136.037C466.071 135.922 466.387 135.843 466.7 135.798C467.017 135.755 467.321 135.755 467.611 135.796C467.904 135.838 468.17 135.929 468.41 136.067C468.475 136.105 468.539 136.148 468.601 136.198C468.666 136.249 468.71 136.29 468.734 136.321ZM466.598 137.959L466.7 137.9C467.047 137.7 467.418 137.544 467.815 137.431C468.215 137.317 468.619 137.251 469.027 137.234C469.442 137.217 469.847 137.253 470.244 137.341C470.646 137.43 471.022 137.576 471.372 137.777C471.724 137.981 471.976 138.198 472.127 138.428C472.283 138.659 472.347 138.894 472.317 139.133C472.291 139.371 472.178 139.605 471.98 139.836C471.785 140.065 471.514 140.279 471.167 140.479L471.065 140.538C470.719 140.738 470.347 140.895 469.951 141.007C469.554 141.12 469.148 141.185 468.734 141.202C468.323 141.218 467.917 141.182 467.517 141.095C467.121 141.006 466.748 140.86 466.398 140.659C466.046 140.455 465.792 140.238 465.635 140.008C465.484 139.777 465.422 139.543 465.448 139.305C465.478 139.066 465.59 138.832 465.786 138.603C465.981 138.374 466.252 138.159 466.598 137.959ZM467.771 138.518L467.668 138.577C467.452 138.702 467.27 138.833 467.122 138.969C466.974 139.106 466.875 139.244 466.825 139.382C466.774 139.521 466.782 139.656 466.847 139.79C466.912 139.923 467.047 140.049 467.251 140.167C467.449 140.281 467.662 140.356 467.89 140.392C468.121 140.43 468.357 140.434 468.596 140.405C468.836 140.376 469.074 140.319 469.311 140.233C469.551 140.149 469.779 140.045 469.995 139.92L470.097 139.861C470.31 139.738 470.488 139.609 470.63 139.472C470.778 139.335 470.877 139.196 470.928 139.054C470.981 138.914 470.975 138.777 470.91 138.644C470.851 138.51 470.72 138.386 470.519 138.269C470.318 138.153 470.1 138.077 469.866 138.041C469.638 138.005 469.403 138.003 469.16 138.034C468.918 138.064 468.678 138.122 468.441 138.208C468.207 138.292 467.984 138.395 467.771 138.518ZM473.539 143.53L479.364 140.167L480.439 140.787L473.618 144.725L472.646 144.163L473.539 143.53ZM471.767 140.943L471.86 140.89C472.224 140.679 472.599 140.513 472.984 140.39C473.371 140.265 473.755 140.187 474.134 140.156C474.515 140.124 474.881 140.142 475.23 140.21C475.583 140.277 475.905 140.395 476.198 140.564C476.488 140.731 476.687 140.911 476.793 141.102C476.9 141.294 476.925 141.495 476.869 141.705C476.816 141.913 476.69 142.128 476.491 142.348C476.296 142.567 476.041 142.789 475.728 143.015L475.43 143.187C475.048 143.363 474.669 143.506 474.293 143.617C473.917 143.728 473.549 143.799 473.188 143.83C472.827 143.861 472.479 143.845 472.144 143.781C471.813 143.72 471.5 143.604 471.207 143.435C470.917 143.268 470.716 143.081 470.603 142.876C470.494 142.673 470.467 142.461 470.524 142.241C470.58 142.02 470.713 141.8 470.923 141.579C471.136 141.357 471.418 141.145 471.767 140.943ZM472.93 141.507L472.837 141.561C472.618 141.688 472.433 141.817 472.282 141.948C472.134 142.082 472.03 142.215 471.971 142.348C471.915 142.48 471.913 142.609 471.967 142.735C472.026 142.862 472.152 142.981 472.344 143.092C472.587 143.232 472.84 143.316 473.103 143.345C473.367 143.375 473.633 143.363 473.903 143.31C474.178 143.257 474.444 143.175 474.702 143.063L475.506 142.599C475.663 142.488 475.788 142.373 475.883 142.253C475.981 142.135 476.04 142.018 476.061 141.9C476.084 141.78 476.059 141.663 475.985 141.548C475.917 141.434 475.791 141.324 475.608 141.218C475.412 141.105 475.205 141.033 474.986 141.002C474.767 140.972 474.541 140.972 474.307 141.005C474.076 141.039 473.843 141.1 473.61 141.187C473.376 141.274 473.149 141.381 472.93 141.507ZM478.76 146.386L482.433 144.266L483.507 144.886L478.703 147.66L477.69 147.076L478.76 146.386ZM479.911 145.896L480.279 146.099C479.956 146.285 479.623 146.436 479.28 146.553C478.94 146.667 478.595 146.74 478.245 146.771C477.899 146.8 477.554 146.78 477.211 146.712C476.87 146.641 476.539 146.513 476.216 146.327C475.982 146.192 475.802 146.048 475.674 145.896C475.547 145.744 475.483 145.586 475.483 145.422C475.486 145.26 475.563 145.09 475.714 144.914C475.865 144.738 476.099 144.559 476.416 144.376L479.52 142.584L480.59 143.202L477.477 144.999C477.303 145.1 477.177 145.196 477.1 145.289C477.026 145.379 476.989 145.466 476.989 145.548C476.989 145.63 477.021 145.707 477.086 145.778C477.152 145.85 477.237 145.917 477.344 145.978C477.649 146.154 477.948 146.259 478.241 146.291C478.54 146.324 478.829 146.302 479.107 146.227C479.388 146.154 479.656 146.043 479.911 145.896ZM482.526 148.986C482.701 149.086 482.891 149.157 483.099 149.198C483.312 149.239 483.524 149.249 483.734 149.227C483.947 149.206 484.139 149.151 484.311 149.062L485.319 149.644C485.002 149.82 484.628 149.931 484.195 149.975C483.763 150.02 483.325 150.001 482.881 149.919C482.44 149.835 482.042 149.691 481.687 149.485C481.32 149.274 481.062 149.053 480.914 148.824C480.769 148.593 480.717 148.362 480.759 148.129C480.8 147.897 480.92 147.67 481.118 147.45C481.32 147.231 481.586 147.026 481.918 146.835L482.073 146.745C482.405 146.553 482.76 146.4 483.139 146.283C483.524 146.167 483.917 146.097 484.32 146.073C484.722 146.049 485.122 146.08 485.519 146.166C485.918 146.249 486.3 146.396 486.664 146.606C487.049 146.829 487.31 147.068 487.446 147.324C487.585 147.579 487.601 147.833 487.495 148.086C487.394 148.339 487.168 148.57 486.815 148.78L485.807 148.198C485.976 148.091 486.092 147.973 486.154 147.845C486.222 147.717 486.228 147.587 486.171 147.455C486.118 147.325 485.994 147.204 485.798 147.091C485.582 146.966 485.359 146.888 485.128 146.858C484.9 146.825 484.671 146.83 484.44 146.871C484.212 146.91 483.987 146.973 483.765 147.06C483.549 147.147 483.341 147.248 483.143 147.363L482.988 147.452C482.789 147.567 482.613 147.687 482.459 147.814C482.305 147.94 482.194 148.069 482.126 148.201C482.064 148.333 482.06 148.465 482.113 148.598C482.169 148.73 482.307 148.859 482.526 148.986ZM491.558 149.534L490.776 149.985L488.067 148.422L488.849 147.97L491.558 149.534ZM490.807 147.742L491.877 148.36L487.224 151.047C487.076 151.132 486.983 151.21 486.944 151.28C486.912 151.35 486.92 151.415 486.971 151.475C487.021 151.535 487.098 151.594 487.202 151.654C487.276 151.697 487.351 151.735 487.428 151.77C487.505 151.804 487.569 151.83 487.619 151.849L486.806 152.323C486.691 152.288 486.564 152.241 486.425 152.185C486.288 152.13 486.145 152.059 485.994 151.972C485.748 151.83 485.573 151.68 485.47 151.521C485.369 151.36 485.365 151.192 485.457 151.016C485.548 150.84 485.758 150.657 486.087 150.467L490.807 147.742Z" fill="#151515"/>
<g filter="url(#filter4_i_306_6576)">
<rect width="61.5276" height="97.0243" rx="1.27386" transform="matrix(0.866025 -0.5 0.866025 0.5 420.194 127.932)" fill="#C6C6C6"/>
</g>
<rect width="54.7715" height="27.4105" transform="matrix(-0.864117 0.50329 2.18383e-08 1 551.468 118.314)" fill="#D9D9D9"/>
<rect width="54.7715" height="27.4105" transform="matrix(-0.864117 0.50329 2.18383e-08 1 551.468 118.314)" fill="url(#paint142_linear_306_6576)"/>
<rect width="89.1748" height="27.504" transform="matrix(-0.864117 -0.50329 -2.18383e-08 1 504.325 145.802)" fill="#D9D9D9"/>
<rect width="89.1748" height="27.504" transform="matrix(-0.864117 -0.50329 -2.18383e-08 1 504.325 145.802)" fill="url(#paint143_linear_306_6576)"/>
<rect width="54.5484" height="89.3041" transform="matrix(-0.864117 0.50329 0.864118 0.50329 474.321 73.6284)" fill="#D9D9D9"/>
<rect width="54.5484" height="89.3041" transform="matrix(-0.864117 0.50329 0.864118 0.50329 474.321 73.6284)" fill="url(#paint144_linear_306_6576)"/>
</g>
<defs>
<filter id="filter0_i_306_6576" x="-115.418" y="132.459" width="791.425" height="472.341" filterUnits="userSpaceOnUse" color-interpolation-filters="sRGB">
<feFlood flood-opacity="0" result="BackgroundImageFix"/>
<feBlend mode="normal" in="SourceGraphic" in2="BackgroundImageFix" result="shape"/>
<feColorMatrix in="SourceAlpha" type="matrix" values="0 0 0 0 0 0 0 0 0 0 0 0 0 0 0 0 0 0 127 0" result="hardAlpha"/>
<feOffset dy="1.31759"/>
<feComposite in2="hardAlpha" operator="arithmetic" k2="-1" k3="1"/>
<feColorMatrix type="matrix" values="0 0 0 0 0 0 0 0 0 0 0 0 0 0 0 0 0 0 0.1 0"/>
<feBlend mode="normal" in2="shape" result="effect1_innerShadow_306_6576"/>
</filter>
<filter id="filter1_i_306_6576" x="315.782" y="-79.7334" width="718.125" height="424.329" filterUnits="userSpaceOnUse" color-interpolation-filters="sRGB">
<feFlood flood-opacity="0" result="BackgroundImageFix"/>
<feBlend mode="normal" in="SourceGraphic" in2="BackgroundImageFix" result="shape"/>
<feColorMatrix in="SourceAlpha" type="matrix" values="0 0 0 0 0 0 0 0 0 0 0 0 0 0 0 0 0 0 127 0" result="hardAlpha"/>
<feOffset dy="1.31759"/>
<feComposite in2="hardAlpha" operator="arithmetic" k2="-1" k3="1"/>
<feColorMatrix type="matrix" values="0 0 0 0 0 0 0 0 0 0 0 0 0 0 0 0 0 0 0.1 0"/>
<feBlend mode="normal" in2="shape" result="effect1_innerShadow_306_6576"/>
</filter>
<filter id="filter2_i_306_6576" x="315.654" y="149.035" width="348.23" height="202.138" filterUnits="userSpaceOnUse" color-interpolation-filters="sRGB">
<feFlood flood-opacity="0" result="BackgroundImageFix"/>
<feBlend mode="normal" in="SourceGraphic" in2="BackgroundImageFix" result="shape"/>
<feColorMatrix in="SourceAlpha" type="matrix" values="0 0 0 0 0 0 0 0 0 0 0 0 0 0 0 0 0 0 127 0" result="hardAlpha"/>
<feOffset dy="-1.08711"/>
<feGaussianBlur stdDeviation="2.17422"/>
<feComposite in2="hardAlpha" operator="arithmetic" k2="-1" k3="1"/>
<feColorMatrix type="matrix" values="0 0 0 0 0 0 0 0 0 0 0 0 0 0 0 0 0 0 0.15 0"/>
<feBlend mode="normal" in2="shape" result="effect1_innerShadow_306_6576"/>
</filter>
<filter id="filter3_i_306_6576" x="371.505" y="113.192" width="234.075" height="135.874" filterUnits="userSpaceOnUse" color-interpolation-filters="sRGB">
<feFlood flood-opacity="0" result="BackgroundImageFix"/>
<feBlend mode="normal" in="SourceGraphic" in2="BackgroundImageFix" result="shape"/>
<feColorMatrix in="SourceAlpha" type="matrix" values="0 0 0 0 0 0 0 0 0 0 0 0 0 0 0 0 0 0 127 0" result="hardAlpha"/>
<feOffset dy="-0.73074"/>
<feGaussianBlur stdDeviation="1.46148"/>
<feComposite in2="hardAlpha" operator="arithmetic" k2="-1" k3="1"/>
<feColorMatrix type="matrix" values="0 0 0 0 0 0 0 0 0 0 0 0 0 0 0 0 0 0 0.15 0"/>
<feBlend mode="normal" in2="shape" result="effect1_innerShadow_306_6576"/>
</filter>
<filter id="filter4_i_306_6576" x="420.84" y="97.1171" width="136.018" height="78.9542" filterUnits="userSpaceOnUse" color-interpolation-filters="sRGB">
<feFlood flood-opacity="0" result="BackgroundImageFix"/>
<feBlend mode="normal" in="SourceGraphic" in2="BackgroundImageFix" result="shape"/>
<feColorMatrix in="SourceAlpha" type="matrix" values="0 0 0 0 0 0 0 0 0 0 0 0 0 0 0 0 0 0 127 0" result="hardAlpha"/>
<feOffset dy="-0.424621"/>
<feGaussianBlur stdDeviation="0.849242"/>
<feComposite in2="hardAlpha" operator="arithmetic" k2="-1" k3="1"/>
<feColorMatrix type="matrix" values="0 0 0 0 0 0 0 0 0 0 0 0 0 0 0 0 0 0 0.15 0"/>
<feBlend mode="normal" in2="shape" result="effect1_innerShadow_306_6576"/>
</filter>
<radialGradient id="paint0_radial_306_6576" cx="0" cy="0" r="1" gradientUnits="userSpaceOnUse" gradientTransform="translate(462.532 231.81) rotate(92.4052) scale(290.655 493.801)">
<stop offset="0.512167" stop-color="#E61212"/>
<stop offset="0.771009" stop-color="#D9D9D9" stop-opacity="0"/>
</radialGradient>
<linearGradient id="paint1_linear_306_6576" x1="537.047" y1="408.277" x2="549.836" y2="419.301" gradientUnits="userSpaceOnUse">
<stop stop-color="#91C3FF"/>
<stop offset="1" stop-color="#3E5F86"/>
</linearGradient>
<linearGradient id="paint2_linear_306_6576" x1="519.424" y1="414.959" x2="542.107" y2="412.094" gradientUnits="userSpaceOnUse">
<stop stop-color="#DBD7D7"/>
<stop offset="1" stop-color="white"/>
</linearGradient>
<linearGradient id="paint3_linear_306_6576" x1="548.326" y1="407.38" x2="519.376" y2="416.13" gradientUnits="userSpaceOnUse">
<stop stop-color="#6CB9FF"/>
<stop offset="1" stop-color="#3E5286"/>
</linearGradient>
<linearGradient id="paint4_linear_306_6576" x1="540.979" y1="393.396" x2="532.033" y2="414.557" gradientUnits="userSpaceOnUse">
<stop stop-color="#DBD7D7"/>
<stop offset="1" stop-color="white"/>
</linearGradient>
<radialGradient id="paint5_radial_306_6576" cx="0" cy="0" r="1" gradientUnits="userSpaceOnUse" gradientTransform="translate(536.371 391.268) rotate(90) scale(12.1265 12.0223)">
<stop stop-color="#276EB0"/>
<stop offset="1" stop-color="#79B4EB"/>
</radialGradient>
<linearGradient id="paint6_linear_306_6576" x1="489.41" y1="380.871" x2="502.199" y2="391.895" gradientUnits="userSpaceOnUse">
<stop stop-color="#91C3FF"/>
<stop offset="1" stop-color="#3E5F86"/>
</linearGradient>
<linearGradient id="paint7_linear_306_6576" x1="471.787" y1="387.554" x2="494.471" y2="384.688" gradientUnits="userSpaceOnUse">
<stop stop-color="#DBD7D7"/>
<stop offset="1" stop-color="white"/>
</linearGradient>
<linearGradient id="paint8_linear_306_6576" x1="500.689" y1="379.974" x2="471.74" y2="388.725" gradientUnits="userSpaceOnUse">
<stop stop-color="#6CB9FF"/>
<stop offset="1" stop-color="#3E5286"/>
</linearGradient>
<linearGradient id="paint9_linear_306_6576" x1="493.342" y1="365.991" x2="484.397" y2="387.151" gradientUnits="userSpaceOnUse">
<stop stop-color="#DBD7D7"/>
<stop offset="1" stop-color="white"/>
</linearGradient>
<radialGradient id="paint10_radial_306_6576" cx="0" cy="0" r="1" gradientUnits="userSpaceOnUse" gradientTransform="translate(488.734 363.862) rotate(90) scale(12.1265 12.0223)">
<stop stop-color="#276EB0"/>
<stop offset="1" stop-color="#79B4EB"/>
</radialGradient>
<linearGradient id="paint11_linear_306_6576" x1="442.947" y1="353.363" x2="455.736" y2="364.387" gradientUnits="userSpaceOnUse">
<stop stop-color="#91C3FF"/>
<stop offset="1" stop-color="#3E5F86"/>
</linearGradient>
<linearGradient id="paint12_linear_306_6576" x1="425.324" y1="360.046" x2="448.008" y2="357.18" gradientUnits="userSpaceOnUse">
<stop stop-color="#DBD7D7"/>
<stop offset="1" stop-color="white"/>
</linearGradient>
<linearGradient id="paint13_linear_306_6576" x1="454.226" y1="352.466" x2="425.277" y2="361.217" gradientUnits="userSpaceOnUse">
<stop stop-color="#6CB9FF"/>
<stop offset="1" stop-color="#3E5286"/>
</linearGradient>
<linearGradient id="paint14_linear_306_6576" x1="446.879" y1="338.483" x2="437.934" y2="359.643" gradientUnits="userSpaceOnUse">
<stop stop-color="#DBD7D7"/>
<stop offset="1" stop-color="white"/>
</linearGradient>
<radialGradient id="paint15_radial_306_6576" cx="0" cy="0" r="1" gradientUnits="userSpaceOnUse" gradientTransform="translate(442.271 336.354) rotate(90) scale(12.1265 12.0223)">
<stop stop-color="#276EB0"/>
<stop offset="1" stop-color="#79B4EB"/>
</radialGradient>
<linearGradient id="paint16_linear_306_6576" x1="392.931" y1="324.707" x2="405.721" y2="335.731" gradientUnits="userSpaceOnUse">
<stop stop-color="#91C3FF"/>
<stop offset="1" stop-color="#3E5F86"/>
</linearGradient>
<linearGradient id="paint17_linear_306_6576" x1="375.309" y1="331.389" x2="397.992" y2="328.524" gradientUnits="userSpaceOnUse">
<stop stop-color="#DBD7D7"/>
<stop offset="1" stop-color="white"/>
</linearGradient>
<linearGradient id="paint18_linear_306_6576" x1="404.211" y1="323.81" x2="375.261" y2="332.561" gradientUnits="userSpaceOnUse">
<stop stop-color="#6CB9FF"/>
<stop offset="1" stop-color="#3E5286"/>
</linearGradient>
<linearGradient id="paint19_linear_306_6576" x1="396.863" y1="309.826" x2="387.918" y2="330.987" gradientUnits="userSpaceOnUse">
<stop stop-color="#DBD7D7"/>
<stop offset="1" stop-color="white"/>
</linearGradient>
<radialGradient id="paint20_radial_306_6576" cx="0" cy="0" r="1" gradientUnits="userSpaceOnUse" gradientTransform="translate(392.255 307.697) rotate(90) scale(12.1265 12.0223)">
<stop stop-color="#276EB0"/>
<stop offset="1" stop-color="#79B4EB"/>
</radialGradient>
<linearGradient id="paint21_linear_306_6576" x1="242.228" y1="371.237" x2="255.018" y2="382.261" gradientUnits="userSpaceOnUse">
<stop stop-color="#91C3FF"/>
<stop offset="1" stop-color="#3E5F86"/>
</linearGradient>
<linearGradient id="paint22_linear_306_6576" x1="224.606" y1="377.92" x2="247.289" y2="375.054" gradientUnits="userSpaceOnUse">
<stop stop-color="#DBD7D7"/>
<stop offset="1" stop-color="white"/>
</linearGradient>
<linearGradient id="paint23_linear_306_6576" x1="253.508" y1="370.34" x2="224.558" y2="379.091" gradientUnits="userSpaceOnUse">
<stop stop-color="#6CB9FF"/>
<stop offset="1" stop-color="#3E5286"/>
</linearGradient>
<linearGradient id="paint24_linear_306_6576" x1="246.16" y1="356.358" x2="237.215" y2="377.519" gradientUnits="userSpaceOnUse">
<stop stop-color="#DBD7D7"/>
<stop offset="1" stop-color="white"/>
</linearGradient>
<radialGradient id="paint25_radial_306_6576" cx="0" cy="0" r="1" gradientUnits="userSpaceOnUse" gradientTransform="translate(241.552 354.229) rotate(90) scale(12.1265 12.0223)">
<stop stop-color="#276EB0"/>
<stop offset="1" stop-color="#79B4EB"/>
</radialGradient>
<linearGradient id="paint26_linear_306_6576" x1="285.115" y1="346.786" x2="297.904" y2="357.809" gradientUnits="userSpaceOnUse">
<stop stop-color="#91C3FF"/>
<stop offset="1" stop-color="#3E5F86"/>
</linearGradient>
<linearGradient id="paint27_linear_306_6576" x1="267.492" y1="353.468" x2="290.176" y2="350.602" gradientUnits="userSpaceOnUse">
<stop stop-color="#DBD7D7"/>
<stop offset="1" stop-color="white"/>
</linearGradient>
<linearGradient id="paint28_linear_306_6576" x1="296.394" y1="345.888" x2="267.445" y2="354.639" gradientUnits="userSpaceOnUse">
<stop stop-color="#6CB9FF"/>
<stop offset="1" stop-color="#3E5286"/>
</linearGradient>
<linearGradient id="paint29_linear_306_6576" x1="289.047" y1="331.906" x2="280.102" y2="353.067" gradientUnits="userSpaceOnUse">
<stop stop-color="#DBD7D7"/>
<stop offset="1" stop-color="white"/>
</linearGradient>
<radialGradient id="paint30_radial_306_6576" cx="0" cy="0" r="1" gradientUnits="userSpaceOnUse" gradientTransform="translate(284.439 329.777) rotate(90) scale(12.1265 12.0223)">
<stop stop-color="#276EB0"/>
<stop offset="1" stop-color="#79B4EB"/>
</radialGradient>
<linearGradient id="paint31_linear_306_6576" x1="381.681" y1="288.486" x2="394.471" y2="299.509" gradientUnits="userSpaceOnUse">
<stop stop-color="#91C3FF"/>
<stop offset="1" stop-color="#3E5F86"/>
</linearGradient>
<linearGradient id="paint32_linear_306_6576" x1="364.059" y1="295.168" x2="386.742" y2="292.302" gradientUnits="userSpaceOnUse">
<stop stop-color="#DBD7D7"/>
<stop offset="1" stop-color="white"/>
</linearGradient>
<linearGradient id="paint33_linear_306_6576" x1="392.961" y1="287.588" x2="364.011" y2="296.339" gradientUnits="userSpaceOnUse">
<stop stop-color="#6CB9FF"/>
<stop offset="1" stop-color="#3E5286"/>
</linearGradient>
<linearGradient id="paint34_linear_306_6576" x1="385.613" y1="273.606" x2="376.668" y2="294.767" gradientUnits="userSpaceOnUse">
<stop stop-color="#DBD7D7"/>
<stop offset="1" stop-color="white"/>
</linearGradient>
<radialGradient id="paint35_radial_306_6576" cx="0" cy="0" r="1" gradientUnits="userSpaceOnUse" gradientTransform="translate(381.005 271.477) rotate(90) scale(12.1265 12.0223)">
<stop stop-color="#276EB0"/>
<stop offset="1" stop-color="#79B4EB"/>
</radialGradient>
<linearGradient id="paint36_linear_306_6576" x1="325.998" y1="321.418" x2="338.787" y2="332.442" gradientUnits="userSpaceOnUse">
<stop stop-color="#91C3FF"/>
<stop offset="1" stop-color="#3E5F86"/>
</linearGradient>
<linearGradient id="paint37_linear_306_6576" x1="308.375" y1="328.101" x2="331.058" y2="325.235" gradientUnits="userSpaceOnUse">
<stop stop-color="#DBD7D7"/>
<stop offset="1" stop-color="white"/>
</linearGradient>
<linearGradient id="paint38_linear_306_6576" x1="337.277" y1="320.521" x2="308.328" y2="329.272" gradientUnits="userSpaceOnUse">
<stop stop-color="#6CB9FF"/>
<stop offset="1" stop-color="#3E5286"/>
</linearGradient>
<linearGradient id="paint39_linear_306_6576" x1="329.93" y1="306.539" x2="320.985" y2="327.699" gradientUnits="userSpaceOnUse">
<stop stop-color="#DBD7D7"/>
<stop offset="1" stop-color="white"/>
</linearGradient>
<radialGradient id="paint40_radial_306_6576" cx="0" cy="0" r="1" gradientUnits="userSpaceOnUse" gradientTransform="translate(325.322 304.41) rotate(90) scale(12.1265 12.0223)">
<stop stop-color="#276EB0"/>
<stop offset="1" stop-color="#79B4EB"/>
</radialGradient>
<linearGradient id="paint41_linear_306_6576" x1="207.26" y1="219.548" x2="220.049" y2="230.572" gradientUnits="userSpaceOnUse">
<stop stop-color="#91C3FF"/>
<stop offset="1" stop-color="#3E5F86"/>
</linearGradient>
<linearGradient id="paint42_linear_306_6576" x1="189.637" y1="226.231" x2="212.32" y2="223.365" gradientUnits="userSpaceOnUse">
<stop stop-color="#DBD7D7"/>
<stop offset="1" stop-color="white"/>
</linearGradient>
<linearGradient id="paint43_linear_306_6576" x1="218.539" y1="218.651" x2="189.589" y2="227.402" gradientUnits="userSpaceOnUse">
<stop stop-color="#6CB9FF"/>
<stop offset="1" stop-color="#3E5286"/>
</linearGradient>
<linearGradient id="paint44_linear_306_6576" x1="211.192" y1="204.669" x2="202.246" y2="225.83" gradientUnits="userSpaceOnUse">
<stop stop-color="#DBD7D7"/>
<stop offset="1" stop-color="white"/>
</linearGradient>
<radialGradient id="paint45_radial_306_6576" cx="0" cy="0" r="1" gradientUnits="userSpaceOnUse" gradientTransform="translate(206.584 202.54) rotate(90) scale(12.1265 12.0223)">
<stop stop-color="#276EB0"/>
<stop offset="1" stop-color="#79B4EB"/>
</radialGradient>
<linearGradient id="paint46_linear_306_6576" x1="260.752" y1="250.002" x2="273.541" y2="261.026" gradientUnits="userSpaceOnUse">
<stop stop-color="#91C3FF"/>
<stop offset="1" stop-color="#3E5F86"/>
</linearGradient>
<linearGradient id="paint47_linear_306_6576" x1="243.129" y1="256.684" x2="265.812" y2="253.819" gradientUnits="userSpaceOnUse">
<stop stop-color="#DBD7D7"/>
<stop offset="1" stop-color="white"/>
</linearGradient>
<linearGradient id="paint48_linear_306_6576" x1="272.031" y1="249.105" x2="243.082" y2="257.856" gradientUnits="userSpaceOnUse">
<stop stop-color="#6CB9FF"/>
<stop offset="1" stop-color="#3E5286"/>
</linearGradient>
<linearGradient id="paint49_linear_306_6576" x1="264.684" y1="235.123" x2="255.738" y2="256.283" gradientUnits="userSpaceOnUse">
<stop stop-color="#DBD7D7"/>
<stop offset="1" stop-color="white"/>
</linearGradient>
<radialGradient id="paint50_radial_306_6576" cx="0" cy="0" r="1" gradientUnits="userSpaceOnUse" gradientTransform="translate(260.076 232.994) rotate(90) scale(12.1265 12.0223)">
<stop stop-color="#276EB0"/>
<stop offset="1" stop-color="#79B4EB"/>
</radialGradient>
<linearGradient id="paint51_linear_306_6576" x1="312.207" y1="278.614" x2="324.996" y2="289.638" gradientUnits="userSpaceOnUse">
<stop stop-color="#91C3FF"/>
<stop offset="1" stop-color="#3E5F86"/>
</linearGradient>
<linearGradient id="paint52_linear_306_6576" x1="294.584" y1="285.296" x2="317.267" y2="282.431" gradientUnits="userSpaceOnUse">
<stop stop-color="#DBD7D7"/>
<stop offset="1" stop-color="white"/>
</linearGradient>
<linearGradient id="paint53_linear_306_6576" x1="323.486" y1="277.717" x2="294.537" y2="286.468" gradientUnits="userSpaceOnUse">
<stop stop-color="#6CB9FF"/>
<stop offset="1" stop-color="#3E5286"/>
</linearGradient>
<linearGradient id="paint54_linear_306_6576" x1="316.139" y1="263.735" x2="307.194" y2="284.895" gradientUnits="userSpaceOnUse">
<stop stop-color="#DBD7D7"/>
<stop offset="1" stop-color="white"/>
</linearGradient>
<radialGradient id="paint55_radial_306_6576" cx="0" cy="0" r="1" gradientUnits="userSpaceOnUse" gradientTransform="translate(311.531 261.606) rotate(90) scale(12.1265 12.0223)">
<stop stop-color="#276EB0"/>
<stop offset="1" stop-color="#79B4EB"/>
</radialGradient>
<linearGradient id="paint56_linear_306_6576" x1="151.117" y1="187.431" x2="163.906" y2="198.455" gradientUnits="userSpaceOnUse">
<stop stop-color="#91C3FF"/>
<stop offset="1" stop-color="#3E5F86"/>
</linearGradient>
<linearGradient id="paint57_linear_306_6576" x1="133.494" y1="194.114" x2="156.178" y2="191.248" gradientUnits="userSpaceOnUse">
<stop stop-color="#DBD7D7"/>
<stop offset="1" stop-color="white"/>
</linearGradient>
<linearGradient id="paint58_linear_306_6576" x1="162.396" y1="186.534" x2="133.447" y2="195.285" gradientUnits="userSpaceOnUse">
<stop stop-color="#6CB9FF"/>
<stop offset="1" stop-color="#3E5286"/>
</linearGradient>
<linearGradient id="paint59_linear_306_6576" x1="155.049" y1="172.551" x2="146.104" y2="193.711" gradientUnits="userSpaceOnUse">
<stop stop-color="#DBD7D7"/>
<stop offset="1" stop-color="white"/>
</linearGradient>
<radialGradient id="paint60_radial_306_6576" cx="0" cy="0" r="1" gradientUnits="userSpaceOnUse" gradientTransform="translate(150.441 170.422) rotate(90) scale(12.1265 12.0223)">
<stop stop-color="#276EB0"/>
<stop offset="1" stop-color="#79B4EB"/>
</radialGradient>
<linearGradient id="paint61_linear_306_6576" x1="94.9686" y1="155.306" x2="107.758" y2="166.33" gradientUnits="userSpaceOnUse">
<stop stop-color="#91C3FF"/>
<stop offset="1" stop-color="#3E5F86"/>
</linearGradient>
<linearGradient id="paint62_linear_306_6576" x1="77.3459" y1="161.989" x2="100.029" y2="159.123" gradientUnits="userSpaceOnUse">
<stop stop-color="#DBD7D7"/>
<stop offset="1" stop-color="white"/>
</linearGradient>
<linearGradient id="paint63_linear_306_6576" x1="106.248" y1="154.409" x2="77.2984" y2="163.16" gradientUnits="userSpaceOnUse">
<stop stop-color="#6CB9FF"/>
<stop offset="1" stop-color="#3E5286"/>
</linearGradient>
<linearGradient id="paint64_linear_306_6576" x1="98.9006" y1="140.426" x2="89.9553" y2="161.586" gradientUnits="userSpaceOnUse">
<stop stop-color="#DBD7D7"/>
<stop offset="1" stop-color="white"/>
</linearGradient>
<radialGradient id="paint65_radial_306_6576" cx="0" cy="0" r="1" gradientUnits="userSpaceOnUse" gradientTransform="translate(94.2926 138.297) rotate(90) scale(12.1265 12.0223)">
<stop stop-color="#276EB0"/>
<stop offset="1" stop-color="#79B4EB"/>
</radialGradient>
<linearGradient id="paint66_linear_306_6576" x1="6.18735" y1="151.765" x2="18.9766" y2="162.789" gradientUnits="userSpaceOnUse">
<stop stop-color="#91C3FF"/>
<stop offset="1" stop-color="#3E5F86"/>
</linearGradient>
<linearGradient id="paint67_linear_306_6576" x1="-11.4353" y1="158.447" x2="11.2479" y2="155.582" gradientUnits="userSpaceOnUse">
<stop stop-color="#DBD7D7"/>
<stop offset="1" stop-color="white"/>
</linearGradient>
<linearGradient id="paint68_linear_306_6576" x1="17.4667" y1="150.868" x2="-11.4829" y2="159.618" gradientUnits="userSpaceOnUse">
<stop stop-color="#6CB9FF"/>
<stop offset="1" stop-color="#3E5286"/>
</linearGradient>
<linearGradient id="paint69_linear_306_6576" x1="10.1193" y1="136.884" x2="1.17402" y2="158.045" gradientUnits="userSpaceOnUse">
<stop stop-color="#DBD7D7"/>
<stop offset="1" stop-color="white"/>
</linearGradient>
<radialGradient id="paint70_radial_306_6576" cx="0" cy="0" r="1" gradientUnits="userSpaceOnUse" gradientTransform="translate(5.51136 134.756) rotate(90) scale(12.1265 12.0223)">
<stop stop-color="#276EB0"/>
<stop offset="1" stop-color="#79B4EB"/>
</radialGradient>
<linearGradient id="paint71_linear_306_6576" x1="579.863" y1="175.126" x2="592.652" y2="186.149" gradientUnits="userSpaceOnUse">
<stop stop-color="#91C3FF"/>
<stop offset="1" stop-color="#3E5F86"/>
</linearGradient>
<linearGradient id="paint72_linear_306_6576" x1="562.24" y1="181.808" x2="584.924" y2="178.942" gradientUnits="userSpaceOnUse">
<stop stop-color="#DBD7D7"/>
<stop offset="1" stop-color="white"/>
</linearGradient>
<linearGradient id="paint73_linear_306_6576" x1="591.142" y1="174.228" x2="562.193" y2="182.979" gradientUnits="userSpaceOnUse">
<stop stop-color="#6CB9FF"/>
<stop offset="1" stop-color="#3E5286"/>
</linearGradient>
<linearGradient id="paint74_linear_306_6576" x1="583.795" y1="160.246" x2="574.85" y2="181.407" gradientUnits="userSpaceOnUse">
<stop stop-color="#DBD7D7"/>
<stop offset="1" stop-color="white"/>
</linearGradient>
<radialGradient id="paint75_radial_306_6576" cx="0" cy="0" r="1" gradientUnits="userSpaceOnUse" gradientTransform="translate(579.187 158.117) rotate(90) scale(12.1265 12.0223)">
<stop stop-color="#276EB0"/>
<stop offset="1" stop-color="#79B4EB"/>
</radialGradient>
<linearGradient id="paint76_linear_306_6576" x1="676.394" y1="118.372" x2="689.184" y2="129.396" gradientUnits="userSpaceOnUse">
<stop stop-color="#91C3FF"/>
<stop offset="1" stop-color="#3E5F86"/>
</linearGradient>
<linearGradient id="paint77_linear_306_6576" x1="658.772" y1="125.054" x2="681.455" y2="122.189" gradientUnits="userSpaceOnUse">
<stop stop-color="#DBD7D7"/>
<stop offset="1" stop-color="white"/>
</linearGradient>
<linearGradient id="paint78_linear_306_6576" x1="687.674" y1="117.475" x2="658.724" y2="126.225" gradientUnits="userSpaceOnUse">
<stop stop-color="#6CB9FF"/>
<stop offset="1" stop-color="#3E5286"/>
</linearGradient>
<linearGradient id="paint79_linear_306_6576" x1="680.326" y1="103.492" x2="671.381" y2="124.653" gradientUnits="userSpaceOnUse">
<stop stop-color="#DBD7D7"/>
<stop offset="1" stop-color="white"/>
</linearGradient>
<radialGradient id="paint80_radial_306_6576" cx="0" cy="0" r="1" gradientUnits="userSpaceOnUse" gradientTransform="translate(675.718 101.364) rotate(90) scale(12.1265 12.0223)">
<stop stop-color="#276EB0"/>
<stop offset="1" stop-color="#79B4EB"/>
</radialGradient>
<linearGradient id="paint81_linear_306_6576" x1="811.098" y1="263.862" x2="823.887" y2="274.886" gradientUnits="userSpaceOnUse">
<stop stop-color="#91C3FF"/>
<stop offset="1" stop-color="#3E5F86"/>
</linearGradient>
<linearGradient id="paint82_linear_306_6576" x1="793.475" y1="270.545" x2="816.158" y2="267.679" gradientUnits="userSpaceOnUse">
<stop stop-color="#DBD7D7"/>
<stop offset="1" stop-color="white"/>
</linearGradient>
<linearGradient id="paint83_linear_306_6576" x1="822.377" y1="262.965" x2="793.427" y2="271.716" gradientUnits="userSpaceOnUse">
<stop stop-color="#6CB9FF"/>
<stop offset="1" stop-color="#3E5286"/>
</linearGradient>
<linearGradient id="paint84_linear_306_6576" x1="815.029" y1="248.981" x2="806.084" y2="270.142" gradientUnits="userSpaceOnUse">
<stop stop-color="#DBD7D7"/>
<stop offset="1" stop-color="white"/>
</linearGradient>
<radialGradient id="paint85_radial_306_6576" cx="0" cy="0" r="1" gradientUnits="userSpaceOnUse" gradientTransform="translate(810.422 246.853) rotate(90) scale(12.1265 12.0223)">
<stop stop-color="#276EB0"/>
<stop offset="1" stop-color="#79B4EB"/>
</radialGradient>
<linearGradient id="paint86_linear_306_6576" x1="646.363" y1="166.915" x2="659.152" y2="177.939" gradientUnits="userSpaceOnUse">
<stop stop-color="#91C3FF"/>
<stop offset="1" stop-color="#3E5F86"/>
</linearGradient>
<linearGradient id="paint87_linear_306_6576" x1="628.74" y1="173.597" x2="651.424" y2="170.732" gradientUnits="userSpaceOnUse">
<stop stop-color="#DBD7D7"/>
<stop offset="1" stop-color="white"/>
</linearGradient>
<linearGradient id="paint88_linear_306_6576" x1="657.642" y1="166.018" x2="628.693" y2="174.769" gradientUnits="userSpaceOnUse">
<stop stop-color="#6CB9FF"/>
<stop offset="1" stop-color="#3E5286"/>
</linearGradient>
<linearGradient id="paint89_linear_306_6576" x1="650.295" y1="152.034" x2="641.35" y2="173.195" gradientUnits="userSpaceOnUse">
<stop stop-color="#DBD7D7"/>
<stop offset="1" stop-color="white"/>
</linearGradient>
<radialGradient id="paint90_radial_306_6576" cx="0" cy="0" r="1" gradientUnits="userSpaceOnUse" gradientTransform="translate(645.687 149.906) rotate(90) scale(12.1265 12.0223)">
<stop stop-color="#276EB0"/>
<stop offset="1" stop-color="#79B4EB"/>
</radialGradient>
<linearGradient id="paint91_linear_306_6576" x1="701.982" y1="199.284" x2="714.772" y2="210.307" gradientUnits="userSpaceOnUse">
<stop stop-color="#91C3FF"/>
<stop offset="1" stop-color="#3E5F86"/>
</linearGradient>
<linearGradient id="paint92_linear_306_6576" x1="684.36" y1="205.966" x2="707.043" y2="203.1" gradientUnits="userSpaceOnUse">
<stop stop-color="#DBD7D7"/>
<stop offset="1" stop-color="white"/>
</linearGradient>
<linearGradient id="paint93_linear_306_6576" x1="713.262" y1="198.386" x2="684.312" y2="207.137" gradientUnits="userSpaceOnUse">
<stop stop-color="#6CB9FF"/>
<stop offset="1" stop-color="#3E5286"/>
</linearGradient>
<linearGradient id="paint94_linear_306_6576" x1="705.914" y1="184.403" x2="696.969" y2="205.563" gradientUnits="userSpaceOnUse">
<stop stop-color="#DBD7D7"/>
<stop offset="1" stop-color="white"/>
</linearGradient>
<radialGradient id="paint95_radial_306_6576" cx="0" cy="0" r="1" gradientUnits="userSpaceOnUse" gradientTransform="translate(701.306 182.274) rotate(90) scale(12.1265 12.0223)">
<stop stop-color="#276EB0"/>
<stop offset="1" stop-color="#79B4EB"/>
</radialGradient>
<linearGradient id="paint96_linear_306_6576" x1="761.471" y1="234.128" x2="774.26" y2="245.152" gradientUnits="userSpaceOnUse">
<stop stop-color="#91C3FF"/>
<stop offset="1" stop-color="#3E5F86"/>
</linearGradient>
<linearGradient id="paint97_linear_306_6576" x1="743.848" y1="240.81" x2="766.531" y2="237.945" gradientUnits="userSpaceOnUse">
<stop stop-color="#DBD7D7"/>
<stop offset="1" stop-color="white"/>
</linearGradient>
<linearGradient id="paint98_linear_306_6576" x1="772.75" y1="233.231" x2="743.8" y2="241.981" gradientUnits="userSpaceOnUse">
<stop stop-color="#6CB9FF"/>
<stop offset="1" stop-color="#3E5286"/>
</linearGradient>
<linearGradient id="paint99_linear_306_6576" x1="765.403" y1="219.247" x2="756.457" y2="240.408" gradientUnits="userSpaceOnUse">
<stop stop-color="#DBD7D7"/>
<stop offset="1" stop-color="white"/>
</linearGradient>
<radialGradient id="paint100_radial_306_6576" cx="0" cy="0" r="1" gradientUnits="userSpaceOnUse" gradientTransform="translate(760.795 217.118) rotate(90) scale(12.1265 12.0223)">
<stop stop-color="#276EB0"/>
<stop offset="1" stop-color="#79B4EB"/>
</radialGradient>
<linearGradient id="paint101_linear_306_6576" x1="596.74" y1="137.181" x2="609.529" y2="148.204" gradientUnits="userSpaceOnUse">
<stop stop-color="#91C3FF"/>
<stop offset="1" stop-color="#3E5F86"/>
</linearGradient>
<linearGradient id="paint102_linear_306_6576" x1="579.117" y1="143.863" x2="601.801" y2="140.998" gradientUnits="userSpaceOnUse">
<stop stop-color="#DBD7D7"/>
<stop offset="1" stop-color="white"/>
</linearGradient>
<linearGradient id="paint103_linear_306_6576" x1="608.019" y1="136.284" x2="579.07" y2="145.034" gradientUnits="userSpaceOnUse">
<stop stop-color="#6CB9FF"/>
<stop offset="1" stop-color="#3E5286"/>
</linearGradient>
<linearGradient id="paint104_linear_306_6576" x1="600.672" y1="122.3" x2="591.727" y2="143.46" gradientUnits="userSpaceOnUse">
<stop stop-color="#DBD7D7"/>
<stop offset="1" stop-color="white"/>
</linearGradient>
<radialGradient id="paint105_radial_306_6576" cx="0" cy="0" r="1" gradientUnits="userSpaceOnUse" gradientTransform="translate(596.064 120.171) rotate(90) scale(12.1265 12.0223)">
<stop stop-color="#276EB0"/>
<stop offset="1" stop-color="#79B4EB"/>
</radialGradient>
<linearGradient id="paint106_linear_306_6576" x1="537.91" y1="102.45" x2="550.699" y2="113.473" gradientUnits="userSpaceOnUse">
<stop stop-color="#91C3FF"/>
<stop offset="1" stop-color="#3E5F86"/>
</linearGradient>
<linearGradient id="paint107_linear_306_6576" x1="520.287" y1="109.132" x2="542.971" y2="106.267" gradientUnits="userSpaceOnUse">
<stop stop-color="#DBD7D7"/>
<stop offset="1" stop-color="white"/>
</linearGradient>
<linearGradient id="paint108_linear_306_6576" x1="549.189" y1="101.553" x2="520.24" y2="110.303" gradientUnits="userSpaceOnUse">
<stop stop-color="#6CB9FF"/>
<stop offset="1" stop-color="#3E5286"/>
</linearGradient>
<linearGradient id="paint109_linear_306_6576" x1="541.842" y1="87.5689" x2="532.897" y2="108.729" gradientUnits="userSpaceOnUse">
<stop stop-color="#DBD7D7"/>
<stop offset="1" stop-color="white"/>
</linearGradient>
<radialGradient id="paint110_radial_306_6576" cx="0" cy="0" r="1" gradientUnits="userSpaceOnUse" gradientTransform="translate(537.234 85.4402) rotate(90) scale(12.1265 12.0223)">
<stop stop-color="#276EB0"/>
<stop offset="1" stop-color="#79B4EB"/>
</radialGradient>
<linearGradient id="paint111_linear_306_6576" x1="506.267" y1="217.686" x2="519.057" y2="228.709" gradientUnits="userSpaceOnUse">
<stop stop-color="#91C3FF"/>
<stop offset="1" stop-color="#3E5F86"/>
</linearGradient>
<linearGradient id="paint112_linear_306_6576" x1="488.645" y1="224.368" x2="511.328" y2="221.502" gradientUnits="userSpaceOnUse">
<stop stop-color="#DBD7D7"/>
<stop offset="1" stop-color="white"/>
</linearGradient>
<linearGradient id="paint113_linear_306_6576" x1="517.547" y1="216.788" x2="488.597" y2="225.539" gradientUnits="userSpaceOnUse">
<stop stop-color="#6CB9FF"/>
<stop offset="1" stop-color="#3E5286"/>
</linearGradient>
<linearGradient id="paint114_linear_306_6576" x1="510.199" y1="202.806" x2="501.254" y2="223.967" gradientUnits="userSpaceOnUse">
<stop stop-color="#DBD7D7"/>
<stop offset="1" stop-color="white"/>
</linearGradient>
<radialGradient id="paint115_radial_306_6576" cx="0" cy="0" r="1" gradientUnits="userSpaceOnUse" gradientTransform="translate(505.591 200.678) rotate(90) scale(12.1265 12.0223)">
<stop stop-color="#276EB0"/>
<stop offset="1" stop-color="#79B4EB"/>
</radialGradient>
<linearGradient id="paint116_linear_306_6576" x1="549.152" y1="193.234" x2="561.941" y2="204.258" gradientUnits="userSpaceOnUse">
<stop stop-color="#91C3FF"/>
<stop offset="1" stop-color="#3E5F86"/>
</linearGradient>
<linearGradient id="paint117_linear_306_6576" x1="531.53" y1="199.916" x2="554.213" y2="197.051" gradientUnits="userSpaceOnUse">
<stop stop-color="#DBD7D7"/>
<stop offset="1" stop-color="white"/>
</linearGradient>
<linearGradient id="paint118_linear_306_6576" x1="560.432" y1="192.337" x2="531.482" y2="201.087" gradientUnits="userSpaceOnUse">
<stop stop-color="#6CB9FF"/>
<stop offset="1" stop-color="#3E5286"/>
</linearGradient>
<linearGradient id="paint119_linear_306_6576" x1="553.084" y1="178.354" x2="544.139" y2="199.515" gradientUnits="userSpaceOnUse">
<stop stop-color="#DBD7D7"/>
<stop offset="1" stop-color="white"/>
</linearGradient>
<radialGradient id="paint120_radial_306_6576" cx="0" cy="0" r="1" gradientUnits="userSpaceOnUse" gradientTransform="translate(548.476 176.226) rotate(90) scale(12.1265 12.0223)">
<stop stop-color="#276EB0"/>
<stop offset="1" stop-color="#79B4EB"/>
</radialGradient>
<linearGradient id="paint121_linear_306_6576" x1="472.812" y1="64.4734" x2="485.602" y2="75.4972" gradientUnits="userSpaceOnUse">
<stop stop-color="#91C3FF"/>
<stop offset="1" stop-color="#3E5F86"/>
</linearGradient>
<linearGradient id="paint122_linear_306_6576" x1="455.19" y1="71.1557" x2="477.873" y2="68.2903" gradientUnits="userSpaceOnUse">
<stop stop-color="#DBD7D7"/>
<stop offset="1" stop-color="white"/>
</linearGradient>
<linearGradient id="paint123_linear_306_6576" x1="484.092" y1="63.5763" x2="455.142" y2="72.327" gradientUnits="userSpaceOnUse">
<stop stop-color="#6CB9FF"/>
<stop offset="1" stop-color="#3E5286"/>
</linearGradient>
<linearGradient id="paint124_linear_306_6576" x1="476.744" y1="49.594" x2="467.799" y2="70.7546" gradientUnits="userSpaceOnUse">
<stop stop-color="#DBD7D7"/>
<stop offset="1" stop-color="white"/>
</linearGradient>
<radialGradient id="paint125_radial_306_6576" cx="0" cy="0" r="1" gradientUnits="userSpaceOnUse" gradientTransform="translate(472.136 47.4653) rotate(90) scale(12.1265 12.0223)">
<stop stop-color="#276EB0"/>
<stop offset="1" stop-color="#79B4EB"/>
</radialGradient>
<linearGradient id="paint126_linear_306_6576" x1="416.668" y1="32.356" x2="429.457" y2="43.3797" gradientUnits="userSpaceOnUse">
<stop stop-color="#91C3FF"/>
<stop offset="1" stop-color="#3E5F86"/>
</linearGradient>
<linearGradient id="paint127_linear_306_6576" x1="399.045" y1="39.0383" x2="421.728" y2="36.1729" gradientUnits="userSpaceOnUse">
<stop stop-color="#DBD7D7"/>
<stop offset="1" stop-color="white"/>
</linearGradient>
<linearGradient id="paint128_linear_306_6576" x1="427.947" y1="31.4588" x2="398.998" y2="40.2095" gradientUnits="userSpaceOnUse">
<stop stop-color="#6CB9FF"/>
<stop offset="1" stop-color="#3E5286"/>
</linearGradient>
<linearGradient id="paint129_linear_306_6576" x1="420.6" y1="17.4756" x2="411.654" y2="38.6362" gradientUnits="userSpaceOnUse">
<stop stop-color="#DBD7D7"/>
<stop offset="1" stop-color="white"/>
</linearGradient>
<radialGradient id="paint130_radial_306_6576" cx="0" cy="0" r="1" gradientUnits="userSpaceOnUse" gradientTransform="translate(415.992 15.3469) rotate(90) scale(12.1265 12.0223)">
<stop stop-color="#276EB0"/>
<stop offset="1" stop-color="#79B4EB"/>
</radialGradient>
<linearGradient id="paint131_linear_306_6576" x1="360.521" y1="0.230993" x2="373.311" y2="11.2547" gradientUnits="userSpaceOnUse">
<stop stop-color="#91C3FF"/>
<stop offset="1" stop-color="#3E5F86"/>
</linearGradient>
<linearGradient id="paint132_linear_306_6576" x1="342.899" y1="6.91331" x2="365.582" y2="4.04787" gradientUnits="userSpaceOnUse">
<stop stop-color="#DBD7D7"/>
<stop offset="1" stop-color="white"/>
</linearGradient>
<linearGradient id="paint133_linear_306_6576" x1="371.801" y1="-0.666178" x2="342.851" y2="8.08454" gradientUnits="userSpaceOnUse">
<stop stop-color="#6CB9FF"/>
<stop offset="1" stop-color="#3E5286"/>
</linearGradient>
<linearGradient id="paint134_linear_306_6576" x1="364.453" y1="-14.6496" x2="355.508" y2="6.51093" gradientUnits="userSpaceOnUse">
<stop stop-color="#DBD7D7"/>
<stop offset="1" stop-color="white"/>
</linearGradient>
<radialGradient id="paint135_radial_306_6576" cx="0" cy="0" r="1" gradientUnits="userSpaceOnUse" gradientTransform="translate(359.845 -16.7783) rotate(90) scale(12.1265 12.0223)">
<stop stop-color="#276EB0"/>
<stop offset="1" stop-color="#79B4EB"/>
</radialGradient>
<linearGradient id="paint136_linear_306_6576" x1="-14.4706" y1="43.5453" x2="58.0393" y2="-35.7217" gradientUnits="userSpaceOnUse">
<stop stop-color="#EAEAEA"/>
<stop offset="1" stop-color="white"/>
</linearGradient>
<linearGradient id="paint137_linear_306_6576" x1="-115.638" y1="39.4943" x2="192.732" y2="-182.163" gradientUnits="userSpaceOnUse">
<stop stop-color="#DBD7D7"/>
<stop offset="1" stop-color="white"/>
</linearGradient>
<linearGradient id="paint138_linear_306_6576" x1="-16.301" y1="444.725" x2="232.784" y2="308.179" gradientUnits="userSpaceOnUse">
<stop stop-color="#C1C1C1"/>
<stop offset="1" stop-color="white"/>
</linearGradient>
<linearGradient id="paint139_linear_306_6576" x1="-9.72695" y1="29.2705" x2="39.0132" y2="-24.0116" gradientUnits="userSpaceOnUse">
<stop stop-color="#EAEAEA"/>
<stop offset="1" stop-color="white"/>
</linearGradient>
<linearGradient id="paint140_linear_306_6576" x1="-77.7299" y1="26.5475" x2="129.552" y2="-122.447" gradientUnits="userSpaceOnUse">
<stop stop-color="#DBD7D7"/>
<stop offset="1" stop-color="white"/>
</linearGradient>
<linearGradient id="paint141_linear_306_6576" x1="-10.9573" y1="298.938" x2="156.474" y2="207.153" gradientUnits="userSpaceOnUse">
<stop stop-color="#C1C1C1"/>
<stop offset="1" stop-color="white"/>
</linearGradient>
<linearGradient id="paint142_linear_306_6576" x1="-5.65218" y1="17.0086" x2="22.6699" y2="-13.9528" gradientUnits="userSpaceOnUse">
<stop stop-color="#EAEAEA"/>
<stop offset="1" stop-color="white"/>
</linearGradient>
<linearGradient id="paint143_linear_306_6576" x1="-45.1676" y1="15.4263" x2="75.2803" y2="-71.1522" gradientUnits="userSpaceOnUse">
<stop stop-color="#DBD7D7"/>
<stop offset="1" stop-color="white"/>
</linearGradient>
<linearGradient id="paint144_linear_306_6576" x1="-6.36712" y1="173.708" x2="90.9246" y2="120.373" gradientUnits="userSpaceOnUse">
<stop stop-color="#C1C1C1"/>
<stop offset="1" stop-color="white"/>
</linearGradient>
</defs>
</svg>
