<svg width="30" height="58" viewBox="0 0 30 58" fill="none" xmlns="http://www.w3.org/2000/svg">
<path fill-rule="evenodd" clip-rule="evenodd" d="M9.26389 36.9871C8.35096 36.7408 7.37716 36.5559 6.58594 36.248C8.29009 29.2277 10.6637 22.5151 13.4634 16.4184C16.2631 10.3832 19.5496 4.71761 24.7229 1.08423C27.6444 6.01085 27.766 14.2014 26.9749 21.4066C26.2444 28.3039 24.7229 35.078 23.2014 40.8668C20.2799 40.0661 17.2977 39.2656 14.3155 38.4651C14.8632 24.301 19.4887 14.263 24.236 4.34813C24.236 4.28654 24.3578 4.22496 24.3578 4.16337C16.8108 12.5386 12.0636 23.8083 9.26389 36.9871Z" fill="#2962FF"/>
<path fill-rule="evenodd" clip-rule="evenodd" d="M6.70726 31.7524L5.67259 35.9402L2.14258 35.0779L6.70726 31.7524Z" fill="#2962FF"/>
<path fill-rule="evenodd" clip-rule="evenodd" d="M25.392 36.802L27.8265 41.975L24.3574 41.1129L25.392 36.802Z" fill="#2962FF"/>
<path fill-rule="evenodd" clip-rule="evenodd" d="M10.1153 57.1245C10.1153 57.1245 11.0282 48.6877 11.4543 44.5616C10.4805 45.978 8.41113 49.9193 8.41113 49.9193C8.41113 49.9193 8.65459 47.3944 8.89804 46.0396C9.20236 44.0074 8.89804 41.1129 11.6369 41.3592C12.6715 41.4825 13.5236 41.9136 14.7408 42.2215C16.3232 42.6525 18.0883 42.8372 17.7839 44.8696C17.4188 47.0864 15.106 51.8283 15.106 51.8283C15.106 51.8283 15.106 47.456 15.2277 45.4238C13.4019 49.2419 10.1153 57.1245 10.1153 57.1245Z" fill="#2962FF"/>
</svg>
