<svg width="65" height="64" viewBox="0 0 65 64" fill="none" xmlns="http://www.w3.org/2000/svg">
<path d="M56.135 27.8321C58.4363 40.8854 49.719 53.3334 36.6683 55.6347C23.615 57.9361 11.167 49.2214 8.86564 36.1681C6.56431 23.1147 15.279 10.6667 28.3323 8.3654C41.3856 6.06406 53.8336 14.7787 56.135 27.8321" stroke="#2962FF" stroke-width="4" stroke-linecap="round" stroke-linejoin="round"/>
<path d="M19.2871 11.9893L23.1431 17.8293" stroke="#2962FF" stroke-width="4" stroke-linecap="round" stroke-linejoin="round"/>
<path d="M45.7134 52.0107L41.8574 46.1707" stroke="#2962FF" stroke-width="4" stroke-linecap="round" stroke-linejoin="round"/>
<path d="M27.8763 38.104C28.5643 39.232 29.743 40.008 31.1643 40.008H34.087C36.1537 40.008 37.831 38.3333 37.831 36.264C37.831 34.5467 36.663 33.048 34.999 32.632L30.0017 31.3787C28.335 30.96 27.167 29.4613 27.167 27.744C27.167 25.6773 28.8417 24 30.911 24H33.8337C35.255 24 36.4337 24.7787 37.1217 25.904" stroke="#2962FF" stroke-width="4" stroke-linecap="round" stroke-linejoin="round"/>
<path d="M32.5003 21.3333V23.9999" stroke="#2962FF" stroke-width="4" stroke-linecap="round" stroke-linejoin="round"/>
<path d="M32.5003 42.6667V40" stroke="#2962FF" stroke-width="4" stroke-linecap="round" stroke-linejoin="round"/>
</svg>
