<svg width="65" height="64" viewBox="0 0 65 64" fill="none" xmlns="http://www.w3.org/2000/svg">
<path d="M24.4997 42.6667H13.833C9.41473 42.6667 5.83301 39.0849 5.83301 34.6667V16C5.83301 11.5817 9.41473 8 13.833 8H48.4997C52.918 8 56.4997 11.5817 56.4997 16V32" stroke="#2962FF" stroke-width="4" stroke-linecap="round" stroke-linejoin="round"/>
<path fill-rule="evenodd" clip-rule="evenodd" d="M40.4999 45.3326V33.3333C40.4999 31.1241 42.2908 29.3333 44.4999 29.3333V29.3333C46.7091 29.3333 48.4999 31.1241 48.4999 33.3333V39.335L54.6912 40.3446C57.5218 40.8063 59.4805 43.4237 59.1249 46.2696L58.1596 53.9945C57.8261 56.6635 55.5574 58.6665 52.8676 58.6666H42.7447C40.9613 58.6666 39.296 57.7752 38.3068 56.2913L33.1335 48.53C32.1363 47.0342 32.3335 45.0425 33.6047 43.7713H33.6048C34.3121 43.0639 35.2714 42.6665 36.2717 42.6665C37.272 42.6665 38.2314 43.0639 38.9386 43.7713L40.4999 45.3326Z" stroke="#2962FF" stroke-width="4" stroke-linecap="round" stroke-linejoin="round"/>
<path fill-rule="evenodd" clip-rule="evenodd" d="M24.0473 20.0459L24.4999 20.5053L24.9676 20.0109C25.7615 19.164 26.867 18.6784 28.0278 18.6667C29.1885 18.6551 30.3036 19.1184 31.1143 19.9492L31.2094 20.0458C32.9301 21.814 32.9301 24.6308 31.2094 26.399L26.5313 31.1491C25.9955 31.6934 25.2636 31.9999 24.4998 31.9999C23.7361 31.9999 23.0042 31.6934 22.4684 31.1491L17.7905 26.3991C16.0698 24.6309 16.0698 21.8141 17.7905 20.0459V20.0459C18.6157 19.2076 19.7427 18.7356 20.9189 18.7356C22.0952 18.7356 23.2222 19.2076 24.0473 20.0459V20.0459Z" stroke="#2962FF" stroke-width="4" stroke-linecap="round" stroke-linejoin="round"/>
</svg>
