<svg width="66" height="66" viewBox="0 0 66 66" fill="none" xmlns="http://www.w3.org/2000/svg">
<path fill-rule="evenodd" clip-rule="evenodd" d="M43.6704 57.0097H22.3281C14.9613 57.0097 8.98926 51.0377 8.98926 43.6709V22.3286C8.98926 14.9618 14.9613 8.98975 22.3281 8.98975H43.6704C51.0372 8.98975 57.0093 14.9618 57.0093 22.3286V43.6709C57.0093 51.0377 51.0372 57.0097 43.6704 57.0097Z" stroke="#2962FF" stroke-width="4" stroke-linecap="round" stroke-linejoin="round"/>
<path fill-rule="evenodd" clip-rule="evenodd" d="M38.3362 46.3402H32.8799V40.8838C32.8794 40.3242 33.1019 39.7874 33.4981 39.3921L41.9379 30.9523C42.3333 30.5561 42.87 30.3335 43.4297 30.3335C43.9893 30.3335 44.526 30.5561 44.9214 30.9523L48.2678 34.2987C48.664 34.694 48.8866 35.2307 48.8866 35.7904C48.8866 36.3501 48.664 36.8868 48.2678 37.2822L39.828 45.722C39.4322 46.1174 38.8957 46.3397 38.3362 46.3402V46.3402Z" stroke="#2962FF" stroke-width="4" stroke-linecap="round" stroke-linejoin="round"/>
<path d="M24.9974 38.3366H19.541" stroke="#2962FF" stroke-width="4" stroke-linecap="round" stroke-linejoin="round"/>
<path d="M30.3329 30.3314H19.541" stroke="#2962FF" stroke-width="4" stroke-linecap="round" stroke-linejoin="round"/>
<path d="M35.6685 22.3288H19.541" stroke="#2962FF" stroke-width="4" stroke-linecap="round" stroke-linejoin="round"/>
</svg>
