<svg width="65" height="66" viewBox="0 0 65 66" fill="none" xmlns="http://www.w3.org/2000/svg">
<path d="M56.509 33C56.509 46.2604 45.7594 57.01 32.499 57.01" stroke="#2962FF" stroke-width="4" stroke-linecap="round" stroke-linejoin="round"/>
<path d="M8.48926 32.9997C8.48926 19.7394 19.2389 8.98975 32.4993 8.98975" stroke="#2962FF" stroke-width="4" stroke-linecap="round" stroke-linejoin="round"/>
<path d="M8.48926 33.0001C8.48963 35.8124 8.98985 38.6024 9.96657 41.2397C10.4133 42.4646 11.6726 43.1941 12.9574 42.9723L15.5883 42.5083C17.7148 42.1334 19.1603 40.1391 18.8549 38.0016L18.0631 32.4587C17.9098 31.3856 17.3277 30.4207 16.45 29.7845C15.5724 29.1484 14.4742 28.8955 13.4067 29.0838L8.70988 29.9119" stroke="#2962FF" stroke-width="4" stroke-linecap="round" stroke-linejoin="round"/>
<path d="M56.509 32.9997C56.509 19.7394 45.7594 8.98975 32.499 8.98975" stroke="#2962FF" stroke-width="4" stroke-linecap="round" stroke-linejoin="round"/>
<path d="M56.5098 33.0001C56.5095 35.8124 56.0093 38.6024 55.0325 41.2397C54.5858 42.4646 53.3265 43.1941 52.0417 42.9723L49.4108 42.5083C47.2843 42.1334 45.8388 40.1391 46.1442 38.0016L46.936 32.4587C47.0894 31.3856 47.6714 30.4207 48.5491 29.7845C49.4267 29.1484 50.5249 28.8955 51.5924 29.0838L56.2892 29.9119" stroke="#2962FF" stroke-width="4" stroke-linecap="round" stroke-linejoin="round"/>
<path d="M36.4813 34.3098C36.4733 34.3098 36.466 34.3147 36.4629 34.3221C36.4598 34.3296 36.4615 34.3381 36.4672 34.3438C36.4729 34.3495 36.4815 34.3513 36.489 34.3482C36.4964 34.3451 36.5013 34.3378 36.5013 34.3297C36.5016 34.3244 36.4996 34.3191 36.4958 34.3153C36.492 34.3115 36.4867 34.3095 36.4813 34.3098" stroke="#2962FF" stroke-width="4" stroke-linecap="round" stroke-linejoin="round"/>
<path d="M28.5185 34.3179C28.5104 34.3179 28.5031 34.3227 28.5 34.3302C28.4969 34.3376 28.4987 34.3462 28.5044 34.3519C28.5101 34.3576 28.5186 34.3593 28.5261 34.3562C28.5335 34.3531 28.5384 34.3459 28.5384 34.3378C28.5387 34.3324 28.5368 34.3271 28.5329 34.3233C28.5291 34.3195 28.5238 34.3175 28.5185 34.3179" stroke="#2962FF" stroke-width="4" stroke-linecap="round" stroke-linejoin="round"/>
</svg>
