<svg width="26" height="26" viewBox="0 0 26 26" fill="none" xmlns="http://www.w3.org/2000/svg">
<path d="M1.05328 2.85558C0.182617 4.15862 0.182617 5.97255 0.182617 9.60041V16.6117C0.182617 18.1608 0.182617 18.9354 0.702589 19.3805C0.905704 19.5544 1.20768 19.6894 1.4727 19.7248C2.15115 19.8154 2.74276 19.286 3.92599 18.2271L8.66207 13.9889C9.11116 13.587 9.33572 13.386 9.42536 13.1435C9.49771 12.9477 9.50957 12.7347 9.4594 12.5322C9.39724 12.2811 9.19638 12.0565 8.79467 11.6072L8.17965 10.9194C8.05536 10.7805 8.15209 10.5614 8.3375 10.5618L20.8826 10.5897C21.08 10.5901 21.1746 10.8345 21.0281 10.9656L8.09044 22.5433C7.54533 23.0311 7.27277 23.275 7.14306 23.5744C6.83951 24.2752 7.19142 25.1961 7.88491 25.5159C8.18123 25.6525 8.52864 25.6525 9.22345 25.6525H16.2347C19.8626 25.6525 21.6765 25.6525 22.9795 24.7818C23.5436 24.4049 24.028 23.9206 24.4049 23.3565C25.2756 22.0535 25.2756 20.2395 25.2756 16.6117V9.60041C25.2756 5.97255 25.2756 4.15862 24.4049 2.85558C24.028 2.29148 23.5436 1.80715 22.9795 1.43023C21.6765 0.55957 19.8626 0.55957 16.2347 0.55957H9.22345C5.59559 0.55957 3.78166 0.55957 2.47863 1.43023C1.91453 1.80715 1.4302 2.29148 1.05328 2.85558Z" fill="url(#paint0_linear_209_1931)"/>
<defs>
<linearGradient id="paint0_linear_209_1931" x1="5.41031" y1="-0.834482" x2="19.3508" y2="30.8802" gradientUnits="userSpaceOnUse">
<stop stop-color="#FFA767"/>
<stop offset="1" stop-color="#F93023"/>
</linearGradient>
</defs>
</svg>
