<svg width="40" height="29" viewBox="0 0 40 29" fill="none" xmlns="http://www.w3.org/2000/svg">
<path d="M39.1761 4.38219C38.7148 2.66885 37.3639 1.31795 35.6506 0.856668C32.5205 0 19.9999 0 19.9999 0C19.9999 0 7.47937 0 4.34924 0.82372C2.66885 1.285 1.285 2.66885 0.82372 4.38219C0 7.51232 0 14.0032 0 14.0032C0 14.0032 0 20.5271 0.82372 23.6243C1.285 25.3376 2.6359 26.6885 4.34924 27.1498C7.51232 28.0065 19.9999 28.0065 19.9999 28.0065C19.9999 28.0065 32.5205 28.0065 35.6506 27.1827C37.3639 26.7215 38.7148 25.3706 39.1761 23.6572C39.9998 20.5271 39.9998 14.0362 39.9998 14.0362C39.9998 14.0362 40.0328 7.51232 39.1761 4.38219Z" fill="#FF0000"/>
</svg>
